DINishCondensed-BoldItalic.ufo
<glyph name="exclam" format="2">
  <advance width="212"/>
  <unicode hex="0021"/>
  <outline>
    <contour>
      <point x="59" y="225" type="line"/>
      <point x="138" y="225" type="line"/>
      <point x="263" y="707" type="line"/>
      <point x="134" y="707" type="line"/>
    </contour>
    <contour>
      <point x="-5" y="0" type="line"/>
      <point x="107" y="0" type="line"/>
      <point x="134" y="130" type="line"/>
      <point x="22" y="130" type="line"/>
    </contour>
  </outline>
</glyph>
<glyph name="quotedbl" format="2">
  <advance width="359"/>
  <unicode hex="0022"/>
  <outline>
    <contour>
      <point x="122.00092318685851" y="707" type="line"/>
      <point x="237.00092318685853" y="707" type="line"/>
      <point x="174.83532763234848" y="408" type="line"/>
      <point x="59.835327632348466" y="408" type="line"/>
    </contour>
    <contour>
      <point x="306.00092318685853" y="707" type="line"/>
      <point x="422.00092318685853" y="707" type="line"/>
      <point x="359.8353276323485" y="408" type="line"/>
      <point x="243.83532763234848" y="408" type="line"/>
    </contour>
  </outline>
</glyph>
<glyph name="numbersign" format="2">
  <advance width="473"/>
  <unicode hex="0023"/>
  <outline>
    <contour>
      <point x="410.33026792216157" y="420" type="line"/>
      <point x="373.796688405666" y="302" type="line"/>
      <point x="446.796688405666" y="302" type="line"/>
      <point x="429.3321063769742" y="218" type="line"/>
      <point x="346.3321063769742" y="218" type="line"/>
      <point x="279.00735777870267" y="0" type="line"/>
      <point x="186.00735777870267" y="0" type="line"/>
      <point x="253.3321063769742" y="218" type="line"/>
      <point x="162.3321063769742" y="218" type="line"/>
      <point x="95.00735777870266" y="0" type="line"/>
      <point x="0.007357778702655082" y="0" type="line"/>
      <point x="68.3321063769742" y="218" type="line"/>
      <point x="4.33210637697419" y="218" type="line"/>
      <point x="21.796688405665975" y="302" type="line"/>
      <point x="94.79668840566598" y="302" type="line"/>
      <point x="131.33026792216157" y="420" type="line"/>
      <point x="67.33026792216157" y="420" type="line"/>
      <point x="84.79484995085336" y="504" type="line"/>
      <point x="157.79484995085335" y="504" type="line"/>
      <point x="221.00092318685853" y="707" type="line"/>
      <point x="314.00092318685853" y="707" type="line"/>
      <point x="251.79484995085335" y="504" type="line"/>
      <point x="342.79484995085335" y="504" type="line"/>
      <point x="405.00092318685853" y="707" type="line"/>
      <point x="500.00092318685853" y="707" type="line"/>
      <point x="435.79484995085335" y="504" type="line"/>
      <point x="508.79484995085335" y="504" type="line"/>
      <point x="491.33026792216157" y="420" type="line"/>
    </contour>
    <contour>
      <point x="316.33026792216157" y="420" type="line"/>
      <point x="225.33026792216157" y="420" type="line"/>
      <point x="187.79668840566598" y="302" type="line"/>
      <point x="278.796688405666" y="302" type="line"/>
    </contour>
  </outline>
</glyph>
<glyph name="dollar" format="2">
  <advance width="438"/>
  <unicode hex="0024"/>
  <outline>
    <contour>
      <point x="107" y="-46" type="line"/>
      <point x="194" y="-46" type="line"/>
      <point x="211" y="35" type="line"/>
      <point x="253" y="44"/>
      <point x="289" y="65"/>
      <point x="317" y="96" type="curve" smooth="yes"/>
      <point x="345" y="127"/>
      <point x="365" y="167"/>
      <point x="375" y="216" type="curve" smooth="yes"/>
      <point x="385" y="266"/>
      <point x="384" y="306"/>
      <point x="370" y="336" type="curve" smooth="yes"/>
      <point x="356" y="365"/>
      <point x="328" y="390"/>
      <point x="285" y="409" type="curve" smooth="yes"/>
      <point x="241" y="428" type="line" smooth="yes"/>
      <point x="222" y="436"/>
      <point x="209" y="446"/>
      <point x="202" y="459" type="curve" smooth="yes"/>
      <point x="195" y="471"/>
      <point x="193" y="487"/>
      <point x="198" y="508" type="curve" smooth="yes"/>
      <point x="208" y="551"/>
      <point x="231" y="573"/>
      <point x="270" y="573" type="curve" smooth="yes"/>
      <point x="291" y="573"/>
      <point x="304" y="567"/>
      <point x="310" y="554" type="curve" smooth="yes"/>
      <point x="315" y="541"/>
      <point x="315" y="521"/>
      <point x="311" y="494" type="curve"/>
      <point x="426" y="494" type="line"/>
      <point x="435" y="543"/>
      <point x="432" y="583"/>
      <point x="418" y="614" type="curve" smooth="yes"/>
      <point x="403" y="645"/>
      <point x="379" y="665"/>
      <point x="344" y="675" type="curve"/>
      <point x="365" y="773" type="line"/>
      <point x="278" y="773" type="line"/>
      <point x="258" y="679" type="line"/>
      <point x="212" y="672"/>
      <point x="172" y="654"/>
      <point x="140" y="623" type="curve" smooth="yes"/>
      <point x="107" y="592"/>
      <point x="86" y="551"/>
      <point x="75" y="502" type="curve" smooth="yes"/>
      <point x="66" y="455"/>
      <point x="67" y="419"/>
      <point x="80" y="392" type="curve" smooth="yes"/>
      <point x="92" y="365"/>
      <point x="117" y="343"/>
      <point x="154" y="324" type="curve" smooth="yes"/>
      <point x="201" y="301" type="line" smooth="yes"/>
      <point x="223" y="290"/>
      <point x="239" y="278"/>
      <point x="247" y="265" type="curve" smooth="yes"/>
      <point x="255" y="252"/>
      <point x="257" y="234"/>
      <point x="252" y="213" type="curve" smooth="yes"/>
      <point x="247" y="186"/>
      <point x="238" y="166"/>
      <point x="226" y="153" type="curve" smooth="yes"/>
      <point x="213" y="140"/>
      <point x="196" y="134"/>
      <point x="175" y="134" type="curve" smooth="yes"/>
      <point x="154" y="134"/>
      <point x="140" y="141"/>
      <point x="132" y="155" type="curve" smooth="yes"/>
      <point x="124" y="169"/>
      <point x="123" y="190"/>
      <point x="127" y="218" type="curve"/>
      <point x="9" y="218" type="line"/>
      <point x="0" y="162"/>
      <point x="5" y="118"/>
      <point x="23" y="85" type="curve" smooth="yes"/>
      <point x="41" y="52"/>
      <point x="75" y="34"/>
      <point x="123" y="29" type="curve"/>
    </contour>
  </outline>
</glyph>
<glyph name="percent" format="2">
  <advance width="780"/>
  <unicode hex="0025"/>
  <outline>
    <contour>
      <point x="579" y="-7" type="curve" smooth="yes"/>
      <point x="655" y="-7"/>
      <point x="700" y="31"/>
      <point x="716" y="108" type="curve" smooth="yes"/>
      <point x="760" y="318" type="line" smooth="yes"/>
      <point x="776" y="395"/>
      <point x="746" y="433"/>
      <point x="670" y="433" type="curve" smooth="yes"/>
      <point x="594" y="433"/>
      <point x="548" y="395"/>
      <point x="532" y="318" type="curve" smooth="yes"/>
      <point x="488" y="108" type="line" smooth="yes"/>
      <point x="472" y="31"/>
      <point x="503" y="-7"/>
    </contour>
    <contour>
      <point x="147" y="272" type="curve" smooth="yes"/>
      <point x="223" y="272"/>
      <point x="268" y="310"/>
      <point x="284" y="387" type="curve" smooth="yes"/>
      <point x="328" y="598" type="line" smooth="yes"/>
      <point x="344" y="675"/>
      <point x="314" y="713"/>
      <point x="238" y="713" type="curve" smooth="yes"/>
      <point x="163" y="713"/>
      <point x="117" y="675"/>
      <point x="101" y="598" type="curve" smooth="yes"/>
      <point x="57" y="387" type="line" smooth="yes"/>
      <point x="41" y="310"/>
      <point x="72" y="272"/>
    </contour>
    <contour>
      <point x="160" y="0" type="line"/>
      <point x="244" y="0" type="line"/>
      <point x="659" y="715" type="line"/>
      <point x="575" y="715" type="line"/>
    </contour>
    <contour>
      <point x="573" y="80" type="curve" smooth="yes"/>
      <point x="570" y="87"/>
      <point x="571" y="100"/>
      <point x="575" y="120" type="curve" smooth="yes"/>
      <point x="614" y="306" type="line" smooth="yes"/>
      <point x="618" y="327"/>
      <point x="623" y="340"/>
      <point x="629" y="347" type="curve" smooth="yes"/>
      <point x="635" y="354"/>
      <point x="643" y="357"/>
      <point x="654" y="357" type="curve" smooth="yes"/>
      <point x="665" y="357"/>
      <point x="673" y="354"/>
      <point x="676" y="347" type="curve" smooth="yes"/>
      <point x="680" y="340"/>
      <point x="679" y="327"/>
      <point x="675" y="306" type="curve" smooth="yes"/>
      <point x="636" y="120" type="line" smooth="yes"/>
      <point x="632" y="100"/>
      <point x="627" y="87"/>
      <point x="621" y="80" type="curve" smooth="yes"/>
      <point x="614" y="73"/>
      <point x="605" y="69"/>
      <point x="594" y="69" type="curve" smooth="yes"/>
      <point x="582" y="69"/>
      <point x="575" y="73"/>
    </contour>
    <contour>
      <point x="142" y="359" type="curve" smooth="yes"/>
      <point x="139" y="366"/>
      <point x="140" y="379"/>
      <point x="144" y="399" type="curve" smooth="yes"/>
      <point x="183" y="586" type="line" smooth="yes"/>
      <point x="187" y="606"/>
      <point x="192" y="620"/>
      <point x="197" y="627" type="curve" smooth="yes"/>
      <point x="203" y="634"/>
      <point x="211" y="637"/>
      <point x="222" y="637" type="curve" smooth="yes"/>
      <point x="234" y="637"/>
      <point x="242" y="634"/>
      <point x="245" y="627" type="curve" smooth="yes"/>
      <point x="248" y="620"/>
      <point x="247" y="607"/>
      <point x="243" y="586" type="curve" smooth="yes"/>
      <point x="204" y="399" type="line" smooth="yes"/>
      <point x="200" y="380"/>
      <point x="195" y="366"/>
      <point x="190" y="359" type="curve" smooth="yes"/>
      <point x="183" y="352"/>
      <point x="174" y="348"/>
      <point x="162" y="348" type="curve" smooth="yes"/>
      <point x="151" y="348"/>
      <point x="144" y="352"/>
    </contour>
  </outline>
</glyph>
<glyph name="ampersand" format="2">
  <advance width="526"/>
  <unicode hex="0026"/>
  <outline>
    <contour>
      <point x="142" y="-10" type="curve" smooth="yes"/>
      <point x="173" y="-10"/>
      <point x="202" y="-5"/>
      <point x="228" y="6" type="curve" smooth="yes"/>
      <point x="253" y="16"/>
      <point x="279" y="33"/>
      <point x="303" y="58" type="curve"/>
      <point x="313" y="36"/>
      <point x="323" y="21"/>
      <point x="334" y="13" type="curve" smooth="yes"/>
      <point x="343" y="4"/>
      <point x="359" y="0"/>
      <point x="382" y="0" type="curve" smooth="yes"/>
      <point x="431" y="0" type="line"/>
      <point x="452" y="103" type="line"/>
      <point x="440" y="103" type="line" smooth="yes"/>
      <point x="431" y="103"/>
      <point x="424" y="105"/>
      <point x="418" y="110" type="curve" smooth="yes"/>
      <point x="412" y="114"/>
      <point x="407" y="121"/>
      <point x="404" y="130" type="curve" smooth="yes"/>
      <point x="392" y="161" type="line"/>
      <point x="489" y="275" type="line"/>
      <point x="416" y="334" type="line"/>
      <point x="354" y="258" type="line"/>
      <point x="313" y="362" type="line"/>
      <point x="359" y="402"/>
      <point x="392" y="438"/>
      <point x="415" y="469" type="curve" smooth="yes"/>
      <point x="436" y="500"/>
      <point x="450" y="531"/>
      <point x="457" y="561" type="curve" smooth="yes"/>
      <point x="466" y="608"/>
      <point x="460" y="645"/>
      <point x="437" y="674" type="curve" smooth="yes"/>
      <point x="414" y="703"/>
      <point x="379" y="717"/>
      <point x="332" y="717" type="curve" smooth="yes"/>
      <point x="285" y="717"/>
      <point x="243" y="703"/>
      <point x="208" y="674" type="curve" smooth="yes"/>
      <point x="173" y="645"/>
      <point x="150" y="608"/>
      <point x="141" y="561" type="curve" smooth="yes"/>
      <point x="135" y="534"/>
      <point x="136" y="508"/>
      <point x="141" y="482" type="curve" smooth="yes"/>
      <point x="147" y="456"/>
      <point x="159" y="421"/>
      <point x="176" y="377" type="curve"/>
      <point x="126" y="333"/>
      <point x="88" y="294"/>
      <point x="64" y="260" type="curve" smooth="yes"/>
      <point x="40" y="225"/>
      <point x="24" y="190"/>
      <point x="16" y="155" type="curve" smooth="yes"/>
      <point x="6" y="105"/>
      <point x="13" y="65"/>
      <point x="35" y="35" type="curve" smooth="yes"/>
      <point x="58" y="5"/>
      <point x="94" y="-10"/>
    </contour>
    <contour>
      <point x="142" y="117" type="curve" smooth="yes"/>
      <point x="135" y="128"/>
      <point x="133" y="145"/>
      <point x="138" y="167" type="curve" smooth="yes"/>
      <point x="142" y="186"/>
      <point x="149" y="204"/>
      <point x="161" y="221" type="curve" smooth="yes"/>
      <point x="171" y="238"/>
      <point x="190" y="258"/>
      <point x="214" y="281" type="curve"/>
      <point x="267" y="152" type="line"/>
      <point x="247" y="132"/>
      <point x="232" y="118"/>
      <point x="219" y="111" type="curve" smooth="yes"/>
      <point x="205" y="103"/>
      <point x="192" y="99"/>
      <point x="179" y="99" type="curve" smooth="yes"/>
      <point x="162" y="99"/>
      <point x="149" y="105"/>
    </contour>
    <contour>
      <point x="274" y="461" type="curve"/>
      <point x="264" y="488"/>
      <point x="258" y="509"/>
      <point x="256" y="525" type="curve" smooth="yes"/>
      <point x="253" y="541"/>
      <point x="253" y="555"/>
      <point x="256" y="567" type="curve" smooth="yes"/>
      <point x="260" y="585"/>
      <point x="267" y="599"/>
      <point x="277" y="609" type="curve" smooth="yes"/>
      <point x="286" y="619"/>
      <point x="298" y="624"/>
      <point x="313" y="624" type="curve" smooth="yes"/>
      <point x="326" y="624"/>
      <point x="336" y="619"/>
      <point x="342" y="610" type="curve" smooth="yes"/>
      <point x="348" y="600"/>
      <point x="349" y="586"/>
      <point x="345" y="567" type="curve" smooth="yes"/>
      <point x="341" y="549"/>
      <point x="335" y="532"/>
      <point x="324" y="517" type="curve" smooth="yes"/>
      <point x="314" y="502"/>
      <point x="297" y="483"/>
    </contour>
  </outline>
</glyph>
<glyph name="quotesingle" format="2">
  <advance width="175"/>
  <unicode hex="0027"/>
  <outline>
    <contour>
      <point x="122.00092318685851" y="707" type="line"/>
      <point x="237.00092318685853" y="707" type="line"/>
      <point x="174.83532763234848" y="408" type="line"/>
      <point x="59.835327632348466" y="408" type="line"/>
    </contour>
  </outline>
</glyph>
<glyph name="parenleft" format="2">
  <advance width="278"/>
  <unicode hex="0028"/>
  <outline>
    <contour>
      <point x="65" y="-86" type="curve"/>
      <point x="167" y="-86" type="line"/>
      <point x="154" y="-20"/>
      <point x="147" y="49"/>
      <point x="148" y="122" type="curve" smooth="yes"/>
      <point x="148" y="194"/>
      <point x="156" y="265"/>
      <point x="171" y="336" type="curve" smooth="yes"/>
      <point x="186" y="407"/>
      <point x="207" y="478"/>
      <point x="238" y="551" type="curve" smooth="yes"/>
      <point x="267" y="623"/>
      <point x="302" y="692"/>
      <point x="343" y="758" type="curve"/>
      <point x="241" y="758" type="line"/>
      <point x="195" y="695"/>
      <point x="156" y="627"/>
      <point x="125" y="556" type="curve" smooth="yes"/>
      <point x="93" y="484"/>
      <point x="69" y="411"/>
      <point x="54" y="336" type="curve" smooth="yes"/>
      <point x="38" y="261"/>
      <point x="31" y="188"/>
      <point x="33" y="117" type="curve" smooth="yes"/>
      <point x="35" y="45"/>
      <point x="45" y="-23"/>
    </contour>
  </outline>
</glyph>
<glyph name="parenright" format="2">
  <advance width="278"/>
  <unicode hex="0029"/>
  <outline>
    <contour>
      <point x="137.8656858934698" y="336" type="curve" smooth="yes"/>
      <point x="152.6274159415307" y="407"/>
      <point x="160.3891459895916" y="478"/>
      <point x="161.3587877284703" y="550" type="curve" smooth="yes"/>
      <point x="161.32842946734897" y="622"/>
      <point x="154.67433613377437" y="691"/>
      <point x="141.60441941856425" y="758" type="curve"/>
      <point x="242.60441941856425" y="758" type="line"/>
      <point x="262.5059828970454" y="695"/>
      <point x="273.36798792143776" y="627"/>
      <point x="275.39834618255907" y="555" type="curve" smooth="yes"/>
      <point x="277.42870444368043" y="483"/>
      <point x="270.251151013984" y="410"/>
      <point x="254.8656858934698" y="336" type="curve" smooth="yes"/>
      <point x="239.27230908213784" y="261"/>
      <point x="216.09475565244142" y="188"/>
      <point x="184.3330256043805" y="117" type="curve" smooth="yes"/>
      <point x="152.36338386550182" y="45"/>
      <point x="113.22538888989419" y="-23"/>
      <point x="67.12695236837536" y="-86" type="curve"/>
      <point x="-33.873047631624644" y="-86" type="line"/>
      <point x="6.84912396234747" y="-20"/>
      <point x="42.19503062877286" y="49"/>
      <point x="72.16467236765153" y="121" type="curve" smooth="yes"/>
      <point x="101.13431410653021" y="193"/>
      <point x="123.10395584540888" y="265"/>
    </contour>
  </outline>
</glyph>
<glyph name="asterisk" format="2">
  <advance width="344"/>
  <unicode hex="002A"/>
  <outline>
    <contour>
      <point x="187.5869382600356" y="503" type="line"/>
      <point x="111.27047062732524" y="463" type="line"/>
      <point x="92.08187854984871" y="515" type="line"/>
      <point x="171.60625787337685" y="556" type="line"/>
      <point x="108.33854888772274" y="598" type="line"/>
      <point x="150.56578019188174" y="652" type="line"/>
      <point x="210.24931255917136" y="612" type="line"/>
      <point x="230.00092318685853" y="707" type="line"/>
      <point x="298.00092318685853" y="707" type="line"/>
      <point x="277.83348917753585" y="610" type="line"/>
      <point x="354.14995681024624" y="650" type="line"/>
      <point x="373.3385488877227" y="598" type="line"/>
      <point x="292.81416956419463" y="557" type="line"/>
      <point x="356.87396685903093" y="514" type="line"/>
      <point x="314.8546472456897" y="461" type="line"/>
      <point x="255.1711148784001" y="501" type="line"/>
      <point x="234.37994579662416" y="401" type="line"/>
      <point x="166.37994579662416" y="401" type="line"/>
    </contour>
  </outline>
</glyph>
<glyph name="comma" format="2">
  <advance width="175"/>
  <unicode hex="002C"/>
  <outline>
    <contour>
      <point x="3.2833477299179243" y="136" type="line"/>
      <point x="118.28334772991792" y="136" type="line"/>
      <point x="75.24562773064174" y="-71" type="line"/>
      <point x="-59.09015951540988" y="-164" type="line"/>
    </contour>
  </outline>
</glyph>
<glyph name="hyphen" format="2">
  <advance width="359"/>
  <unicode hex="002D"/>
  <outline>
    <contour>
      <point x="69.45906270480174" y="411" type="line"/>
      <point x="351.45906270480174" y="411" type="line"/>
      <point x="327.96504164239497" y="298" type="line"/>
      <point x="45.96504164239494" y="298" type="line"/>
    </contour>
  </outline>
</glyph>
<glyph name="period" format="2">
  <advance width="179"/>
  <unicode hex="002E"/>
  <outline>
    <contour>
      <point x="3" y="135" type="line"/>
      <point x="123" y="135" type="line"/>
      <point x="95" y="0" type="line"/>
      <point x="-25" y="0" type="line"/>
    </contour>
  </outline>
</glyph>
<glyph name="slash" format="2">
  <advance width="305"/>
  <unicode hex="002F"/>
  <outline>
    <contour>
      <point x="265.6642167134006" y="715" type="line"/>
      <point x="359.6642167134006" y="715" type="line"/>
      <point x="74.92824087052506" y="-10" type="line"/>
      <point x="-18.07175912947494" y="-10" type="line"/>
    </contour>
  </outline>
</glyph>
<glyph name="zero" format="2">
  <advance width="418"/>
  <unicode hex="0030"/>
  <outline>
    <contour>
      <point x="24" y="190" type="curve" smooth="yes"/>
      <point x="92" y="518" type="line" smooth="yes"/>
      <point x="106" y="585"/>
      <point x="130" y="635"/>
      <point x="165" y="668" type="curve" smooth="yes"/>
      <point x="200" y="701"/>
      <point x="246" y="718"/>
      <point x="303" y="718" type="curve" smooth="yes"/>
      <point x="361" y="718"/>
      <point x="401" y="701"/>
      <point x="422" y="668" type="curve" smooth="yes"/>
      <point x="443" y="635"/>
      <point x="447" y="585"/>
      <point x="433" y="518" type="curve" smooth="yes"/>
      <point x="365" y="190" type="line" smooth="yes"/>
      <point x="351" y="123"/>
      <point x="326" y="73"/>
      <point x="291" y="40" type="curve" smooth="yes"/>
      <point x="256" y="7"/>
      <point x="210" y="-10"/>
      <point x="152" y="-10" type="curve" smooth="yes"/>
      <point x="95" y="-10"/>
      <point x="55" y="7"/>
      <point x="34" y="40" type="curve" smooth="yes"/>
      <point x="13" y="73"/>
      <point x="10" y="123"/>
    </contour>
    <contour>
      <point x="240" y="191" type="curve" smooth="yes"/>
      <point x="307" y="517" type="line" smooth="yes"/>
      <point x="314" y="549"/>
      <point x="316" y="572"/>
      <point x="312" y="585" type="curve" smooth="yes"/>
      <point x="307" y="598"/>
      <point x="297" y="604"/>
      <point x="280" y="604" type="curve" smooth="yes"/>
      <point x="263" y="604"/>
      <point x="249" y="598"/>
      <point x="241" y="585" type="curve" smooth="yes"/>
      <point x="232" y="572"/>
      <point x="224" y="550"/>
      <point x="217" y="517" type="curve" smooth="yes"/>
      <point x="150" y="191" type="line" smooth="yes"/>
      <point x="143" y="158"/>
      <point x="141" y="136"/>
      <point x="146" y="123" type="curve" smooth="yes"/>
      <point x="149" y="110"/>
      <point x="158" y="103"/>
      <point x="175" y="103" type="curve" smooth="yes"/>
      <point x="192" y="103"/>
      <point x="206" y="110"/>
      <point x="216" y="123" type="curve" smooth="yes"/>
      <point x="225" y="136"/>
      <point x="233" y="158"/>
    </contour>
  </outline>
</glyph>
<glyph name="one" format="2">
  <advance width="300"/>
  <unicode hex="0031"/>
  <outline>
    <contour>
      <point x="186.4379046366479" y="560" type="line"/>
      <point x="73.0128810620449" y="481" type="line"/>
      <point x="103.57589961225553" y="628" type="line"/>
      <point x="217.00092318685853" y="707" type="line"/>
      <point x="345.00092318685853" y="707" type="line"/>
      <point x="198.00735777870267" y="0" type="line"/>
      <point x="70.00735777870266" y="0" type="line"/>
    </contour>
  </outline>
</glyph>
<glyph name="two" format="2">
  <advance width="406"/>
  <unicode hex="0032"/>
  <outline>
    <contour>
      <point x="2.877643768656185" y="110" type="line"/>
      <point x="241.96412241498862" y="399" type="line" smooth="yes"/>
      <point x="258.33026792216157" y="420"/>
      <point x="270.8647666660635" y="437"/>
      <point x="278.9834420283299" y="452" type="curve" smooth="yes"/>
      <point x="287.1021173905963" y="467"/>
      <point x="293.84452782531594" y="485"/>
      <point x="298.6264967141244" y="508" type="curve" smooth="yes"/>
      <point x="306.94296434683474" y="548" type="line" smooth="yes"/>
      <point x="314.63569690709187" y="585"/>
      <point x="303.5860190326293" y="604"/>
      <point x="274.5860190326293" y="604" type="curve" smooth="yes"/>
      <point x="245.58601903262928" y="604"/>
      <point x="227.42778521627412" y="584"/>
      <point x="218.90340589274598" y="543" type="curve" smooth="yes"/>
      <point x="209.13155642431127" y="496" type="line"/>
      <point x="87.13155642431128" y="496" type="line"/>
      <point x="100.02208125501237" y="558" type="line" smooth="yes"/>
      <point x="110.20975410508258" y="607"/>
      <point x="133.11039835615742" y="645"/>
      <point x="170.13983738987247" y="674" type="curve" smooth="yes"/>
      <point x="207.16927642358746" y="703"/>
      <point x="250.0800400950361" y="717"/>
      <point x="301.0800400950361" y="717" type="curve" smooth="yes"/>
      <point x="352.0800400950361" y="717"/>
      <point x="388.9613647327697" y="702"/>
      <point x="412.93192569905466" y="673" type="curve" smooth="yes"/>
      <point x="435.90248666533967" y="644"/>
      <point x="442.5860190326293" y="604"/>
      <point x="432.1904344917413" y="554" type="curve" smooth="yes"/>
      <point x="421.79484995085335" y="504" type="line" smooth="yes"/>
      <point x="415.3495875355028" y="473"/>
      <point x="405.94388357424106" y="447"/>
      <point x="393.16191468543263" y="424" type="curve" smooth="yes"/>
      <point x="379.37994579662416" y="401"/>
      <point x="360.9742418353624" y="375"/>
      <point x="337.94480280164737" y="346" type="curve" smooth="yes"/>
      <point x="143.70929053192722" y="114" type="line"/>
      <point x="340.7092905319272" y="114" type="line"/>
      <point x="317.00735777870267" y="0" type="line"/>
      <point x="-19.992642221297345" y="0" type="line"/>
    </contour>
  </outline>
</glyph>
<glyph name="three" format="2">
  <advance width="408"/>
  <unicode hex="0033"/>
  <outline>
    <contour>
      <point x="11" y="153" type="curve" smooth="yes"/>
      <point x="22" y="205" type="line"/>
      <point x="144" y="205" type="line"/>
      <point x="134" y="159" type="line" smooth="yes"/>
      <point x="126" y="122"/>
      <point x="138" y="104"/>
      <point x="166" y="103" type="curve" smooth="yes"/>
      <point x="183" y="103"/>
      <point x="196" y="108"/>
      <point x="205" y="119" type="curve" smooth="yes"/>
      <point x="213" y="129"/>
      <point x="219" y="145"/>
      <point x="224" y="166" type="curve" smooth="yes"/>
      <point x="239" y="239" type="line" smooth="yes"/>
      <point x="244" y="264"/>
      <point x="245" y="282"/>
      <point x="240" y="292" type="curve" smooth="yes"/>
      <point x="235" y="302"/>
      <point x="222" y="307"/>
      <point x="202" y="307" type="curve" smooth="yes"/>
      <point x="175" y="307" type="line"/>
      <point x="198" y="420" type="line"/>
      <point x="227" y="420" type="line" smooth="yes"/>
      <point x="247" y="420"/>
      <point x="261" y="425"/>
      <point x="270" y="435" type="curve" smooth="yes"/>
      <point x="279" y="445"/>
      <point x="285" y="461"/>
      <point x="289" y="482" type="curve" smooth="yes"/>
      <point x="301" y="541" type="line" smooth="yes"/>
      <point x="306" y="562"/>
      <point x="306" y="578"/>
      <point x="301" y="588" type="curve" smooth="yes"/>
      <point x="296" y="598"/>
      <point x="286" y="603"/>
      <point x="270" y="603" type="curve" smooth="yes"/>
      <point x="241" y="603"/>
      <point x="223" y="585"/>
      <point x="215" y="548" type="curve" smooth="yes"/>
      <point x="206" y="505" type="line"/>
      <point x="84" y="505" type="line"/>
      <point x="94" y="555" type="line" smooth="yes"/>
      <point x="105" y="605"/>
      <point x="128" y="645"/>
      <point x="164" y="674" type="curve" smooth="yes"/>
      <point x="199" y="703"/>
      <point x="243" y="717"/>
      <point x="296" y="717" type="curve" smooth="yes"/>
      <point x="349" y="717"/>
      <point x="388" y="702"/>
      <point x="411" y="673" type="curve" smooth="yes"/>
      <point x="434" y="644"/>
      <point x="440" y="602"/>
      <point x="429" y="548" type="curve" smooth="yes"/>
      <point x="419" y="500" type="line" smooth="yes"/>
      <point x="412" y="466"/>
      <point x="401" y="439"/>
      <point x="387" y="418" type="curve" smooth="yes"/>
      <point x="372" y="397"/>
      <point x="350" y="381"/>
      <point x="321" y="369" type="curve"/>
      <point x="347" y="357"/>
      <point x="363" y="341"/>
      <point x="368" y="320" type="curve" smooth="yes"/>
      <point x="372" y="299"/>
      <point x="371" y="270"/>
      <point x="363" y="232" type="curve" smooth="yes"/>
      <point x="348" y="160" type="line" smooth="yes"/>
      <point x="337" y="107"/>
      <point x="314" y="65"/>
      <point x="278" y="35" type="curve" smooth="yes"/>
      <point x="242" y="5"/>
      <point x="197" y="-10"/>
      <point x="144" y="-10" type="curve" smooth="yes"/>
      <point x="90" y="-10"/>
      <point x="52" y="5"/>
      <point x="29" y="34" type="curve" smooth="yes"/>
      <point x="6" y="63"/>
      <point x="0" y="102"/>
    </contour>
  </outline>
</glyph>
<glyph name="four" format="2">
  <advance width="437"/>
  <unicode hex="0034"/>
  <outline>
    <contour>
      <point x="379.54093729519826" y="118" type="line"/>
      <point x="335.54093729519826" y="118" type="line"/>
      <point x="311.00735777870267" y="0" type="line"/>
      <point x="185.00735777870267" y="0" type="line"/>
      <point x="209.54093729519826" y="118" type="line"/>
      <point x="-2.4590627048017453" y="118" type="line"/>
      <point x="21.034958357605063" y="231" type="line"/>
      <point x="260.00092318685853" y="707" type="line"/>
      <point x="386.00092318685853" y="707" type="line"/>
      <point x="147.03495835760506" y="231" type="line"/>
      <point x="233.03495835760506" y="231" type="line"/>
      <point x="265.4691821251755" y="387" type="line"/>
      <point x="391.4691821251755" y="387" type="line"/>
      <point x="359.03495835760503" y="231" type="line"/>
      <point x="403.03495835760503" y="231" type="line"/>
    </contour>
  </outline>
</glyph>
<glyph name="five" format="2">
  <advance width="415"/>
  <unicode hex="0035"/>
  <outline>
    <contour>
      <point x="17.689051691179667" y="162" type="curve" smooth="yes"/>
      <point x="24.550137488165724" y="195" type="line"/>
      <point x="148.55013748816572" y="195" type="line"/>
      <point x="142.72861014526848" y="167" type="line" smooth="yes"/>
      <point x="137.94664125646" y="144"/>
      <point x="137.62005420337584" y="128"/>
      <point x="142.54093729519826" y="118" type="curve" smooth="yes"/>
      <point x="147.2539086962029" y="107"/>
      <point x="157.2143502421141" y="102"/>
      <point x="173.2143502421141" y="102" type="curve" smooth="yes"/>
      <point x="189.2143502421141" y="102"/>
      <point x="201.2539086962029" y="107"/>
      <point x="210.54093729519826" y="118" type="curve" smooth="yes"/>
      <point x="219.62005420337584" y="128"/>
      <point x="225.94664125646" y="144"/>
      <point x="230.72861014526848" y="167" type="curve" smooth="yes"/>
      <point x="256.50965980667064" y="291" type="line" smooth="yes"/>
      <point x="264.826127439381" y="331"/>
      <point x="253.9843612557362" y="351"/>
      <point x="224.9843612557362" y="351" type="curve" smooth="yes"/>
      <point x="213.9843612557362" y="351"/>
      <point x="205.3606261832829" y="348"/>
      <point x="197.3210677291941" y="343" type="curve" smooth="yes"/>
      <point x="189.07359758428754" y="337"/>
      <point x="180.2023923669277" y="328"/>
      <point x="172.49954038629684" y="315" type="curve"/>
      <point x="57.49954038629684" y="315" type="line"/>
      <point x="139.00092318685853" y="707" type="line"/>
      <point x="469.00092318685853" y="707" type="line"/>
      <point x="445.0910787428162" y="592" type="line"/>
      <point x="230.0910787428162" y="592" type="line"/>
      <point x="197.24103159361022" y="434" type="line"/>
      <point x="220.98344202832988" y="452"/>
      <point x="249.8546472456897" y="461"/>
      <point x="282.8546472456897" y="461" type="curve" smooth="yes"/>
      <point x="372.8546472456897" y="461"/>
      <point x="406.419504250713" y="406"/>
      <point x="383.5492182607594" y="296" type="curve" smooth="yes"/>
      <point x="356.31278676363297" y="165" type="line" smooth="yes"/>
      <point x="344.2539086962029" y="107"/>
      <point x="321.1057943002215" y="63"/>
      <point x="286.0763552665065" y="34" type="curve" smooth="yes"/>
      <point x="251.04691623279146" y="5"/>
      <point x="205.92824087052506" y="-10"/>
      <point x="150.92824087052506" y="-10" type="curve" smooth="yes"/>
      <point x="95.92824087052506" y="-10"/>
      <point x="58.04691623279145" y="5"/>
      <point x="35.076355266506475" y="34" type="curve" smooth="yes"/>
      <point x="12.10579430022149" y="63"/>
      <point x="6.045997005385146" y="106"/>
    </contour>
  </outline>
</glyph>
<glyph name="six" format="2">
  <advance width="409"/>
  <unicode hex="0036"/>
  <outline>
    <contour>
      <point x="13.896963381997427" y="163" type="curve" smooth="yes"/>
      <point x="35.727690917862155" y="268" type="line" smooth="yes"/>
      <point x="42.380865024030456" y="300"/>
      <point x="50.99448067610996" y="327"/>
      <point x="60.56853787410066" y="349" type="curve" smooth="yes"/>
      <point x="70.14259507209137" y="371"/>
      <point x="84.34038734253535" y="396"/>
      <point x="103.36982637625037" y="425" type="curve" smooth="yes"/>
      <point x="287.00092318685853" y="707" type="line"/>
      <point x="417.00092318685853" y="707" type="line"/>
      <point x="239.61729652115693" y="431" type="line"/>
      <point x="251.65685497524572" y="436"/>
      <point x="265.0726783568812" y="438"/>
      <point x="280.0726783568812" y="438" type="curve" smooth="yes"/>
      <point x="321.0726783568812" y="438"/>
      <point x="350.16191468543263" y="424"/>
      <point x="367.5482990333531" y="397" type="curve" smooth="yes"/>
      <point x="384.72677169045585" y="369"/>
      <point x="388.826127439381" y="331"/>
      <point x="378.84636628012856" y="283" type="curve" smooth="yes"/>
      <point x="353.0653166187264" y="159" type="line" smooth="yes"/>
      <point x="342.0459970053852" y="106"/>
      <point x="318.3137059910392" y="64"/>
      <point x="283.28426695732423" y="35" type="curve" smooth="yes"/>
      <point x="247.04691623279146" y="5"/>
      <point x="201.92824087052506" y="-10"/>
      <point x="147.92824087052506" y="-10" type="curve" smooth="yes"/>
      <point x="92.92824087052506" y="-10"/>
      <point x="54.04691623279145" y="5"/>
      <point x="31.284266957324228" y="35" type="curve" smooth="yes"/>
      <point x="8.31370599103925" y="64"/>
      <point x="2.253908696202906" y="107"/>
    </contour>
    <contour>
      <point x="227.0653166187264" y="159" type="curve" smooth="yes"/>
      <point x="250.76724937195095" y="273" type="line" smooth="yes"/>
      <point x="258.2520702413903" y="309"/>
      <point x="246.99448067610996" y="327"/>
      <point x="218.2023923669277" y="328" type="curve" smooth="yes"/>
      <point x="203.2023923669277" y="328"/>
      <point x="191.37074560365667" y="324"/>
      <point x="182.49954038629684" y="315" type="curve" smooth="yes"/>
      <point x="173.628335168937" y="306"/>
      <point x="167.1333948791239" y="294"/>
      <point x="164.0147195168575" y="279" type="curve" smooth="yes"/>
      <point x="138.85740492790862" y="158" type="line" smooth="yes"/>
      <point x="131.3725840584693" y="122"/>
      <point x="142.6301736237496" y="104"/>
      <point x="171.42226193293186" y="103" type="curve" smooth="yes"/>
      <point x="185.42226193293186" y="103"/>
      <point x="197.46182038702068" y="108"/>
      <point x="207.54093729519826" y="118" type="curve" smooth="yes"/>
      <point x="216.4121425125581" y="127"/>
      <point x="223.3229061840067" y="141"/>
    </contour>
  </outline>
</glyph>
<glyph name="seven" format="2">
  <advance width="390"/>
  <unicode hex="0037"/>
  <outline>
    <contour>
      <point x="459.00092318685853" y="707" type="line"/>
      <point x="435.29899043363395" y="593" type="line"/>
      <point x="139.00735777870267" y="0" type="line"/>
      <point x="13.007357778702655" y="0" type="line"/>
      <point x="309.29899043363395" y="593" type="line"/>
      <point x="92.29899043363395" y="593" type="line"/>
      <point x="116.00092318685851" y="707" type="line"/>
    </contour>
  </outline>
</glyph>
<glyph name="eight" format="2">
  <advance width="419"/>
  <unicode hex="0038"/>
  <outline>
    <contour>
      <point x="18.936521836086225" y="168" type="curve" smooth="yes"/>
      <point x="34.11407526578265" y="241" type="line" smooth="yes"/>
      <point x="46.588776714848215" y="301"/>
      <point x="75.52897942001186" y="344"/>
      <point x="120.93468338127362" y="370" type="curve"/>
      <point x="103.22171198026896" y="381"/>
      <point x="91.75621072417087" y="398"/>
      <point x="86.33026792216157" y="420" type="curve" smooth="yes"/>
      <point x="80.9043251201523" y="442"/>
      <point x="80.47838231814299" y="464"/>
      <point x="85.26035120695146" y="487" type="curve" smooth="yes"/>
      <point x="99.19043449174133" y="554" type="line" smooth="yes"/>
      <point x="109.5860190326293" y="604"/>
      <point x="133.90248666533967" y="644"/>
      <point x="170.9319256990547" y="673" type="curve" smooth="yes"/>
      <point x="207.9613647327697" y="702"/>
      <point x="252.0800400950361" y="717"/>
      <point x="304.0800400950361" y="717" type="curve" smooth="yes"/>
      <point x="357.0800400950361" y="717"/>
      <point x="394.9613647327697" y="702"/>
      <point x="419.93192569905466" y="673" type="curve" smooth="yes"/>
      <point x="444.90248666533967" y="644"/>
      <point x="451.5860190326293" y="604"/>
      <point x="441.1904344917413" y="554" type="curve" smooth="yes"/>
      <point x="427.26035120695144" y="487" type="line" smooth="yes"/>
      <point x="422.47838231814296" y="464"/>
      <point x="412.69641342933454" y="441"/>
      <point x="397.33026792216157" y="420" type="curve" smooth="yes"/>
      <point x="381.7562107241709" y="398"/>
      <point x="364.221711980269" y="381"/>
      <point x="342.9346833812736" y="370" type="curve"/>
      <point x="377.7368911108296" y="345"/>
      <point x="388.796688405666" y="302"/>
      <point x="376.1140752657827" y="241" type="curve" smooth="yes"/>
      <point x="360.93652183608623" y="168" type="line" smooth="yes"/>
      <point x="348.8776437686562" y="110"/>
      <point x="324.7295293726748" y="66"/>
      <point x="289.492178648142" y="36" type="curve" smooth="yes"/>
      <point x="253.04691623279146" y="5"/>
      <point x="207.92824087052506" y="-10"/>
      <point x="152.92824087052506" y="-10" type="curve" smooth="yes"/>
      <point x="97.92824087052506" y="-10"/>
      <point x="58.04691623279145" y="5"/>
      <point x="35.49217864814199" y="36" type="curve" smooth="yes"/>
      <point x="12.729529372674769" y="66"/>
      <point x="6.877643768656185" y="110"/>
    </contour>
    <contour>
      <point x="233.72861014526848" y="167" type="curve" smooth="yes"/>
      <point x="250.9852804831425" y="250" type="line" smooth="yes"/>
      <point x="259.3017481158529" y="290"/>
      <point x="248.45998193220805" y="310"/>
      <point x="219.45998193220805" y="310" type="curve" smooth="yes"/>
      <point x="202.45998193220805" y="310"/>
      <point x="190.42042347811926" y="305"/>
      <point x="182.34130656994165" y="295" type="curve" smooth="yes"/>
      <point x="173.05427797094632" y="284"/>
      <point x="166.93560260867991" y="269"/>
      <point x="162.9852804831425" y="250" type="curve" smooth="yes"/>
      <point x="145.72861014526848" y="167" type="line" smooth="yes"/>
      <point x="141.15455294727775" y="145"/>
      <point x="140.8279658941936" y="129"/>
      <point x="144.54093729519826" y="118" type="curve" smooth="yes"/>
      <point x="148.2539086962029" y="107"/>
      <point x="159.00643855129636" y="101"/>
      <point x="176.00643855129636" y="101" type="curve" smooth="yes"/>
      <point x="194.00643855129636" y="101"/>
      <point x="207.2539086962029" y="107"/>
      <point x="215.54093729519826" y="118" type="curve" smooth="yes"/>
      <point x="222.8279658941936" y="129"/>
      <point x="229.15455294727775" y="145"/>
    </contour>
    <contour>
      <point x="299.0128810620449" y="481" type="curve" smooth="yes"/>
      <point x="313.98252280092356" y="553" type="line" smooth="yes"/>
      <point x="317.51702154482547" y="570"/>
      <point x="316.21987352545636" y="583"/>
      <point x="311.0910787428162" y="592" type="curve" smooth="yes"/>
      <point x="304.962283960176" y="601"/>
      <point x="294.79393072344703" y="605"/>
      <point x="280.79393072344703" y="605" type="curve" smooth="yes"/>
      <point x="265.79393072344703" y="605"/>
      <point x="253.96228396017602" y="601"/>
      <point x="245.0910787428162" y="592" type="curve" smooth="yes"/>
      <point x="236.21987352545636" y="583"/>
      <point x="229.51702154482547" y="570"/>
      <point x="225.98252280092356" y="553" type="curve" smooth="yes"/>
      <point x="211.0128810620449" y="481" type="line" smooth="yes"/>
      <point x="206.8546472456897" y="461"/>
      <point x="206.7359718834233" y="446"/>
      <point x="211.65685497524572" y="436" type="curve" smooth="yes"/>
      <point x="215.3698263762504" y="425"/>
      <point x="225.33026792216157" y="420"/>
      <point x="242.33026792216157" y="420" type="curve" smooth="yes"/>
      <point x="259.33026792216157" y="420"/>
      <point x="272.3698263762504" y="425"/>
      <point x="280.6568549752457" y="436" type="curve" smooth="yes"/>
      <point x="288.94388357424106" y="447"/>
      <point x="295.06255893650746" y="462"/>
    </contour>
  </outline>
</glyph>
<glyph name="nine" format="2">
  <advance width="409"/>
  <unicode hex="0039"/>
  <outline>
    <contour>
      <point x="207.1830727535865" y="275" type="line"/>
      <point x="197.14351429949767" y="270"/>
      <point x="183.72769091786216" y="268"/>
      <point x="166.72769091786216" y="268" type="curve" smooth="yes"/>
      <point x="125.72769091786216" y="268"/>
      <point x="96.63845458931078" y="282"/>
      <point x="79.45998193220805" y="310" type="curve" smooth="yes"/>
      <point x="62.073597584287555" y="337"/>
      <point x="57.974241835362406" y="375"/>
      <point x="68.1619146854326" y="424" type="curve" smooth="yes"/>
      <point x="93.94296434683477" y="548" type="line" smooth="yes"/>
      <point x="104.96228396017602" y="601"/>
      <point x="128.6945749745219" y="643"/>
      <point x="164.9319256990547" y="673" type="curve" smooth="yes"/>
      <point x="199.9613647327697" y="702"/>
      <point x="245.0800400950361" y="717"/>
      <point x="300.0800400950361" y="717" type="curve" smooth="yes"/>
      <point x="355.0800400950361" y="717"/>
      <point x="393.9613647327697" y="702"/>
      <point x="416.93192569905466" y="673" type="curve" smooth="yes"/>
      <point x="439.6945749745219" y="643"/>
      <point x="444.75437226935827" y="600"/>
      <point x="433.11131758356373" y="544" type="curve" smooth="yes"/>
      <point x="411.0726783568812" y="438" type="line" smooth="yes"/>
      <point x="404.419504250713" y="406"/>
      <point x="395.80588859863343" y="379"/>
      <point x="386.23183140064276" y="357" type="curve" smooth="yes"/>
      <point x="376.65777420265204" y="335"/>
      <point x="362.45998193220805" y="310"/>
      <point x="344.6384545893108" y="282" type="curve" smooth="yes"/>
      <point x="160.00735777870267" y="0" type="line"/>
      <point x="30.007357778702655" y="0" type="line"/>
    </contour>
    <contour>
      <point x="282.99356144870364" y="428" type="curve" smooth="yes"/>
      <point x="308.15087603765255" y="549" type="line" smooth="yes"/>
      <point x="315.63569690709187" y="585"/>
      <point x="305.3781073418115" y="603"/>
      <point x="276.3781073418115" y="603" type="curve" smooth="yes"/>
      <point x="246.37810734181153" y="603"/>
      <point x="227.63569690709187" y="585"/>
      <point x="219.94296434683477" y="548" type="curve" smooth="yes"/>
      <point x="196.03311990279246" y="433" type="line" smooth="yes"/>
      <point x="188.54829903335312" y="397"/>
      <point x="199.80588859863343" y="379"/>
      <point x="229.80588859863343" y="379" type="curve" smooth="yes"/>
      <point x="242.80588859863343" y="379"/>
      <point x="254.6375353619045" y="383"/>
      <point x="264.5087405792643" y="392" type="curve" smooth="yes"/>
      <point x="273.1720341058064" y="400"/>
      <point x="279.6669743956195" y="412"/>
    </contour>
  </outline>
</glyph>
<glyph name="colon" format="2">
  <advance width="179"/>
  <unicode hex="003A"/>
  <outline>
    <contour>
      <point x="3.0754360391001647" y="135" type="line"/>
      <point x="123.07543603910017" y="135" type="line"/>
      <point x="95.00735777870266" y="0" type="line"/>
      <point x="-24.992642221297345" y="0" type="line"/>
    </contour>
    <contour>
      <point x="75.0128810620449" y="481" type="line"/>
      <point x="195.0128810620449" y="481" type="line"/>
      <point x="166.9448028016474" y="346" type="line"/>
      <point x="46.944802801647384" y="346" type="line"/>
    </contour>
  </outline>
</glyph>
<glyph name="semicolon" format="2">
  <advance width="179"/>
  <unicode hex="003B"/>
  <outline>
    <contour>
      <point x="75.0128810620449" y="481" type="line"/>
      <point x="195.0128810620449" y="481" type="line"/>
      <point x="166.9448028016474" y="346" type="line"/>
      <point x="46.944802801647384" y="346" type="line"/>
    </contour>
    <contour>
      <point x="7.283347729917924" y="136" type="line"/>
      <point x="123.28334772991792" y="136" type="line"/>
      <point x="80.24562773064174" y="-71" type="line"/>
      <point x="-55.09015951540988" y="-164" type="line"/>
    </contour>
  </outline>
</glyph>
<glyph name="question" format="2">
  <advance width="385"/>
  <unicode hex="003F"/>
  <outline>
    <contour>
      <point x="128" y="247" type="line" smooth="yes"/>
      <point x="135" y="277"/>
      <point x="142" y="301"/>
      <point x="150" y="319" type="curve" smooth="yes"/>
      <point x="158" y="336"/>
      <point x="174" y="360"/>
      <point x="199" y="389" type="curve" smooth="yes"/>
      <point x="247" y="446" type="line" smooth="yes"/>
      <point x="261" y="463"/>
      <point x="272" y="479"/>
      <point x="278" y="492" type="curve" smooth="yes"/>
      <point x="285" y="505"/>
      <point x="291" y="523"/>
      <point x="295" y="544" type="curve" smooth="yes"/>
      <point x="301" y="572"/>
      <point x="298" y="590"/>
      <point x="287" y="600" type="curve" smooth="yes"/>
      <point x="281" y="606"/>
      <point x="271" y="608"/>
      <point x="259" y="608" type="curve" smooth="yes"/>
      <point x="238" y="608"/>
      <point x="223" y="601"/>
      <point x="215" y="586" type="curve" smooth="yes"/>
      <point x="206" y="571"/>
      <point x="197" y="545"/>
      <point x="190" y="509" type="curve"/>
      <point x="71" y="509" type="line"/>
      <point x="85" y="578"/>
      <point x="110" y="630"/>
      <point x="144" y="665" type="curve" smooth="yes"/>
      <point x="178" y="699"/>
      <point x="224" y="716"/>
      <point x="283" y="716" type="curve" smooth="yes"/>
      <point x="335" y="716"/>
      <point x="373" y="701"/>
      <point x="398" y="672" type="curve" smooth="yes"/>
      <point x="421" y="642"/>
      <point x="428" y="600"/>
      <point x="417" y="547" type="curve" smooth="yes"/>
      <point x="411" y="520"/>
      <point x="403" y="497"/>
      <point x="393" y="476" type="curve" smooth="yes"/>
      <point x="383" y="455"/>
      <point x="366" y="431"/>
      <point x="341" y="404" type="curve" smooth="yes"/>
      <point x="289" y="346" type="line" smooth="yes"/>
      <point x="273" y="329"/>
      <point x="263" y="314"/>
      <point x="258" y="301" type="curve" smooth="yes"/>
      <point x="252" y="288"/>
      <point x="246" y="271"/>
      <point x="242" y="248" type="curve" smooth="yes"/>
      <point x="232" y="203" type="line"/>
      <point x="119" y="203" type="line"/>
    </contour>
    <contour>
      <point x="104" y="130" type="line"/>
      <point x="217" y="130" type="line"/>
      <point x="190" y="0" type="line"/>
      <point x="77" y="0" type="line"/>
    </contour>
  </outline>
</glyph>
<glyph name="at" format="2">
  <advance width="731"/>
  <unicode hex="0040"/>
  <outline>
    <contour>
      <point x="26" y="204" type="curve" smooth="yes"/>
      <point x="63" y="379" type="line" smooth="yes"/>
      <point x="77" y="448"/>
      <point x="104" y="508"/>
      <point x="141" y="559" type="curve" smooth="yes"/>
      <point x="179" y="610"/>
      <point x="225" y="650"/>
      <point x="280" y="678" type="curve" smooth="yes"/>
      <point x="335" y="705"/>
      <point x="394" y="719"/>
      <point x="460" y="719" type="curve" smooth="yes"/>
      <point x="525" y="719"/>
      <point x="581" y="705"/>
      <point x="624" y="678" type="curve" smooth="yes"/>
      <point x="667" y="650"/>
      <point x="697" y="611"/>
      <point x="713" y="560" type="curve" smooth="yes"/>
      <point x="730" y="509"/>
      <point x="731" y="450"/>
      <point x="717" y="383" type="curve" smooth="yes"/>
      <point x="683" y="221" type="line" smooth="yes"/>
      <point x="672" y="168"/>
      <point x="651" y="127"/>
      <point x="622" y="99" type="curve" smooth="yes"/>
      <point x="592" y="71"/>
      <point x="554" y="57"/>
      <point x="508" y="57" type="curve" smooth="yes"/>
      <point x="479" y="57"/>
      <point x="456" y="63"/>
      <point x="438" y="75" type="curve" smooth="yes"/>
      <point x="419" y="87"/>
      <point x="407" y="104"/>
      <point x="400" y="126" type="curve"/>
      <point x="387" y="102"/>
      <point x="372" y="85"/>
      <point x="353" y="74" type="curve" smooth="yes"/>
      <point x="335" y="63"/>
      <point x="312" y="57"/>
      <point x="285" y="57" type="curve" smooth="yes"/>
      <point x="248" y="57"/>
      <point x="223" y="70"/>
      <point x="211" y="95" type="curve" smooth="yes"/>
      <point x="199" y="120"/>
      <point x="198" y="159"/>
      <point x="209" y="211" type="curve" smooth="yes"/>
      <point x="243" y="373" type="line" smooth="yes"/>
      <point x="252" y="420"/>
      <point x="268" y="455"/>
      <point x="290" y="479" type="curve" smooth="yes"/>
      <point x="311" y="503"/>
      <point x="340" y="515"/>
      <point x="377" y="515" type="curve" smooth="yes"/>
      <point x="396" y="515"/>
      <point x="410" y="511"/>
      <point x="422" y="504" type="curve" smooth="yes"/>
      <point x="433" y="497"/>
      <point x="441" y="485"/>
      <point x="446" y="468" type="curve"/>
      <point x="454" y="507" type="line"/>
      <point x="562" y="507" type="line"/>
      <point x="498" y="197" type="line" smooth="yes"/>
      <point x="495" y="181"/>
      <point x="496" y="169"/>
      <point x="502" y="162" type="curve" smooth="yes"/>
      <point x="507" y="154"/>
      <point x="516" y="150"/>
      <point x="528" y="150" type="curve" smooth="yes"/>
      <point x="543" y="150"/>
      <point x="555" y="155"/>
      <point x="563" y="165" type="curve" smooth="yes"/>
      <point x="570" y="175"/>
      <point x="576" y="189"/>
      <point x="580" y="207" type="curve" smooth="yes"/>
      <point x="619" y="392" type="line" smooth="yes"/>
      <point x="634" y="467"/>
      <point x="627" y="524"/>
      <point x="596" y="565" type="curve" smooth="yes"/>
      <point x="566" y="605"/>
      <point x="514" y="625"/>
      <point x="441" y="625" type="curve" smooth="yes"/>
      <point x="366" y="625"/>
      <point x="306" y="604"/>
      <point x="260" y="563" type="curve" smooth="yes"/>
      <point x="214" y="522"/>
      <point x="182" y="460"/>
      <point x="165" y="378" type="curve" smooth="yes"/>
      <point x="131" y="214" type="line" smooth="yes"/>
      <point x="95" y="43"/>
      <point x="152" y="-43"/>
      <point x="302" y="-43" type="curve" smooth="yes"/>
      <point x="335" y="-43"/>
      <point x="365" y="-39"/>
      <point x="392" y="-31" type="curve" smooth="yes"/>
      <point x="418" y="-24"/>
      <point x="446" y="-11"/>
      <point x="474" y="6" type="curve"/>
      <point x="512" y="-68" type="line"/>
      <point x="474" y="-92"/>
      <point x="436" y="-109"/>
      <point x="399" y="-120" type="curve" smooth="yes"/>
      <point x="362" y="-131"/>
      <point x="323" y="-137"/>
      <point x="283" y="-137" type="curve" smooth="yes"/>
      <point x="215" y="-137"/>
      <point x="159" y="-123"/>
      <point x="116" y="-96" type="curve" smooth="yes"/>
      <point x="73" y="-69"/>
      <point x="44" y="-29"/>
      <point x="29" y="22" type="curve" smooth="yes"/>
      <point x="12" y="73"/>
      <point x="12" y="134"/>
    </contour>
    <contour>
      <point x="395" y="211" type="curve" smooth="yes"/>
      <point x="428" y="368" type="line" smooth="yes"/>
      <point x="435" y="403"/>
      <point x="426" y="421"/>
      <point x="399" y="421" type="curve" smooth="yes"/>
      <point x="373" y="421"/>
      <point x="356" y="403"/>
      <point x="349" y="368" type="curve" smooth="yes"/>
      <point x="315" y="208" type="line" smooth="yes"/>
      <point x="311" y="189"/>
      <point x="311" y="175"/>
      <point x="316" y="166" type="curve" smooth="yes"/>
      <point x="319" y="157"/>
      <point x="328" y="152"/>
      <point x="343" y="152" type="curve" smooth="yes"/>
      <point x="358" y="152"/>
      <point x="370" y="157"/>
      <point x="378" y="168" type="curve" smooth="yes"/>
      <point x="385" y="178"/>
      <point x="391" y="192"/>
    </contour>
  </outline>
</glyph>
<glyph name="A" format="2">
  <advance width="496"/>
  <unicode hex="0041"/>
  <outline>
    <contour>
      <point x="304.4912594207357" y="137" type="line"/>
      <point x="139.49125942073567" y="137" type="line"/>
      <point x="82.00735777870266" y="0" type="line"/>
      <point x="-48.992642221297345" y="0" type="line"/>
      <point x="279.00092318685853" y="707" type="line"/>
      <point x="402.00092318685853" y="707" type="line"/>
      <point x="435.00735777870267" y="0" type="line"/>
      <point x="304.00735777870267" y="0" type="line"/>
    </contour>
    <contour>
      <point x="304.9852804831425" y="250" type="line"/>
      <point x="305.6559357478394" y="537" type="line"/>
      <point x="185.9852804831425" y="250" type="line"/>
    </contour>
  </outline>
</glyph>
<glyph name="B" format="2">
  <advance width="466"/>
  <unicode hex="0042"/>
  <outline>
    <contour>
      <point x="415.6292543963433" y="205" type="curve" smooth="yes"/>
      <point x="400.65961265746466" y="133"/>
      <point x="374.8482047349412" y="81"/>
      <point x="339.1950306287729" y="49" type="curve" smooth="yes"/>
      <point x="303.3339448317868" y="16"/>
      <point x="250.00735777870267" y="0"/>
      <point x="179.00735777870267" y="0" type="curve" smooth="yes"/>
      <point x="-11.992642221297345" y="0" type="line"/>
      <point x="135.00092318685853" y="707" type="line"/>
      <point x="326.00092318685853" y="707" type="line" smooth="yes"/>
      <point x="395.00092318685853" y="707"/>
      <point x="440.8822478245921" y="692"/>
      <point x="464.4369854092416" y="661" type="curve" smooth="yes"/>
      <point x="486.991722993891" y="630"/>
      <point x="492.0119618346386" y="582"/>
      <point x="478.2897902406665" y="516" type="curve" smooth="yes"/>
      <point x="471.0128810620449" y="481"/>
      <point x="458.9834420283299" y="452"/>
      <point x="442.7856497578859" y="427" type="curve" smooth="yes"/>
      <point x="425.5878574874419" y="402"/>
      <point x="401.84544705272225" y="384"/>
      <point x="371.14259507209135" y="371" type="curve"/>
      <point x="399.23183140064276" y="357"/>
      <point x="416.07359758428754" y="337"/>
      <point x="421.45998193220805" y="310" type="curve" smooth="yes"/>
      <point x="426.84636628012856" y="283"/>
      <point x="424.569457101507" y="248"/>
    </contour>
    <contour>
      <point x="291.50045961370313" y="214" type="curve" smooth="yes"/>
      <point x="298.77736879232475" y="249"/>
      <point x="298.1830727535865" y="275"/>
      <point x="288.50965980667064" y="291" type="curve" smooth="yes"/>
      <point x="278.62833516893704" y="306"/>
      <point x="259.29162869547906" y="314"/>
      <point x="230.2916286954791" y="314" type="curve" smooth="yes"/>
      <point x="178.2916286954791" y="314" type="line"/>
      <point x="136.50137884110947" y="113" type="line"/>
      <point x="188.50137884110947" y="113" type="line" smooth="yes"/>
      <point x="219.50137884110947" y="113"/>
      <point x="243.16467236765152" y="121"/>
      <point x="258.2833477299179" y="136" type="curve" smooth="yes"/>
      <point x="272.4020230921843" y="151"/>
      <point x="283.80772705344606" y="177"/>
    </contour>
    <contour>
      <point x="236.5069021244517" y="594" type="line"/>
      <point x="200.95400299461485" y="423" type="line"/>
      <point x="253.95400299461485" y="423" type="line" smooth="yes"/>
      <point x="282.9540029946148" y="423"/>
      <point x="305.40938483033915" y="430"/>
      <point x="320.11223681097005" y="443" type="curve" smooth="yes"/>
      <point x="333.81508879160094" y="456"/>
      <point x="344.3891459895916" y="478"/>
      <point x="350.6264967141244" y="508" type="curve" smooth="yes"/>
      <point x="357.0717591294749" y="539"/>
      <point x="355.8537280182834" y="562"/>
      <point x="347.5565799989143" y="575" type="curve" smooth="yes"/>
      <point x="338.2594319795451" y="588"/>
      <point x="318.5069021244517" y="594"/>
      <point x="289.5069021244517" y="594" type="curve" smooth="yes"/>
    </contour>
  </outline>
</glyph>
<glyph name="C" format="2">
  <advance width="479"/>
  <unicode hex="0043"/>
  <outline>
    <contour>
      <point x="24.550137488165724" y="195" type="curve" smooth="yes"/>
      <point x="90.6660551682132" y="513" type="line" smooth="yes"/>
      <point x="104.59613845300308" y="580"/>
      <point x="133.99172299389105" y="630"/>
      <point x="179.2686321725126" y="665" type="curve" smooth="yes"/>
      <point x="223.5455413511342" y="700"/>
      <point x="277.0800400950361" y="717"/>
      <point x="338.0800400950361" y="717" type="curve" smooth="yes"/>
      <point x="397.0800400950361" y="717"/>
      <point x="440.5455413511342" y="700"/>
      <point x="469.4765438633304" y="666" type="curve" smooth="yes"/>
      <point x="498.1996346847088" y="631"/>
      <point x="505.3882267621853" y="579"/>
      <point x="491.0423200957599" y="510" type="curve" smooth="yes"/>
      <point x="486.4682628977692" y="488" type="line"/>
      <point x="360.4682628977692" y="488" type="line"/>
      <point x="364.83440840494217" y="509" type="line" smooth="yes"/>
      <point x="371.4875825111105" y="541"/>
      <point x="369.4774630907367" y="565"/>
      <point x="359.59613845300305" y="580" type="curve" smooth="yes"/>
      <point x="349.71481381526945" y="595"/>
      <point x="333.3781073418115" y="603"/>
      <point x="311.3781073418115" y="603" type="curve" smooth="yes"/>
      <point x="284.3781073418115" y="603"/>
      <point x="263.5069021244517" y="594"/>
      <point x="247.76449168973204" y="576" type="curve" smooth="yes"/>
      <point x="231.8141695641946" y="557"/>
      <point x="220.2005539121151" y="530"/>
      <point x="212.507821351858" y="493" type="curve" smooth="yes"/>
      <point x="153.46090115961437" y="209" type="line" smooth="yes"/>
      <point x="139.11499449318896" y="140"/>
      <point x="157.04599700538515" y="106"/>
      <point x="207.8380853145674" y="105" type="curve" smooth="yes"/>
      <point x="230.8380853145674" y="105"/>
      <point x="250.50137884110947" y="113"/>
      <point x="266.8279658941936" y="129" type="curve" smooth="yes"/>
      <point x="283.15455294727775" y="145"/>
      <point x="293.93652183608623" y="168"/>
      <point x="300.3817842514368" y="199" type="curve" smooth="yes"/>
      <point x="304.12419468615644" y="217" type="line"/>
      <point x="429.12419468615644" y="217" type="line"/>
      <point x="425.173872560619" y="198" type="line" smooth="yes"/>
      <point x="411.03587758501135" y="130"/>
      <point x="381.43238135330563" y="79"/>
      <point x="337.15547217468406" y="44" type="curve" smooth="yes"/>
      <point x="291.8785629960625" y="9"/>
      <point x="239.3440642521606" y="-8"/>
      <point x="180.3440642521606" y="-8" type="curve" smooth="yes"/>
      <point x="119.34406425216058" y="-8"/>
      <point x="73.87856299606248" y="9"/>
      <point x="46.155472174684064" y="44" type="curve" smooth="yes"/>
      <point x="18.224469662487884" y="78"/>
      <point x="10.620054203375851" y="128"/>
    </contour>
  </outline>
</glyph>
<glyph name="D" format="2">
  <advance width="474"/>
  <unicode hex="0044"/>
  <outline>
    <contour>
      <point x="135.00092318685853" y="707" type="line"/>
      <point x="331.00092318685853" y="707" type="line" smooth="yes"/>
      <point x="390.00092318685853" y="707"/>
      <point x="434.4664244429566" y="690"/>
      <point x="463.3974269551528" y="656" type="curve" smooth="yes"/>
      <point x="491.1205177765312" y="621"/>
      <point x="498.7249332356432" y="571"/>
      <point x="484.79484995085335" y="504" type="curve" smooth="yes"/>
      <point x="422.2134310147078" y="203" type="line" smooth="yes"/>
      <point x="408.4912594207357" y="137"/>
      <point x="379.0956748798477" y="87"/>
      <point x="334.81876570122614" y="52" type="curve" smooth="yes"/>
      <point x="290.5418565226046" y="17"/>
      <point x="238.00735777870267" y="0"/>
      <point x="177.00735777870267" y="0" type="curve" smooth="yes"/>
      <point x="-11.992642221297345" y="0" type="line"/>
    </contour>
    <contour>
      <point x="204.50137884110947" y="113" type="line" smooth="yes"/>
      <point x="228.50137884110947" y="113"/>
      <point x="248.3725840584693" y="122"/>
      <point x="265.32290618400674" y="141" type="curve" smooth="yes"/>
      <point x="281.0653166187264" y="159"/>
      <point x="292.2631088891704" y="184"/>
      <point x="299.12419468615644" y="217" type="curve" smooth="yes"/>
      <point x="354.2207927528627" y="482" type="line" smooth="yes"/>
      <point x="361.705613622302" y="518"/>
      <point x="361.52714096519924" y="546"/>
      <point x="353.4774630907367" y="565" type="curve" smooth="yes"/>
      <point x="344.4277852162741" y="584"/>
      <point x="328.29899043363395" y="593"/>
      <point x="304.29899043363395" y="593" type="curve" smooth="yes"/>
      <point x="236.29899043363395" y="593" type="line"/>
      <point x="136.50137884110947" y="113" type="line"/>
    </contour>
  </outline>
</glyph>
<glyph name="E" format="2">
  <advance width="384"/>
  <unicode hex="0045"/>
  <outline>
    <contour>
      <point x="236.29899043363395" y="593" type="line"/>
      <point x="199.49862115889053" y="416" type="line"/>
      <point x="363.49862115889056" y="416" type="line"/>
      <point x="340.0046000964837" y="303" type="line"/>
      <point x="176.00460009648373" y="303" type="line"/>
      <point x="136.50137884110947" y="113" type="line"/>
      <point x="326.50137884110944" y="113" type="line"/>
      <point x="303.00735777870267" y="0" type="line"/>
      <point x="-11.992642221297345" y="0" type="line"/>
      <point x="135.00092318685853" y="707" type="line"/>
      <point x="450.00092318685853" y="707" type="line"/>
      <point x="426.29899043363395" y="593" type="line"/>
    </contour>
  </outline>
</glyph>
<glyph name="F" format="2">
  <advance width="379"/>
  <unicode hex="0046"/>
  <outline>
    <contour>
      <point x="237.29899043363395" y="593" type="line"/>
      <point x="199.87488608643727" y="413" type="line"/>
      <point x="363.87488608643724" y="413" type="line"/>
      <point x="340.1729533332127" y="299" type="line"/>
      <point x="176.1729533332127" y="299" type="line"/>
      <point x="114.00735777870266" y="0" type="line"/>
      <point x="-11.992642221297345" y="0" type="line"/>
      <point x="135.00092318685853" y="707" type="line"/>
      <point x="450.00092318685853" y="707" type="line"/>
      <point x="426.29899043363395" y="593" type="line"/>
    </contour>
  </outline>
</glyph>
<glyph name="G" format="2">
  <advance width="479"/>
  <unicode hex="0047"/>
  <outline>
    <contour>
      <point x="180" y="-8" type="curve" smooth="yes"/>
      <point x="240" y="-8"/>
      <point x="293" y="10"/>
      <point x="338" y="45" type="curve" smooth="yes"/>
      <point x="383" y="80"/>
      <point x="412" y="130"/>
      <point x="426" y="195" type="curve" smooth="yes"/>
      <point x="463" y="377" type="line"/>
      <point x="263" y="377" type="line"/>
      <point x="243" y="278" type="line"/>
      <point x="317" y="278" type="line"/>
      <point x="301" y="203" type="line" smooth="yes"/>
      <point x="295" y="172"/>
      <point x="284" y="148"/>
      <point x="268" y="131" type="curve" smooth="yes"/>
      <point x="253" y="114"/>
      <point x="233" y="105"/>
      <point x="208" y="105" type="curve" smooth="yes"/>
      <point x="157" y="106"/>
      <point x="139" y="140"/>
      <point x="153" y="209" type="curve" smooth="yes"/>
      <point x="213" y="493" type="line" smooth="yes"/>
      <point x="220" y="530"/>
      <point x="232" y="557"/>
      <point x="248" y="576" type="curve" smooth="yes"/>
      <point x="264" y="594"/>
      <point x="284" y="603"/>
      <point x="311" y="603" type="curve" smooth="yes"/>
      <point x="332" y="603"/>
      <point x="349" y="596"/>
      <point x="360" y="581" type="curve" smooth="yes"/>
      <point x="370" y="566"/>
      <point x="372" y="545"/>
      <point x="367" y="518" type="curve" smooth="yes"/>
      <point x="362" y="497" type="line"/>
      <point x="488" y="497" type="line"/>
      <point x="493" y="518" type="line" smooth="yes"/>
      <point x="506" y="583"/>
      <point x="499" y="633"/>
      <point x="470" y="667" type="curve" smooth="yes"/>
      <point x="441" y="700"/>
      <point x="397" y="717"/>
      <point x="338" y="717" type="curve" smooth="yes"/>
      <point x="277" y="717"/>
      <point x="224" y="700"/>
      <point x="179" y="665" type="curve" smooth="yes"/>
      <point x="134" y="630"/>
      <point x="105" y="580"/>
      <point x="91" y="513" type="curve" smooth="yes"/>
      <point x="25" y="195" type="line" smooth="yes"/>
      <point x="11" y="128"/>
      <point x="18" y="78"/>
      <point x="46" y="44" type="curve" smooth="yes"/>
      <point x="74" y="9"/>
      <point x="119" y="-8"/>
    </contour>
  </outline>
</glyph>
<glyph name="H" format="2">
  <advance width="471"/>
  <unicode hex="0048"/>
  <outline>
    <contour>
      <point x="-12" y="0" type="line"/>
      <point x="114" y="0" type="line"/>
      <point x="177" y="303" type="line"/>
      <point x="310" y="303" type="line"/>
      <point x="247" y="0" type="line"/>
      <point x="373" y="0" type="line"/>
      <point x="520" y="707" type="line"/>
      <point x="394" y="707" type="line"/>
      <point x="333" y="416" type="line"/>
      <point x="200" y="416" type="line"/>
      <point x="261" y="707" type="line"/>
      <point x="135" y="707" type="line"/>
    </contour>
  </outline>
</glyph>
<glyph name="I" format="2">
  <advance width="219"/>
  <unicode hex="0049"/>
  <outline>
    <contour>
      <point x="-8" y="0" type="line"/>
      <point x="117" y="0" type="line"/>
      <point x="264" y="707" type="line"/>
      <point x="139" y="707" type="line"/>
    </contour>
  </outline>
</glyph>
<glyph name="J" format="2">
  <advance width="272"/>
  <unicode hex="004A"/>
  <outline>
    <contour>
      <point x="-38" y="0" type="line"/>
      <point x="-13" y="0" type="line" smooth="yes"/>
      <point x="109" y="0"/>
      <point x="182" y="56"/>
      <point x="205" y="168" type="curve" smooth="yes"/>
      <point x="317" y="707" type="line"/>
      <point x="191" y="707" type="line"/>
      <point x="82" y="182" type="line" smooth="yes"/>
      <point x="77" y="159"/>
      <point x="68" y="141"/>
      <point x="54" y="130" type="curve" smooth="yes"/>
      <point x="41" y="119"/>
      <point x="24" y="114"/>
      <point x="3" y="114" type="curve" smooth="yes"/>
      <point x="-14" y="114" type="line"/>
    </contour>
  </outline>
</glyph>
<glyph name="K" format="2">
  <advance width="471"/>
  <unicode hex="004B"/>
  <outline>
    <contour>
      <point x="226.76724937195095" y="273" type="line"/>
      <point x="146.27322830954415" y="160" type="line"/>
      <point x="113.00735777870266" y="0" type="line"/>
      <point x="-11.992642221297345" y="0" type="line"/>
      <point x="135.00092318685853" y="707" type="line"/>
      <point x="260.00092318685853" y="707" type="line"/>
      <point x="190.76633014454464" y="374" type="line"/>
      <point x="410.00092318685853" y="707" type="line"/>
      <point x="536.0009231868585" y="707" type="line"/>
      <point x="328.49862115889056" y="416" type="line"/>
      <point x="412.00735777870267" y="0" type="line"/>
      <point x="278.00735777870267" y="0" type="line"/>
    </contour>
  </outline>
</glyph>
<glyph name="L" format="2">
  <advance width="375"/>
  <unicode hex="004C"/>
  <outline>
    <contour>
      <point x="135.00092318685853" y="707" type="line"/>
      <point x="261.00092318685853" y="707" type="line"/>
      <point x="137.50137884110947" y="113" type="line"/>
      <point x="326.50137884110944" y="113" type="line"/>
      <point x="303.00735777870267" y="0" type="line"/>
      <point x="-11.992642221297345" y="0" type="line"/>
    </contour>
  </outline>
</glyph>
<glyph name="M" format="2">
  <advance width="584"/>
  <unicode hex="004D"/>
  <outline>
    <contour>
      <point x="-12" y="0" type="line"/>
      <point x="114" y="0" type="line"/>
      <point x="199" y="411" type="line"/>
      <point x="231" y="137" type="line"/>
      <point x="299" y="137" type="line"/>
      <point x="447" y="414" type="line"/>
      <point x="361" y="0" type="line"/>
      <point x="487" y="0" type="line"/>
      <point x="634" y="707" type="line"/>
      <point x="508" y="707" type="line"/>
      <point x="306" y="334" type="line"/>
      <point x="261" y="707" type="line"/>
      <point x="135" y="707" type="line"/>
    </contour>
  </outline>
</glyph>
<glyph name="N" format="2">
  <advance width="485"/>
  <unicode hex="004E"/>
  <outline>
    <contour>
      <point x="-12" y="0" type="line"/>
      <point x="114" y="0" type="line"/>
      <point x="192" y="377" type="line"/>
      <point x="261" y="0" type="line"/>
      <point x="387" y="0" type="line"/>
      <point x="534" y="707" type="line"/>
      <point x="408" y="707" type="line"/>
      <point x="326" y="313" type="line"/>
      <point x="261" y="707" type="line"/>
      <point x="135" y="707" type="line"/>
    </contour>
  </outline>
</glyph>
<glyph name="O" format="2">
  <advance width="479"/>
  <unicode hex="004F"/>
  <outline>
    <contour>
      <point x="180" y="-8" type="curve" smooth="yes"/>
      <point x="240" y="-8"/>
      <point x="293" y="10"/>
      <point x="338" y="45" type="curve" smooth="yes"/>
      <point x="383" y="80"/>
      <point x="412" y="130"/>
      <point x="426" y="195" type="curve" smooth="yes"/>
      <point x="492" y="513" type="line" smooth="yes"/>
      <point x="506" y="580"/>
      <point x="498" y="630"/>
      <point x="470" y="665" type="curve" smooth="yes"/>
      <point x="442" y="700"/>
      <point x="397" y="717"/>
      <point x="338" y="717" type="curve" smooth="yes"/>
      <point x="277" y="717"/>
      <point x="224" y="700"/>
      <point x="179" y="665" type="curve" smooth="yes"/>
      <point x="134" y="630"/>
      <point x="105" y="580"/>
      <point x="91" y="513" type="curve" smooth="yes"/>
      <point x="25" y="195" type="line" smooth="yes"/>
      <point x="11" y="128"/>
      <point x="18" y="78"/>
      <point x="46" y="44" type="curve" smooth="yes"/>
      <point x="74" y="9"/>
      <point x="119" y="-8"/>
    </contour>
    <contour>
      <point x="208" y="105" type="curve" smooth="yes"/>
      <point x="157" y="106"/>
      <point x="139" y="140"/>
      <point x="153" y="209" type="curve" smooth="yes"/>
      <point x="213" y="493" type="line" smooth="yes"/>
      <point x="220" y="530"/>
      <point x="232" y="557"/>
      <point x="248" y="576" type="curve" smooth="yes"/>
      <point x="264" y="594"/>
      <point x="284" y="603"/>
      <point x="311" y="603" type="curve" smooth="yes"/>
      <point x="336" y="603"/>
      <point x="353" y="594"/>
      <point x="361" y="575" type="curve" smooth="yes"/>
      <point x="369" y="556"/>
      <point x="369" y="529"/>
      <point x="362" y="493" type="curve" smooth="yes"/>
      <point x="302" y="209" type="line" smooth="yes"/>
      <point x="296" y="176"/>
      <point x="284" y="151"/>
      <point x="268" y="133" type="curve" smooth="yes"/>
      <point x="251" y="114"/>
      <point x="231" y="105"/>
    </contour>
  </outline>
</glyph>
<glyph name="P" format="2">
  <advance width="444"/>
  <unicode hex="0050"/>
  <outline>
    <contour>
      <point x="472.6366161344982" y="484" type="curve" smooth="yes"/>
      <point x="457.04323932316623" y="409"/>
      <point x="430.4001846373717" y="353"/>
      <point x="392.7074520771146" y="316" type="curve" smooth="yes"/>
      <point x="354.0147195168575" y="279"/>
      <point x="301.27230908213784" y="261"/>
      <point x="232.27230908213784" y="261" type="curve" smooth="yes"/>
      <point x="167.27230908213784" y="261" type="line"/>
      <point x="113.00735777870266" y="0" type="line"/>
      <point x="-11.992642221297345" y="0" type="line"/>
      <point x="135.00092318685853" y="707" type="line"/>
      <point x="325.00092318685853" y="707" type="line" smooth="yes"/>
      <point x="395.00092318685853" y="707"/>
      <point x="441.2585127521388" y="689"/>
      <point x="463.56578019188174" y="652" type="curve" smooth="yes"/>
      <point x="484.8730476316247" y="615"/>
      <point x="488.22999294583013" y="559"/>
    </contour>
    <contour>
      <point x="346.6366161344982" y="484" type="curve" smooth="yes"/>
      <point x="354.32934869475525" y="521"/>
      <point x="355.15087603765255" y="549"/>
      <point x="347.8932864723722" y="567" type="curve" smooth="yes"/>
      <point x="340.63569690709187" y="585"/>
      <point x="324.5069021244517" y="594"/>
      <point x="297.5069021244517" y="594" type="curve" smooth="yes"/>
      <point x="236.5069021244517" y="594" type="line"/>
      <point x="190.97424183536242" y="375" type="line"/>
      <point x="251.97424183536242" y="375" type="line" smooth="yes"/>
      <point x="278.9742418353624" y="375"/>
      <point x="298.84544705272225" y="384"/>
      <point x="313.5878574874419" y="402" type="curve" smooth="yes"/>
      <point x="328.1223562313438" y="419"/>
      <point x="338.94388357424106" y="447"/>
    </contour>
  </outline>
</glyph>
<glyph name="Q" format="2">
  <advance width="479"/>
  <unicode hex="0051"/>
  <outline>
    <contour>
      <point x="297" y="18" type="curve"/>
      <point x="316" y="-110" type="line"/>
      <point x="202" y="-148" type="line"/>
      <point x="181" y="-8" type="line"/>
      <point x="120" y="-8"/>
      <point x="75" y="9"/>
      <point x="47" y="44" type="curve" smooth="yes"/>
      <point x="18" y="78"/>
      <point x="11" y="128"/>
      <point x="25" y="195" type="curve" smooth="yes"/>
      <point x="91" y="513" type="line" smooth="yes"/>
      <point x="105" y="580"/>
      <point x="134" y="630"/>
      <point x="179" y="665" type="curve" smooth="yes"/>
      <point x="224" y="700"/>
      <point x="277" y="717"/>
      <point x="338" y="717" type="curve" smooth="yes"/>
      <point x="397" y="717"/>
      <point x="442" y="700"/>
      <point x="470" y="665" type="curve" smooth="yes"/>
      <point x="498" y="630"/>
      <point x="506" y="580"/>
      <point x="492" y="513" type="curve" smooth="yes"/>
      <point x="426" y="195" type="line" smooth="yes"/>
      <point x="417" y="152"/>
      <point x="401" y="116"/>
      <point x="379" y="87" type="curve" smooth="yes"/>
      <point x="356" y="57"/>
      <point x="329" y="34"/>
    </contour>
    <contour>
      <point x="208" y="105" type="curve" smooth="yes"/>
      <point x="232" y="105"/>
      <point x="252" y="114"/>
      <point x="269" y="133" type="curve" smooth="yes"/>
      <point x="284" y="151"/>
      <point x="296" y="176"/>
      <point x="302" y="209" type="curve" smooth="yes"/>
      <point x="362" y="493" type="line" smooth="yes"/>
      <point x="369" y="529"/>
      <point x="369" y="556"/>
      <point x="361" y="575" type="curve" smooth="yes"/>
      <point x="353" y="594"/>
      <point x="336" y="603"/>
      <point x="311" y="603" type="curve" smooth="yes"/>
      <point x="284" y="603"/>
      <point x="264" y="594"/>
      <point x="248" y="576" type="curve" smooth="yes"/>
      <point x="232" y="557"/>
      <point x="220" y="530"/>
      <point x="213" y="493" type="curve" smooth="yes"/>
      <point x="153" y="209" type="line" smooth="yes"/>
      <point x="139" y="140"/>
      <point x="157" y="105"/>
    </contour>
  </outline>
</glyph>
<glyph name="R" format="2">
  <advance width="471"/>
  <unicode hex="0052"/>
  <outline>
    <contour>
      <point x="233.05427797094632" y="284" type="line"/>
      <point x="173.05427797094632" y="284" type="line"/>
      <point x="114.00735777870266" y="0" type="line"/>
      <point x="-11.992642221297345" y="0" type="line"/>
      <point x="135.00092318685853" y="707" type="line"/>
      <point x="328.00092318685853" y="707" type="line" smooth="yes"/>
      <point x="397.00092318685853" y="707"/>
      <point x="443.4664244429566" y="690"/>
      <point x="465.60533864597056" y="657" type="curve" smooth="yes"/>
      <point x="487.5363411581667" y="623"/>
      <point x="490.3091098540077" y="569"/>
      <point x="475.13155642431127" y="496" type="curve" smooth="yes"/>
      <point x="465.3597069558766" y="449"/>
      <point x="451.04323932316623" y="409"/>
      <point x="431.5979769078157" y="378" type="curve" smooth="yes"/>
      <point x="412.1527144924651" y="347"/>
      <point x="385.16283391283895" y="323"/>
      <point x="352.8362468597548" y="307" type="curve"/>
      <point x="395.00735777870267" y="0" type="line"/>
      <point x="263.00735777870267" y="0" type="line"/>
    </contour>
    <contour>
      <point x="196.34038734253537" y="396" type="line"/>
      <point x="261.34038734253534" y="396" type="line" smooth="yes"/>
      <point x="286.34038734253534" y="396"/>
      <point x="306.0036808690774" y="404"/>
      <point x="319.5381796129793" y="421" type="curve" smooth="yes"/>
      <point x="332.0726783568812" y="438"/>
      <point x="342.2704706273252" y="463"/>
      <point x="349.13155642431127" y="496" type="curve" smooth="yes"/>
      <point x="355.99264222129733" y="529"/>
      <point x="355.98252280092356" y="553"/>
      <point x="350.51702154482547" y="570" type="curve" smooth="yes"/>
      <point x="344.8436085979096" y="586"/>
      <point x="328.5069021244517" y="594"/>
      <point x="302.5069021244517" y="594" type="curve" smooth="yes"/>
      <point x="237.5069021244517" y="594" type="line"/>
    </contour>
  </outline>
</glyph>
<glyph name="S" format="2">
  <advance width="436"/>
  <unicode hex="0053"/>
  <outline>
    <contour>
      <point x="125" y="202" type="line"/>
      <point x="119" y="167"/>
      <point x="121" y="142"/>
      <point x="130" y="125" type="curve" smooth="yes"/>
      <point x="139" y="108"/>
      <point x="156" y="100"/>
      <point x="181" y="100" type="curve" smooth="yes"/>
      <point x="206" y="100"/>
      <point x="225" y="108"/>
      <point x="240" y="123" type="curve" smooth="yes"/>
      <point x="254" y="138"/>
      <point x="265" y="162"/>
      <point x="272" y="195" type="curve" smooth="yes"/>
      <point x="277" y="222"/>
      <point x="276" y="244"/>
      <point x="266" y="260" type="curve" smooth="yes"/>
      <point x="256" y="276"/>
      <point x="239" y="291"/>
      <point x="211" y="304" type="curve" smooth="yes"/>
      <point x="168" y="326" type="line" smooth="yes"/>
      <point x="126" y="347"/>
      <point x="98" y="372"/>
      <point x="85" y="402" type="curve" smooth="yes"/>
      <point x="71" y="431"/>
      <point x="69" y="471"/>
      <point x="80" y="522" type="curve" smooth="yes"/>
      <point x="92" y="581"/>
      <point x="119" y="629"/>
      <point x="161" y="665" type="curve" smooth="yes"/>
      <point x="203" y="700"/>
      <point x="252" y="718"/>
      <point x="311" y="718" type="curve" smooth="yes"/>
      <point x="369" y="718"/>
      <point x="411" y="700"/>
      <point x="435" y="665" type="curve" smooth="yes"/>
      <point x="459" y="630"/>
      <point x="465" y="579"/>
      <point x="454" y="513" type="curve"/>
      <point x="339" y="513" type="line"/>
      <point x="344" y="545"/>
      <point x="344" y="569"/>
      <point x="337" y="585" type="curve" smooth="yes"/>
      <point x="329" y="601"/>
      <point x="314" y="609"/>
      <point x="289" y="609" type="curve" smooth="yes"/>
      <point x="243" y="609"/>
      <point x="214" y="582"/>
      <point x="203" y="528" type="curve" smooth="yes"/>
      <point x="198" y="503"/>
      <point x="200" y="484"/>
      <point x="208" y="469" type="curve" smooth="yes"/>
      <point x="215" y="454"/>
      <point x="232" y="441"/>
      <point x="256" y="430" type="curve" smooth="yes"/>
      <point x="298" y="410" type="line" smooth="yes"/>
      <point x="343" y="388"/>
      <point x="373" y="361"/>
      <point x="389" y="328" type="curve" smooth="yes"/>
      <point x="404" y="295"/>
      <point x="406" y="252"/>
      <point x="395" y="197" type="curve" smooth="yes"/>
      <point x="381" y="132"/>
      <point x="354" y="81"/>
      <point x="313" y="46" type="curve" smooth="yes"/>
      <point x="270" y="10"/>
      <point x="218" y="-8"/>
      <point x="155" y="-8" type="curve" smooth="yes"/>
      <point x="93" y="-8"/>
      <point x="50" y="10"/>
      <point x="25" y="46" type="curve" smooth="yes"/>
      <point x="-1" y="82"/>
      <point x="-7" y="134"/>
      <point x="6" y="202" type="curve"/>
    </contour>
  </outline>
</glyph>
<glyph name="T" format="2">
  <advance width="378"/>
  <unicode hex="0054"/>
  <outline>
    <contour>
      <point x="442.29899043363395" y="593" type="line"/>
      <point x="320.29899043363395" y="593" type="line"/>
      <point x="197.00735777870267" y="0" type="line"/>
      <point x="72.00735777870266" y="0" type="line"/>
      <point x="195.29899043363395" y="593" type="line"/>
      <point x="72.29899043363395" y="593" type="line"/>
      <point x="96.00092318685851" y="707" type="line"/>
      <point x="466.00092318685853" y="707" type="line"/>
    </contour>
  </outline>
</glyph>
<glyph name="U" format="2">
  <advance width="471"/>
  <unicode hex="0055"/>
  <outline>
    <contour>
      <point x="26.47102057998813" y="185" type="line" smooth="yes"/>
      <point x="18.570376328913277" y="147"/>
      <point x="19.50137884110946" y="113"/>
      <point x="30.471939807394442" y="84" type="curve" smooth="yes"/>
      <point x="41.44250077367942" y="55"/>
      <point x="59.660531884870956" y="32"/>
      <point x="85.3339448317868" y="16" type="curve" smooth="yes"/>
      <point x="111.00735777870266" y="0"/>
      <point x="142.3440642521606" y="-8"/>
      <point x="179.3440642521606" y="-8" type="curve" smooth="yes"/>
      <point x="216.3440642521606" y="-8"/>
      <point x="251.00735777870267" y="0"/>
      <point x="283.3339448317868" y="16" type="curve" smooth="yes"/>
      <point x="315.660531884871" y="32"/>
      <point x="343.4425007736794" y="55"/>
      <point x="366.47193980739445" y="84" type="curve" smooth="yes"/>
      <point x="388.50137884110944" y="113"/>
      <point x="403.57037632891326" y="147"/>
      <point x="411.47102057998814" y="185" type="curve" smooth="yes"/>
      <point x="520.0009231868585" y="707" type="line"/>
      <point x="394.00092318685853" y="707" type="line"/>
      <point x="286.0947556524414" y="188" type="line" smooth="yes"/>
      <point x="279.23366985545533" y="155"/>
      <point x="267.2437892758291" y="131"/>
      <point x="247.54093729519826" y="118" type="curve"/>
      <point x="235.66973207783843" y="109"/>
      <point x="220.8380853145674" y="105"/>
      <point x="202.8380853145674" y="105" type="curve" smooth="yes"/>
      <point x="179.8380853145674" y="105"/>
      <point x="165.2934671502917" y="112"/>
      <point x="156.9963191309226" y="125" type="curve" smooth="yes"/>
      <point x="148.69917111155345" y="138"/>
      <point x="147.0653166187264" y="159"/>
      <point x="153.09475565244142" y="188" type="curve" smooth="yes"/>
      <point x="261.00092318685853" y="707" type="line"/>
      <point x="135.00092318685853" y="707" type="line"/>
    </contour>
  </outline>
</glyph>
<glyph name="V" format="2">
  <advance width="459"/>
  <unicode hex="0056"/>
  <outline>
    <contour>
      <point x="98.00092318685851" y="707" type="line"/>
      <point x="236.00092318685853" y="707" type="line"/>
      <point x="211.0156387442638" y="178" type="line"/>
      <point x="407.00092318685853" y="707" type="line"/>
      <point x="546.0009231868585" y="707" type="line"/>
      <point x="240.00735777870267" y="0" type="line"/>
      <point x="110.00735777870266" y="0" type="line"/>
    </contour>
  </outline>
</glyph>
<glyph name="W" format="2">
  <advance width="690"/>
  <unicode hex="0057"/>
  <outline>
    <contour>
      <point x="776" y="707" type="line"/>
      <point x="503" y="0" type="line"/>
      <point x="367" y="0" type="line"/>
      <point x="380" y="434" type="line"/>
      <point x="212" y="0" type="line"/>
      <point x="77" y="0" type="line"/>
      <point x="98" y="707" type="line"/>
      <point x="226" y="707" type="line"/>
      <point x="185" y="178" type="line"/>
      <point x="361" y="707" type="line"/>
      <point x="515" y="707" type="line"/>
      <point x="471" y="178" type="line"/>
      <point x="650" y="707" type="line"/>
    </contour>
  </outline>
</glyph>
<glyph name="X" format="2">
  <advance width="424"/>
  <unicode hex="0058"/>
  <outline>
    <contour>
      <point x="172.31094830882034" y="367" type="line"/>
      <point x="108.00092318685851" y="707" type="line"/>
      <point x="232.00092318685853" y="707" type="line"/>
      <point x="258.84452782531594" y="485" type="line"/>
      <point x="377.00092318685853" y="707" type="line"/>
      <point x="501.00092318685853" y="707" type="line"/>
      <point x="295.31094830882034" y="367" type="line"/>
      <point x="364.00735777870267" y="0" type="line"/>
      <point x="240.00735777870267" y="0" type="line"/>
      <point x="209.36154541068922" y="247" type="line"/>
      <point x="75.00735777870266" y="0" type="line"/>
      <point x="-48.992642221297345" y="0" type="line"/>
    </contour>
  </outline>
</glyph>
<glyph name="Y" format="2">
  <advance width="424"/>
  <unicode hex="0059"/>
  <outline>
    <contour>
      <point x="277.1830727535865" y="275" type="line"/>
      <point x="220.00735777870267" y="0" type="line"/>
      <point x="95.00735777870266" y="0" type="line"/>
      <point x="152.80680782603974" y="278" type="line"/>
      <point x="98.00092318685851" y="707" type="line"/>
      <point x="236.00092318685853" y="707" type="line"/>
      <point x="247.65685497524572" y="436" type="line"/>
      <point x="372.00092318685853" y="707" type="line"/>
      <point x="511.00092318685853" y="707" type="line"/>
    </contour>
  </outline>
</glyph>
<glyph name="Z" format="2">
  <advance width="367"/>
  <unicode hex="005A"/>
  <outline>
    <contour>
      <point x="316.7092905319272" y="114" type="line"/>
      <point x="293.00735777870267" y="0" type="line"/>
      <point x="-32.992642221297345" y="0" type="line"/>
      <point x="-9.29070946807278" y="114" type="line"/>
      <point x="288.29899043363395" y="593" type="line"/>
      <point x="100.29899043363395" y="593" type="line"/>
      <point x="124.00092318685851" y="707" type="line"/>
      <point x="436.00092318685853" y="707" type="line"/>
      <point x="412.29899043363395" y="593" type="line"/>
      <point x="114.70929053192722" y="114" type="line"/>
    </contour>
  </outline>
</glyph>
<glyph name="bracketleft" format="2">
  <advance width="289"/>
  <unicode hex="005B"/>
  <outline>
    <contour>
      <point x="-30" y="-86" type="line"/>
      <point x="178" y="-86" type="line"/>
      <point x="202" y="28" type="line"/>
      <point x="111" y="28" type="line"/>
      <point x="239" y="644" type="line"/>
      <point x="330" y="644" type="line"/>
      <point x="354" y="758" type="line"/>
      <point x="146" y="758" type="line"/>
    </contour>
  </outline>
</glyph>
<glyph name="backslash" format="2">
  <advance width="305"/>
  <unicode hex="005C"/>
  <outline>
    <contour>
      <point x="172" y="-10" type="line"/>
      <point x="266" y="-10" type="line"/>
      <point x="132" y="715" type="line"/>
      <point x="39" y="715" type="line"/>
    </contour>
  </outline>
</glyph>
<glyph name="bracketright" format="2">
  <advance width="289"/>
  <unicode hex="005D"/>
  <outline>
    <contour>
      <point x="-10.171114878400083" y="28" type="line"/>
      <point x="79.82888512159991" y="28" type="line"/>
      <point x="207.90248666533967" y="644" type="line"/>
      <point x="117.90248666533967" y="644" type="line"/>
      <point x="141.60441941856425" y="758" type="line"/>
      <point x="349.60441941856425" y="758" type="line"/>
      <point x="174.12695236837536" y="-86" type="line"/>
      <point x="-33.873047631624644" y="-86" type="line"/>
    </contour>
  </outline>
</glyph>
<glyph name="asciicircum" format="2">
  <advance width="429"/>
  <unicode hex="005E"/>
  <outline>
    <contour>
      <point x="31" y="286" type="line"/>
      <point x="124" y="286" type="line"/>
      <point x="210" y="573" type="line"/>
      <point x="296" y="286" type="line"/>
      <point x="389" y="286" type="line"/>
      <point x="257" y="715" type="line"/>
      <point x="163" y="715" type="line"/>
    </contour>
  </outline>
</glyph>
<glyph name="underscore" format="2">
  <advance width="435"/>
  <unicode hex="005F"/>
  <outline>
    <contour>
      <point x="-65.18031507136756" y="-49" type="line"/>
      <point x="369.81968492863246" y="-49" type="line"/>
      <point x="355.0579548805715" y="-120" type="line"/>
      <point x="-79.94204511942847" y="-120" type="line"/>
    </contour>
  </outline>
</glyph>
<glyph name="grave" format="2">
  <advance width="512"/>
  <unicode hex="0060"/>
  <outline>
    <contour>
      <point x="241.48574405629785" y="743" type="line"/>
      <point x="367.48574405629785" y="743" type="line"/>
      <point x="440.5860190326293" y="604" type="line"/>
      <point x="338.5860190326293" y="604" type="line"/>
    </contour>
  </outline>
</glyph>
<glyph name="a" format="2">
  <advance width="414"/>
  <unicode hex="0061"/>
  <outline>
    <contour>
      <point x="114" y="-8" type="curve" smooth="yes"/>
      <point x="150" y="-8"/>
      <point x="184" y="7"/>
      <point x="217" y="38" type="curve"/>
      <point x="209" y="0" type="line"/>
      <point x="323" y="0" type="line"/>
      <point x="435" y="541" type="line"/>
      <point x="317" y="541" type="line"/>
      <point x="309" y="498" type="line"/>
      <point x="303" y="514"/>
      <point x="293" y="527"/>
      <point x="279" y="536" type="curve" smooth="yes"/>
      <point x="265" y="545"/>
      <point x="248" y="549"/>
      <point x="228" y="549" type="curve" smooth="yes"/>
      <point x="189" y="549"/>
      <point x="154" y="535"/>
      <point x="125" y="507" type="curve" smooth="yes"/>
      <point x="96" y="479"/>
      <point x="74" y="435"/>
      <point x="62" y="374" type="curve" smooth="yes"/>
      <point x="19" y="167" type="line" smooth="yes"/>
      <point x="6" y="106"/>
      <point x="9" y="62"/>
      <point x="28" y="34" type="curve" smooth="yes"/>
      <point x="46" y="6"/>
      <point x="75" y="-8"/>
    </contour>
    <contour>
      <point x="141" y="119" type="curve" smooth="yes"/>
      <point x="134" y="132"/>
      <point x="135" y="155"/>
      <point x="142" y="186" type="curve" smooth="yes"/>
      <point x="177" y="354" type="line" smooth="yes"/>
      <point x="183" y="385"/>
      <point x="192" y="407"/>
      <point x="204" y="421" type="curve" smooth="yes"/>
      <point x="214" y="435"/>
      <point x="229" y="442"/>
      <point x="246" y="442" type="curve" smooth="yes"/>
      <point x="264" y="442"/>
      <point x="275" y="435"/>
      <point x="282" y="421" type="curve" smooth="yes"/>
      <point x="288" y="407"/>
      <point x="287" y="385"/>
      <point x="281" y="354" type="curve" smooth="yes"/>
      <point x="246" y="186" type="line" smooth="yes"/>
      <point x="233" y="127"/>
      <point x="210" y="98"/>
      <point x="175" y="98" type="curve" smooth="yes"/>
      <point x="157" y="98"/>
      <point x="146" y="105"/>
    </contour>
  </outline>
</glyph>
<glyph name="b" format="2">
  <advance width="419"/>
  <unicode hex="0062"/>
  <outline>
    <contour>
      <point x="193" y="-8" type="curve" smooth="yes"/>
      <point x="232" y="-8"/>
      <point x="266" y="6"/>
      <point x="297" y="34" type="curve" smooth="yes"/>
      <point x="327" y="62"/>
      <point x="348" y="106"/>
      <point x="361" y="167" type="curve" smooth="yes"/>
      <point x="404" y="374" type="line" smooth="yes"/>
      <point x="416" y="435"/>
      <point x="414" y="479"/>
      <point x="396" y="507" type="curve" smooth="yes"/>
      <point x="379" y="535"/>
      <point x="350" y="549"/>
      <point x="311" y="549" type="curve" smooth="yes"/>
      <point x="290" y="549"/>
      <point x="271" y="545"/>
      <point x="254" y="536" type="curve" smooth="yes"/>
      <point x="238" y="527"/>
      <point x="222" y="515"/>
      <point x="210" y="498" type="curve"/>
      <point x="253" y="707" type="line"/>
      <point x="134" y="707" type="line"/>
      <point x="-13" y="0" type="line"/>
      <point x="102" y="0" type="line"/>
      <point x="110" y="38" type="line"/>
      <point x="120" y="22"/>
      <point x="131" y="10"/>
      <point x="145" y="3" type="curve" smooth="yes"/>
      <point x="158" y="-4"/>
      <point x="174" y="-8"/>
    </contour>
    <contour>
      <point x="143" y="186" type="curve" smooth="yes"/>
      <point x="178" y="354" type="line" smooth="yes"/>
      <point x="184" y="385"/>
      <point x="193" y="407"/>
      <point x="205" y="421" type="curve" smooth="yes"/>
      <point x="216" y="435"/>
      <point x="231" y="442"/>
      <point x="248" y="442" type="curve" smooth="yes"/>
      <point x="265" y="442"/>
      <point x="276" y="435"/>
      <point x="283" y="421" type="curve" smooth="yes"/>
      <point x="288" y="407"/>
      <point x="287" y="385"/>
      <point x="281" y="354" type="curve" smooth="yes"/>
      <point x="246" y="186" type="line" smooth="yes"/>
      <point x="239" y="155"/>
      <point x="230" y="132"/>
      <point x="220" y="119" type="curve" smooth="yes"/>
      <point x="208" y="105"/>
      <point x="193" y="98"/>
      <point x="176" y="98" type="curve" smooth="yes"/>
      <point x="141" y="98"/>
      <point x="130" y="127"/>
    </contour>
  </outline>
</glyph>
<glyph name="c" format="2">
  <advance width="416"/>
  <unicode hex="0063"/>
  <outline>
    <contour>
      <point x="22.88684396162365" y="187" type="curve" smooth="yes"/>
      <point x="57.4001846373717" y="353" type="line" smooth="yes"/>
      <point x="71.7460913037971" y="422"/>
      <point x="97.14167584468507" y="472"/>
      <point x="132.5869382600356" y="503" type="curve" smooth="yes"/>
      <point x="168.03220067538615" y="534"/>
      <point x="214.15087603765252" y="549"/>
      <point x="270.15087603765255" y="549" type="curve" smooth="yes"/>
      <point x="324.15087603765255" y="549"/>
      <point x="362.03220067538615" y="534"/>
      <point x="385.0027616416711" y="505" type="curve" smooth="yes"/>
      <point x="407.9733226079561" y="476"/>
      <point x="412.8252082119747" y="432"/>
      <point x="400.5584184537269" y="373" type="curve" smooth="yes"/>
      <point x="396.19227294655394" y="352" type="line"/>
      <point x="281.19227294655394" y="352" type="line"/>
      <point x="285.14259507209135" y="371" type="line" smooth="yes"/>
      <point x="290.1324756517176" y="395"/>
      <point x="289.87488608643724" y="413"/>
      <point x="283.3698263762504" y="425" type="curve" smooth="yes"/>
      <point x="276.6568549752457" y="436"/>
      <point x="264.9043251201523" y="442"/>
      <point x="247.9043251201523" y="442" type="curve" smooth="yes"/>
      <point x="229.9043251201523" y="442"/>
      <point x="215.44894328442797" y="435"/>
      <point x="203.53817961297932" y="421" type="curve" smooth="yes"/>
      <point x="191.6274159415307" y="407"/>
      <point x="183.05335874354" y="385"/>
      <point x="176.60809632818945" y="354" type="curve" smooth="yes"/>
      <point x="141.6789322708059" y="186" type="line" smooth="yes"/>
      <point x="135.23366985545536" y="155"/>
      <point x="134.65961265746463" y="133"/>
      <point x="140.74884898601601" y="119" type="curve" smooth="yes"/>
      <point x="146.8380853145674" y="105"/>
      <point x="158.38270347884307" y="98"/>
      <point x="175.38270347884307" y="98" type="curve" smooth="yes"/>
      <point x="192.38270347884307" y="98"/>
      <point x="207.6301736237496" y="104"/>
      <point x="219.12511391356273" y="116" type="curve" smooth="yes"/>
      <point x="230.62005420337584" y="128"/>
      <point x="238.3624646380955" y="146"/>
      <point x="243.5602569085395" y="171" type="curve" smooth="yes"/>
      <point x="247.09475565244142" y="188" type="line"/>
      <point x="362.0947556524414" y="188" type="line"/>
      <point x="358.5602569085395" y="171" type="line" smooth="yes"/>
      <point x="346.08555545947394" y="111"/>
      <point x="322.7295293726748" y="66"/>
      <point x="287.70009033895974" y="37" type="curve" smooth="yes"/>
      <point x="252.46273961442697" y="7"/>
      <point x="208.3440642521606" y="-8"/>
      <point x="154.3440642521606" y="-8" type="curve" smooth="yes"/>
      <point x="98.34406425216058" y="-8"/>
      <point x="58.46273961442697" y="7"/>
      <point x="35.908002029777506" y="38" type="curve" smooth="yes"/>
      <point x="13.353264445128048" y="69"/>
      <point x="8.540937295198255" y="118"/>
    </contour>
  </outline>
</glyph>
<glyph name="e" format="2">
  <advance width="420"/>
  <unicode hex="0065"/>
  <outline>
    <contour>
      <point x="150.41122328515178" y="228" type="line"/>
      <point x="140.22355043508156" y="179" type="line" smooth="yes"/>
      <point x="128.7884074401048" y="124"/>
      <point x="140.96688009720754" y="96"/>
      <point x="175.96688009720754" y="96" type="curve" smooth="yes"/>
      <point x="210.96688009720754" y="96"/>
      <point x="232.74884898601601" y="119"/>
      <point x="242.31278676363294" y="165" type="curve" smooth="yes"/>
      <point x="243.35234521772173" y="170" type="line"/>
      <point x="358.35234521772173" y="170" type="line"/>
      <point x="357.10487507281516" y="164" type="line" smooth="yes"/>
      <point x="345.2539086962029" y="107"/>
      <point x="322.52161768185704" y="65"/>
      <point x="287.492178648142" y="36" type="curve" smooth="yes"/>
      <point x="252.46273961442697" y="7"/>
      <point x="208.3440642521606" y="-8"/>
      <point x="154.3440642521606" y="-8" type="curve" smooth="yes"/>
      <point x="99.34406425216058" y="-8"/>
      <point x="60.67065130524473" y="8"/>
      <point x="37.531737102230785" y="41" type="curve" smooth="yes"/>
      <point x="14.392822899216846" y="74"/>
      <point x="10.620054203375851" y="128"/>
      <point x="26.42134270552556" y="204" type="curve" smooth="yes"/>
      <point x="53.865685893469795" y="336" type="line" smooth="yes"/>
      <point x="69.25115101398399" y="410"/>
      <point x="94.47838231814299" y="464"/>
      <point x="130.5473798059468" y="498" type="curve" smooth="yes"/>
      <point x="165.61637729375062" y="532"/>
      <point x="211.15087603765252" y="549"/>
      <point x="267.15087603765255" y="549" type="curve" smooth="yes"/>
      <point x="322.15087603765255" y="549"/>
      <point x="361.61637729375065" y="532"/>
      <point x="385.339468115129" y="497" type="curve" smooth="yes"/>
      <point x="408.06255893650746" y="462"/>
      <point x="411.8353276323485" y="408"/>
      <point x="396.8656858934698" y="336" type="curve" smooth="yes"/>
      <point x="374.4112232851518" y="228" type="line"/>
    </contour>
    <contour>
      <point x="176.60809632818945" y="354" type="curve" smooth="yes"/>
      <point x="168.2916286954791" y="314" type="line"/>
      <point x="273.29162869547906" y="314" type="line"/>
      <point x="281.60809632818945" y="354" type="line" smooth="yes"/>
      <point x="288.05335874354" y="385"/>
      <point x="288.6274159415307" y="407"/>
      <point x="282.5381796129793" y="421" type="curve" smooth="yes"/>
      <point x="276.44894328442797" y="435"/>
      <point x="264.9043251201523" y="442"/>
      <point x="246.9043251201523" y="442" type="curve" smooth="yes"/>
      <point x="229.9043251201523" y="442"/>
      <point x="215.44894328442797" y="435"/>
      <point x="203.53817961297932" y="421" type="curve" smooth="yes"/>
      <point x="191.6274159415307" y="407"/>
      <point x="183.05335874354" y="385"/>
    </contour>
  </outline>
</glyph>
<glyph name="f" format="2">
  <advance width="293"/>
  <unicode hex="0066"/>
  <outline>
    <contour>
      <point x="262.06163970910114" y="563" type="curve" smooth="yes"/>
      <point x="257.4875825111105" y="541" type="line"/>
      <point x="329.4875825111105" y="541" type="line"/>
      <point x="312.23091217323645" y="458" type="line"/>
      <point x="240.23091217323645" y="458" type="line"/>
      <point x="145.00735777870267" y="0" type="line"/>
      <point x="27.007357778702655" y="0" type="line"/>
      <point x="122.23091217323643" y="458" type="line"/>
      <point x="68.23091217323643" y="458" type="line"/>
      <point x="85.48758251111046" y="541" type="line"/>
      <point x="139.48758251111047" y="541" type="line"/>
      <point x="145.72493323564325" y="571" type="line" smooth="yes"/>
      <point x="164.43698540924157" y="661"/>
      <point x="219.79301149604075" y="706"/>
      <point x="313.00092318685853" y="707" type="curve" smooth="yes"/>
      <point x="364.00092318685853" y="707" type="line"/>
      <point x="346.5363411581667" y="623" type="line"/>
      <point x="331.5363411581667" y="623" type="line" smooth="yes"/>
      <point x="310.5363411581667" y="623"/>
      <point x="294.7046943948957" y="619"/>
      <point x="284.83348917753585" y="610" type="curve" smooth="yes"/>
      <point x="273.962283960176" y="601"/>
      <point x="266.63569690709187" y="585"/>
    </contour>
  </outline>
</glyph>
<glyph name="g" format="2">
  <advance width="419"/>
  <unicode hex="0067"/>
  <outline>
    <contour>
      <point x="-10.735052656017011" y="-18" type="curve"/>
      <point x="100.26494734398298" y="-18" type="line"/>
      <point x="96.73044860008108" y="-35"/>
      <point x="98.23550831026796" y="-47"/>
      <point x="105.36430309290813" y="-56" type="curve" smooth="yes"/>
      <point x="112.4930978755483" y="-65"/>
      <point x="124.4535394214595" y="-70"/>
      <point x="141.45353942145948" y="-70" type="curve" smooth="yes"/>
      <point x="158.45353942145948" y="-70"/>
      <point x="173.70100956636605" y="-64"/>
      <point x="184.9880381653614" y="-53" type="curve" smooth="yes"/>
      <point x="196.27506676435675" y="-42"/>
      <point x="203.6016538174409" y="-26"/>
      <point x="207.96779932461385" y="-5" type="curve" smooth="yes"/>
      <point x="227.30358657066546" y="88" type="line"/>
      <point x="194.85832415531493" y="57"/>
      <point x="160.73964879304856" y="42"/>
      <point x="124.73964879304854" y="42" type="curve" smooth="yes"/>
      <point x="85.73964879304854" y="42"/>
      <point x="56.65041246449718" y="56"/>
      <point x="38.47193980739444" y="84" type="curve" smooth="yes"/>
      <point x="19.2934671502917" y="112"/>
      <point x="16.44158154627311" y="156"/>
      <point x="29.12419468615643" y="217" type="curve" smooth="yes"/>
      <point x="61.766330144544646" y="374" type="line" smooth="yes"/>
      <point x="74.44894328442797" y="435"/>
      <point x="95.59705768040938" y="479"/>
      <point x="125.41858502330663" y="507" type="curve" smooth="yes"/>
      <point x="154.2401123662039" y="535"/>
      <point x="189.15087603765252" y="549"/>
      <point x="228.15087603765252" y="549" type="curve" smooth="yes"/>
      <point x="248.15087603765252" y="549"/>
      <point x="265.3192292743815" y="545"/>
      <point x="279.44802405702166" y="536" type="curve" smooth="yes"/>
      <point x="292.5768188396618" y="527"/>
      <point x="302.87396685903093" y="514"/>
      <point x="308.5473798059468" y="498" type="curve"/>
      <point x="317.4875825111105" y="541" type="line"/>
      <point x="435.4875825111105" y="541" type="line"/>
      <point x="324.25482792360924" y="6" type="line" smooth="yes"/>
      <point x="312.81968492863246" y="-49"/>
      <point x="288.8794822234688" y="-92"/>
      <point x="253.2263081173005" y="-124" type="curve" smooth="yes"/>
      <point x="216.5731340111322" y="-156"/>
      <point x="172.24654695804804" y="-172"/>
      <point x="119.24654695804804" y="-172" type="curve" smooth="yes"/>
      <point x="69.24654695804804" y="-172"/>
      <point x="32.949398938678925" y="-159"/>
      <point x="10.355102899940661" y="-133" type="curve" smooth="yes"/>
      <point x="-13.239193138797589" y="-107"/>
      <point x="-20.338548887722737" y="-69"/>
    </contour>
    <contour>
      <point x="256.2824285025116" y="237" type="curve" smooth="yes"/>
      <point x="280.60809632818945" y="354" type="line" smooth="yes"/>
      <point x="287.05335874354" y="385"/>
      <point x="287.6274159415307" y="407"/>
      <point x="281.5381796129793" y="421" type="curve" smooth="yes"/>
      <point x="275.44894328442797" y="435"/>
      <point x="263.9043251201523" y="442"/>
      <point x="245.9043251201523" y="442" type="curve" smooth="yes"/>
      <point x="228.9043251201523" y="442"/>
      <point x="214.44894328442797" y="435"/>
      <point x="203.53817961297932" y="421" type="curve" smooth="yes"/>
      <point x="191.6274159415307" y="407"/>
      <point x="183.05335874354" y="385"/>
      <point x="176.60809632818945" y="354" type="curve" smooth="yes"/>
      <point x="152.2824285025116" y="237" type="line" smooth="yes"/>
      <point x="145.83716608716108" y="206"/>
      <point x="145.0551971983526" y="183"/>
      <point x="151.14443352690398" y="169" type="curve" smooth="yes"/>
      <point x="156.23366985545536" y="155"/>
      <point x="167.77828801973104" y="148"/>
      <point x="185.77828801973104" y="148" type="curve" smooth="yes"/>
      <point x="220.9861997105488" y="149"/>
      <point x="244.0156387442638" y="178"/>
    </contour>
  </outline>
</glyph>
<glyph name="h" format="2">
  <advance width="419"/>
  <unicode hex="0068"/>
  <outline>
    <contour>
      <point x="134.00092318685853" y="707" type="line"/>
      <point x="253.00092318685853" y="707" type="line"/>
      <point x="211.21067333248888" y="506" type="line"/>
      <point x="242.2401123662039" y="535"/>
      <point x="274.15087603765255" y="549"/>
      <point x="305.15087603765255" y="549" type="curve" smooth="yes"/>
      <point x="351.15087603765255" y="549"/>
      <point x="382.2401123662039" y="535"/>
      <point x="397.41858502330666" y="507" type="curve" smooth="yes"/>
      <point x="412.59705768040936" y="479"/>
      <point x="414.280590047699" y="439"/>
      <point x="403.26127043435775" y="386" type="curve" smooth="yes"/>
      <point x="323.00735777870267" y="0" type="line"/>
      <point x="204.00735777870267" y="0" type="line"/>
      <point x="284.05335874354" y="385" type="line" smooth="yes"/>
      <point x="288.0036808690774" y="404"/>
      <point x="285.91444454052606" y="418"/>
      <point x="278.99356144870364" y="428" type="curve" smooth="yes"/>
      <point x="271.8647666660635" y="437"/>
      <point x="260.9043251201523" y="442"/>
      <point x="246.9043251201523" y="442" type="curve" smooth="yes"/>
      <point x="231.9043251201523" y="442"/>
      <point x="218.86476666606347" y="437"/>
      <point x="207.99356144870364" y="428" type="curve" smooth="yes"/>
      <point x="196.91444454052606" y="418"/>
      <point x="190.0036808690774" y="404"/>
      <point x="186.05335874354" y="385" type="curve" smooth="yes"/>
      <point x="106.00735777870266" y="0" type="line"/>
      <point x="-12.992642221297345" y="0" type="line"/>
    </contour>
  </outline>
</glyph>
<glyph name="i" format="2">
  <advance width="210"/>
  <unicode hex="0069"/>
  <outline>
    <contour>
      <point x="103.48758251111046" y="541" type="line"/>
      <point x="222.48758251111047" y="541" type="line"/>
      <point x="110.00735777870266" y="0" type="line"/>
      <point x="-8.992642221297345" y="0" type="line"/>
    </contour>
    <contour>
      <point x="138.00092318685853" y="707" type="line"/>
      <point x="257.00092318685853" y="707" type="line"/>
      <point x="236.2097541050826" y="607" type="line"/>
      <point x="117.20975410508258" y="607" type="line"/>
    </contour>
  </outline>
</glyph>
<glyph name="j" format="2">
  <advance width="210"/>
  <unicode hex="006A"/>
  <outline>
    <contour>
      <point x="-114" y="-162" type="line"/>
      <point x="-107" y="-162" type="line" smooth="yes"/>
      <point x="15" y="-162"/>
      <point x="88" y="-106"/>
      <point x="111" y="6" type="curve" smooth="yes"/>
      <point x="222" y="541" type="line"/>
      <point x="103" y="541" type="line"/>
      <point x="-6" y="13" type="line" smooth="yes"/>
      <point x="-11" y="-10"/>
      <point x="-20" y="-28"/>
      <point x="-34" y="-39" type="curve" smooth="yes"/>
      <point x="-47" y="-50"/>
      <point x="-64" y="-55"/>
      <point x="-85" y="-55" type="curve" smooth="yes"/>
      <point x="-91" y="-55" type="line"/>
    </contour>
    <contour>
      <point x="117" y="607" type="line"/>
      <point x="236" y="607" type="line"/>
      <point x="257" y="707" type="line"/>
      <point x="138" y="707" type="line"/>
    </contour>
  </outline>
</glyph>
<glyph name="k" format="2">
  <advance width="429"/>
  <unicode hex="006B"/>
  <outline>
    <contour>
      <point x="191.7083713045209" y="215" type="line"/>
      <point x="137.81784647381983" y="153" type="line"/>
      <point x="106.00735777870266" y="0" type="line"/>
      <point x="-12.992642221297345" y="0" type="line"/>
      <point x="134.00092318685853" y="707" type="line"/>
      <point x="253.00092318685853" y="707" type="line"/>
      <point x="172.74701053120341" y="321" type="line"/>
      <point x="347.4875825111105" y="541" type="line"/>
      <point x="471.4875825111105" y="541" type="line"/>
      <point x="288.41030405774546" y="329" type="line"/>
      <point x="364.00735777870267" y="0" type="line"/>
      <point x="233.00735777870267" y="0" type="line"/>
    </contour>
  </outline>
</glyph>
<glyph name="l" format="2">
  <advance width="245"/>
  <unicode hex="006C"/>
  <outline>
    <contour>
      <point x="22" y="168" type="curve" smooth="yes"/>
      <point x="134" y="707" type="line"/>
      <point x="253" y="707" type="line"/>
      <point x="142" y="175" type="line" smooth="yes"/>
      <point x="133" y="129"/>
      <point x="150" y="106"/>
      <point x="193" y="106" type="curve" smooth="yes"/>
      <point x="198" y="106" type="line"/>
      <point x="176" y="0" type="line"/>
      <point x="170" y="0" type="line" smooth="yes"/>
      <point x="48" y="0"/>
      <point x="-1" y="56"/>
    </contour>
  </outline>
</glyph>
<glyph name="m" format="2">
  <advance width="636"/>
  <unicode hex="006D"/>
  <outline>
    <contour>
      <point x="-13" y="0" type="line"/>
      <point x="106" y="0" type="line"/>
      <point x="186" y="385" type="line" smooth="yes"/>
      <point x="190" y="404"/>
      <point x="197" y="418"/>
      <point x="208" y="428" type="curve" smooth="yes"/>
      <point x="219" y="437"/>
      <point x="232" y="442"/>
      <point x="247" y="442" type="curve" smooth="yes"/>
      <point x="261" y="442"/>
      <point x="272" y="437"/>
      <point x="279" y="428" type="curve" smooth="yes"/>
      <point x="286" y="418"/>
      <point x="288" y="404"/>
      <point x="284" y="385" type="curve" smooth="yes"/>
      <point x="204" y="0" type="line"/>
      <point x="323" y="0" type="line"/>
      <point x="403" y="385" type="line" smooth="yes"/>
      <point x="407" y="404"/>
      <point x="415" y="418"/>
      <point x="426" y="428" type="curve" smooth="yes"/>
      <point x="437" y="437"/>
      <point x="449" y="442"/>
      <point x="464" y="442" type="curve" smooth="yes"/>
      <point x="479" y="442"/>
      <point x="490" y="437"/>
      <point x="497" y="428" type="curve" smooth="yes"/>
      <point x="504" y="418"/>
      <point x="505" y="404"/>
      <point x="501" y="385" type="curve" smooth="yes"/>
      <point x="421" y="0" type="line"/>
      <point x="540" y="0" type="line"/>
      <point x="620" y="386" type="line" smooth="yes"/>
      <point x="631" y="440"/>
      <point x="630" y="481"/>
      <point x="615" y="508" type="curve" smooth="yes"/>
      <point x="599" y="535"/>
      <point x="567" y="549"/>
      <point x="518" y="549" type="curve" smooth="yes"/>
      <point x="498" y="549"/>
      <point x="478" y="544"/>
      <point x="457" y="534" type="curve" smooth="yes"/>
      <point x="436" y="523"/>
      <point x="416" y="510"/>
      <point x="400" y="493" type="curve"/>
      <point x="392" y="510"/>
      <point x="380" y="524"/>
      <point x="364" y="534" type="curve" smooth="yes"/>
      <point x="347" y="544"/>
      <point x="328" y="549"/>
      <point x="306" y="549" type="curve" smooth="yes"/>
      <point x="270" y="549"/>
      <point x="237" y="533"/>
      <point x="205" y="501" type="curve"/>
      <point x="213" y="541" type="line"/>
      <point x="99" y="541" type="line"/>
    </contour>
  </outline>
</glyph>
<glyph name="n" format="2">
  <advance width="419"/>
  <unicode hex="006E"/>
  <outline>
    <contour>
      <point x="99.48758251111046" y="541" type="line"/>
      <point x="213.48758251111047" y="541" type="line"/>
      <point x="205.1711148784001" y="501" type="line"/>
      <point x="236.8242889845684" y="533"/>
      <point x="270.15087603765255" y="549"/>
      <point x="305.15087603765255" y="549" type="curve" smooth="yes"/>
      <point x="393.15087603765255" y="549"/>
      <point x="425.9236447334935" y="495"/>
      <point x="403.26127043435775" y="386" type="curve" smooth="yes"/>
      <point x="323.00735777870267" y="0" type="line"/>
      <point x="204.00735777870267" y="0" type="line"/>
      <point x="284.05335874354" y="385" type="line" smooth="yes"/>
      <point x="288.0036808690774" y="404"/>
      <point x="285.91444454052606" y="418"/>
      <point x="278.99356144870364" y="428" type="curve" smooth="yes"/>
      <point x="271.8647666660635" y="437"/>
      <point x="260.9043251201523" y="442"/>
      <point x="246.9043251201523" y="442" type="curve" smooth="yes"/>
      <point x="231.9043251201523" y="442"/>
      <point x="218.86476666606347" y="437"/>
      <point x="207.99356144870364" y="428" type="curve" smooth="yes"/>
      <point x="196.91444454052606" y="418"/>
      <point x="190.0036808690774" y="404"/>
      <point x="186.05335874354" y="385" type="curve" smooth="yes"/>
      <point x="106.00735777870266" y="0" type="line"/>
      <point x="-12.992642221297345" y="0" type="line"/>
    </contour>
  </outline>
</glyph>
<glyph name="o" format="2">
  <advance width="420"/>
  <unicode hex="006F"/>
  <outline>
    <contour>
      <point x="154" y="-8" type="curve" smooth="yes"/>
      <point x="210" y="-8"/>
      <point x="256" y="7"/>
      <point x="292" y="38" type="curve" smooth="yes"/>
      <point x="327" y="69"/>
      <point x="352" y="118"/>
      <point x="366" y="187" type="curve" smooth="yes"/>
      <point x="400" y="353" type="line" smooth="yes"/>
      <point x="415" y="422"/>
      <point x="411" y="472"/>
      <point x="389" y="503" type="curve" smooth="yes"/>
      <point x="366" y="534"/>
      <point x="326" y="549"/>
      <point x="270" y="549" type="curve" smooth="yes"/>
      <point x="214" y="549"/>
      <point x="168" y="534"/>
      <point x="133" y="503" type="curve" smooth="yes"/>
      <point x="97" y="472"/>
      <point x="72" y="422"/>
      <point x="57" y="353" type="curve" smooth="yes"/>
      <point x="23" y="187" type="line" smooth="yes"/>
      <point x="9" y="118"/>
      <point x="13" y="69"/>
      <point x="36" y="38" type="curve" smooth="yes"/>
      <point x="58" y="7"/>
      <point x="98" y="-8"/>
    </contour>
    <contour>
      <point x="141" y="119" type="curve" smooth="yes"/>
      <point x="135" y="133"/>
      <point x="135" y="155"/>
      <point x="142" y="186" type="curve" smooth="yes"/>
      <point x="177" y="354" type="line" smooth="yes"/>
      <point x="183" y="385"/>
      <point x="192" y="407"/>
      <point x="204" y="421" type="curve" smooth="yes"/>
      <point x="215" y="435"/>
      <point x="230" y="442"/>
      <point x="247" y="442" type="curve" smooth="yes"/>
      <point x="265" y="442"/>
      <point x="276" y="435"/>
      <point x="283" y="421" type="curve" smooth="yes"/>
      <point x="289" y="407"/>
      <point x="288" y="385"/>
      <point x="282" y="354" type="curve" smooth="yes"/>
      <point x="247" y="186" type="line" smooth="yes"/>
      <point x="240" y="155"/>
      <point x="232" y="133"/>
      <point x="220" y="119" type="curve" smooth="yes"/>
      <point x="208" y="105"/>
      <point x="193" y="98"/>
      <point x="175" y="98" type="curve" smooth="yes"/>
      <point x="158" y="98"/>
      <point x="147" y="105"/>
    </contour>
  </outline>
</glyph>
<glyph name="p" format="2">
  <advance width="419"/>
  <unicode hex="0070"/>
  <outline>
    <contour>
      <point x="-47" y="-162" type="line"/>
      <point x="72" y="-162" type="line"/>
      <point x="113" y="33" type="line"/>
      <point x="130" y="6"/>
      <point x="157" y="-8"/>
      <point x="193" y="-8" type="curve" smooth="yes"/>
      <point x="232" y="-8"/>
      <point x="266" y="6"/>
      <point x="297" y="34" type="curve" smooth="yes"/>
      <point x="327" y="62"/>
      <point x="348" y="106"/>
      <point x="361" y="167" type="curve" smooth="yes"/>
      <point x="404" y="374" type="line" smooth="yes"/>
      <point x="416" y="435"/>
      <point x="414" y="479"/>
      <point x="396" y="507" type="curve" smooth="yes"/>
      <point x="379" y="535"/>
      <point x="350" y="549"/>
      <point x="311" y="549" type="curve" smooth="yes"/>
      <point x="271" y="549"/>
      <point x="236" y="532"/>
      <point x="206" y="498" type="curve"/>
      <point x="214" y="541" type="line"/>
      <point x="99" y="541" type="line"/>
    </contour>
    <contour>
      <point x="143" y="186" type="curve" smooth="yes"/>
      <point x="178" y="354" type="line" smooth="yes"/>
      <point x="184" y="385"/>
      <point x="193" y="407"/>
      <point x="205" y="421" type="curve" smooth="yes"/>
      <point x="216" y="435"/>
      <point x="231" y="442"/>
      <point x="248" y="442" type="curve" smooth="yes"/>
      <point x="265" y="442"/>
      <point x="276" y="435"/>
      <point x="283" y="421" type="curve" smooth="yes"/>
      <point x="288" y="407"/>
      <point x="287" y="385"/>
      <point x="281" y="354" type="curve" smooth="yes"/>
      <point x="246" y="186" type="line" smooth="yes"/>
      <point x="239" y="155"/>
      <point x="230" y="132"/>
      <point x="220" y="119" type="curve" smooth="yes"/>
      <point x="208" y="105"/>
      <point x="193" y="98"/>
      <point x="176" y="98" type="curve" smooth="yes"/>
      <point x="141" y="98"/>
      <point x="130" y="127"/>
    </contour>
  </outline>
</glyph>
<glyph name="q" format="2">
  <advance width="419"/>
  <unicode hex="0071"/>
  <outline>
    <contour>
      <point x="212" y="33" type="line"/>
      <point x="183" y="6"/>
      <point x="150" y="-8"/>
      <point x="114" y="-8" type="curve" smooth="yes"/>
      <point x="75" y="-8"/>
      <point x="46" y="6"/>
      <point x="28" y="34" type="curve" smooth="yes"/>
      <point x="9" y="62"/>
      <point x="6" y="106"/>
      <point x="19" y="167" type="curve" smooth="yes"/>
      <point x="62" y="374" type="line" smooth="yes"/>
      <point x="74" y="435"/>
      <point x="96" y="479"/>
      <point x="125" y="507" type="curve" smooth="yes"/>
      <point x="154" y="535"/>
      <point x="189" y="549"/>
      <point x="228" y="549" type="curve" smooth="yes"/>
      <point x="267" y="549"/>
      <point x="295" y="532"/>
      <point x="313" y="498" type="curve"/>
      <point x="321" y="541" type="line"/>
      <point x="435" y="541" type="line"/>
      <point x="289" y="-162" type="line"/>
      <point x="171" y="-162" type="line"/>
    </contour>
    <contour>
      <point x="246" y="186" type="curve" smooth="yes"/>
      <point x="281" y="354" type="line" smooth="yes"/>
      <point x="287" y="385"/>
      <point x="288" y="407"/>
      <point x="282" y="421" type="curve" smooth="yes"/>
      <point x="275" y="435"/>
      <point x="264" y="442"/>
      <point x="246" y="442" type="curve" smooth="yes"/>
      <point x="229" y="442"/>
      <point x="214" y="435"/>
      <point x="204" y="421" type="curve" smooth="yes"/>
      <point x="192" y="407"/>
      <point x="183" y="385"/>
      <point x="177" y="354" type="curve" smooth="yes"/>
      <point x="142" y="186" type="line" smooth="yes"/>
      <point x="135" y="155"/>
      <point x="134" y="132"/>
      <point x="141" y="119" type="curve" smooth="yes"/>
      <point x="146" y="105"/>
      <point x="157" y="98"/>
      <point x="175" y="98" type="curve" smooth="yes"/>
      <point x="210" y="98"/>
      <point x="233" y="127"/>
    </contour>
  </outline>
</glyph>
<glyph name="r" format="2">
  <advance width="313"/>
  <unicode hex="0072"/>
  <outline>
    <contour>
      <point x="99.48758251111046" y="541" type="line"/>
      <point x="213.48758251111047" y="541" type="line"/>
      <point x="202.88408627940473" y="490" type="line"/>
      <point x="220.45814347739542" y="512"/>
      <point x="239.78473053047958" y="528"/>
      <point x="258.6559357478394" y="537" type="curve" smooth="yes"/>
      <point x="277.52714096519924" y="546"/>
      <point x="298.56669941928806" y="551"/>
      <point x="321.56669941928806" y="551" type="curve" smooth="yes"/>
      <point x="334.56669941928806" y="551"/>
      <point x="347.3587877284703" y="550"/>
      <point x="357.735052656017" y="547" type="curve"/>
      <point x="331.7460913037971" y="422" type="line"/>
      <point x="314.2014731395214" y="429"/>
      <point x="296.8252082119747" y="432"/>
      <point x="279.8252082119747" y="432" type="curve" smooth="yes"/>
      <point x="254.82520821197468" y="432"/>
      <point x="232.1619146854326" y="424"/>
      <point x="213.83532763234848" y="408" type="curve" smooth="yes"/>
      <point x="195.50874057926433" y="392"/>
      <point x="182.72677169045585" y="369"/>
      <point x="176.69733265674083" y="340" type="curve" smooth="yes"/>
      <point x="106.00735777870266" y="0" type="line"/>
      <point x="-12.992642221297345" y="0" type="line"/>
    </contour>
  </outline>
</glyph>
<glyph name="s" format="2">
  <advance width="401"/>
  <unicode hex="0073"/>
  <outline>
    <contour>
      <point x="8.44158154627311" y="156" type="curve" smooth="yes"/>
      <point x="9.689051691179667" y="162" type="line"/>
      <point x="123.68905169117967" y="162" type="line"/>
      <point x="122.44158154627311" y="156" type="line" smooth="yes"/>
      <point x="118.07543603910017" y="135"/>
      <point x="119.74884898601601" y="119"/>
      <point x="128.46182038702068" y="108" type="curve" smooth="yes"/>
      <point x="136.17479178802532" y="97"/>
      <point x="148.92732164311874" y="91"/>
      <point x="167.92732164311874" y="91" type="curve" smooth="yes"/>
      <point x="185.92732164311874" y="91"/>
      <point x="200.96688009720754" y="96"/>
      <point x="212.04599700538515" y="106" type="curve" smooth="yes"/>
      <point x="223.12511391356273" y="116"/>
      <point x="230.24378927582913" y="131"/>
      <point x="234.19411140136657" y="150" type="curve" smooth="yes"/>
      <point x="237.31278676363294" y="165"/>
      <point x="235.80772705344606" y="177"/>
      <point x="229.09475565244142" y="188" type="curve" smooth="yes"/>
      <point x="222.173872560619" y="198"/>
      <point x="211.04507777797883" y="207"/>
      <point x="194.7083713045209" y="215" type="curve" smooth="yes"/>
      <point x="138.32198695660043" y="242" type="line" smooth="yes"/>
      <point x="101.06439739132009" y="260"/>
      <point x="76.43054289849303" y="281"/>
      <point x="66.42042347811926" y="305" type="curve" smooth="yes"/>
      <point x="55.20239236692772" y="328"/>
      <point x="53.4397430914605" y="358"/>
      <point x="60.92456396089983" y="394" type="curve" smooth="yes"/>
      <point x="70.28059004769901" y="439"/>
      <point x="92.9733226079561" y="476"/>
      <point x="130.00276164167113" y="505" type="curve" smooth="yes"/>
      <point x="167.03220067538615" y="534"/>
      <point x="210.15087603765252" y="549"/>
      <point x="260.15087603765255" y="549" type="curve" smooth="yes"/>
      <point x="310.15087603765255" y="549"/>
      <point x="347.03220067538615" y="534"/>
      <point x="372.0027616416711" y="505" type="curve" smooth="yes"/>
      <point x="396.9733226079561" y="476"/>
      <point x="403.8647666660635" y="437"/>
      <point x="394.0929171976288" y="390" type="curve" smooth="yes"/>
      <point x="392.0138002894512" y="380" type="line"/>
      <point x="277.0138002894512" y="380" type="line"/>
      <point x="278.26127043435775" y="386" type="line" smooth="yes"/>
      <point x="282.6274159415307" y="407"/>
      <point x="281.16191468543263" y="424"/>
      <point x="274.44894328442797" y="435" type="curve" smooth="yes"/>
      <point x="266.7359718834233" y="446"/>
      <point x="254.77553033751212" y="451"/>
      <point x="238.77553033751212" y="451" type="curve" smooth="yes"/>
      <point x="222.77553033751212" y="451"/>
      <point x="208.94388357424108" y="447"/>
      <point x="198.07267835688126" y="438" type="curve" smooth="yes"/>
      <point x="187.2014731395214" y="429"/>
      <point x="179.49862115889053" y="416"/>
      <point x="175.96412241498862" y="399" type="curve" smooth="yes"/>
      <point x="172.84544705272225" y="384"/>
      <point x="174.35050676290913" y="372"/>
      <point x="179.4793015455493" y="363" type="curve" smooth="yes"/>
      <point x="184.60809632818945" y="354"/>
      <point x="195.73689111082962" y="345"/>
      <point x="213.07359758428754" y="337" type="curve" smooth="yes"/>
      <point x="273.04415855057255" y="308" type="line" smooth="yes"/>
      <point x="308.50965980667064" y="291"/>
      <point x="332.14351429949767" y="270"/>
      <point x="344.15363371987144" y="246" type="curve" smooth="yes"/>
      <point x="356.1637531402452" y="222"/>
      <point x="358.7184907248947" y="191"/>
      <point x="350.6099347830021" y="152" type="curve" smooth="yes"/>
      <point x="340.83808531456737" y="105"/>
      <point x="317.7295293726748" y="66"/>
      <point x="280.70009033895974" y="37" type="curve" smooth="yes"/>
      <point x="243.46273961442697" y="7"/>
      <point x="198.3440642521606" y="-8"/>
      <point x="145.3440642521606" y="-8" type="curve" smooth="yes"/>
      <point x="92.34406425216058" y="-8"/>
      <point x="54.46273961442697" y="7"/>
      <point x="29.492178648141987" y="36" type="curve" smooth="yes"/>
      <point x="4.521617681857009" y="65"/>
      <point x="-2.1619146854326132" y="105"/>
    </contour>
  </outline>
</glyph>
<glyph name="t" format="2">
  <advance width="309"/>
  <unicode hex="0074"/>
  <outline>
    <contour>
      <point x="239" y="458" type="line"/>
      <point x="180" y="175" type="line" smooth="yes"/>
      <point x="171" y="129"/>
      <point x="189" y="106"/>
      <point x="234" y="106" type="curve" smooth="yes"/>
      <point x="238" y="106" type="line"/>
      <point x="216" y="0" type="line"/>
      <point x="212" y="0" type="line" smooth="yes"/>
      <point x="151" y="0"/>
      <point x="107" y="14"/>
      <point x="82" y="41" type="curve" smooth="yes"/>
      <point x="55" y="68"/>
      <point x="48" y="110"/>
      <point x="60" y="168" type="curve" smooth="yes"/>
      <point x="120" y="458" type="line"/>
      <point x="59" y="458" type="line"/>
      <point x="76" y="541" type="line"/>
      <point x="137" y="541" type="line"/>
      <point x="157" y="636" type="line"/>
      <point x="286" y="684" type="line"/>
      <point x="256" y="541" type="line"/>
      <point x="342" y="541" type="line"/>
      <point x="325" y="458" type="line"/>
    </contour>
  </outline>
</glyph>
<glyph name="u" format="2">
  <advance width="419"/>
  <unicode hex="0075"/>
  <outline>
    <contour>
      <point x="24.639373816717097" y="181" type="curve" smooth="yes"/>
      <point x="99.48758251111046" y="541" type="line"/>
      <point x="218.48758251111047" y="541" type="line"/>
      <point x="148.83716608716108" y="206" type="line" smooth="yes"/>
      <point x="143.0156387442638" y="178"/>
      <point x="139.64949323709087" y="157"/>
      <point x="138.94664125646" y="144" type="curve" smooth="yes"/>
      <point x="137.03587758501138" y="130"/>
      <point x="138.74884898601601" y="119"/>
      <point x="144.08555545947394" y="111" type="curve" smooth="yes"/>
      <point x="149.2143502421141" y="102"/>
      <point x="159.38270347884307" y="98"/>
      <point x="175.38270347884307" y="98" type="curve" smooth="yes"/>
      <point x="191.38270347884307" y="98"/>
      <point x="203.2143502421141" y="102"/>
      <point x="211.66973207783843" y="109" type="curve" smooth="yes"/>
      <point x="220.12511391356273" y="116"/>
      <point x="226.4121425125581" y="127"/>
      <point x="231.3229061840067" y="141" type="curve" smooth="yes"/>
      <point x="235.02575816463758" y="154"/>
      <point x="240.5998153626283" y="176"/>
      <point x="246.83716608716108" y="206" type="curve" smooth="yes"/>
      <point x="316.4875825111105" y="541" type="line"/>
      <point x="435.4875825111105" y="541" type="line"/>
      <point x="360.6393738167171" y="181" type="line" smooth="yes"/>
      <point x="351.6991711115534" y="138"/>
      <point x="339.42226193293186" y="103"/>
      <point x="324.8086462808524" y="76" type="curve" smooth="yes"/>
      <point x="309.1950306287729" y="49"/>
      <point x="288.03679681241766" y="29"/>
      <point x="260.91812145015126" y="14" type="curve" smooth="yes"/>
      <point x="232.7994460878849" y="-1"/>
      <point x="197.3440642521606" y="-8"/>
      <point x="153.3440642521606" y="-8" type="curve" smooth="yes"/>
      <point x="88.34406425216058" y="-8"/>
      <point x="47.67065130524473" y="8"/>
      <point x="31.323825411413026" y="40" type="curve" smooth="yes"/>
      <point x="13.769087826763567" y="71"/>
      <point x="11.540937295198255" y="118"/>
    </contour>
  </outline>
</glyph>
<glyph name="v" format="2">
  <advance width="418"/>
  <unicode hex="0076"/>
  <outline>
    <contour>
      <point x="68.48758251111046" y="541" type="line"/>
      <point x="199.48758251111047" y="541" type="line"/>
      <point x="194.30266734325917" y="189" type="line"/>
      <point x="333.4875825111105" y="541" type="line"/>
      <point x="465.4875825111105" y="541" type="line"/>
      <point x="217.00735777870267" y="0" type="line"/>
      <point x="91.00735777870266" y="0" type="line"/>
    </contour>
  </outline>
</glyph>
<glyph name="w" format="2">
  <advance width="623"/>
  <unicode hex="0077"/>
  <outline>
    <contour>
      <point x="79" y="0" type="line"/>
      <point x="194" y="0" type="line"/>
      <point x="325" y="331" type="line"/>
      <point x="318" y="0" type="line"/>
      <point x="433" y="0" type="line"/>
      <point x="669" y="541" type="line"/>
      <point x="537" y="541" type="line"/>
      <point x="410" y="189" type="line"/>
      <point x="417" y="541" type="line"/>
      <point x="319" y="541" type="line"/>
      <point x="181" y="189" type="line"/>
      <point x="199" y="541" type="line"/>
      <point x="68" y="541" type="line"/>
    </contour>
  </outline>
</glyph>
<glyph name="x" format="2">
  <advance width="389"/>
  <unicode hex="0078"/>
  <outline>
    <contour>
      <point x="202" y="0" type="line"/>
      <point x="167" y="152" type="line"/>
      <point x="78" y="0" type="line"/>
      <point x="-44" y="0" type="line"/>
      <point x="136" y="281" type="line"/>
      <point x="75" y="541" type="line"/>
      <point x="196" y="541" type="line"/>
      <point x="229" y="404" type="line"/>
      <point x="307" y="541" type="line"/>
      <point x="429" y="541" type="line"/>
      <point x="257" y="283" type="line"/>
      <point x="323" y="0" type="line"/>
    </contour>
  </outline>
</glyph>
<glyph name="y" format="2">
  <advance width="418"/>
  <unicode hex="0079"/>
  <outline>
    <contour>
      <point x="-39" y="-162" type="line"/>
      <point x="-35" y="-162" type="line" smooth="yes"/>
      <point x="7" y="-162"/>
      <point x="42" y="-159"/>
      <point x="70" y="-152" type="curve" smooth="yes"/>
      <point x="99" y="-145"/>
      <point x="123" y="-133"/>
      <point x="144" y="-115" type="curve" smooth="yes"/>
      <point x="165" y="-98"/>
      <point x="183" y="-72"/>
      <point x="198" y="-39" type="curve" smooth="yes"/>
      <point x="465" y="541" type="line"/>
      <point x="340" y="541" type="line"/>
      <point x="204" y="212" type="line"/>
      <point x="199" y="541" type="line"/>
      <point x="68" y="541" type="line"/>
      <point x="101" y="-30" type="line"/>
      <point x="86" y="-48"/>
      <point x="61" y="-57"/>
      <point x="26" y="-57" type="curve" smooth="yes"/>
      <point x="-17" y="-57" type="line"/>
    </contour>
  </outline>
</glyph>
<glyph name="z" format="2">
  <advance width="393"/>
  <unicode hex="007A"/>
  <outline>
    <contour>
      <point x="390.4885017385168" y="440" type="line"/>
      <point x="126.79852686047859" y="100" type="line"/>
      <point x="319.7985268604786" y="100" type="line"/>
      <point x="299.00735777870267" y="0" type="line"/>
      <point x="-15.992642221297345" y="0" type="line"/>
      <point x="4.798526860478589" y="100" type="line"/>
      <point x="272.4885017385168" y="440" type="line"/>
      <point x="75.48850173851676" y="440" type="line"/>
      <point x="96.48758251111046" y="541" type="line"/>
      <point x="411.4875825111105" y="541" type="line"/>
    </contour>
  </outline>
</glyph>
<glyph name="braceleft" format="2">
  <advance width="326"/>
  <unicode hex="007B"/>
  <outline>
    <contour>
      <point x="157" y="-86" type="curve" smooth="yes"/>
      <point x="215" y="-86" type="line"/>
      <point x="237" y="19" type="line"/>
      <point x="216" y="19" type="line" smooth="yes"/>
      <point x="202" y="19"/>
      <point x="192" y="23"/>
      <point x="187" y="32" type="curve" smooth="yes"/>
      <point x="181" y="40"/>
      <point x="180" y="52"/>
      <point x="183" y="67" type="curve" smooth="yes"/>
      <point x="211" y="202" type="line" smooth="yes"/>
      <point x="220" y="245"/>
      <point x="222" y="276"/>
      <point x="219" y="295" type="curve" smooth="yes"/>
      <point x="215" y="314"/>
      <point x="201" y="329"/>
      <point x="177" y="339" type="curve"/>
      <point x="205" y="348"/>
      <point x="225" y="362"/>
      <point x="237" y="381" type="curve" smooth="yes"/>
      <point x="248" y="400"/>
      <point x="259" y="431"/>
      <point x="268" y="475" type="curve" smooth="yes"/>
      <point x="295" y="605" type="line" smooth="yes"/>
      <point x="298" y="620"/>
      <point x="304" y="632"/>
      <point x="313" y="640" type="curve" smooth="yes"/>
      <point x="322" y="648"/>
      <point x="333" y="652"/>
      <point x="348" y="652" type="curve" smooth="yes"/>
      <point x="369" y="652" type="line"/>
      <point x="391" y="758" type="line"/>
      <point x="333" y="758" type="line" smooth="yes"/>
      <point x="293" y="758"/>
      <point x="259" y="747"/>
      <point x="234" y="725" type="curve" smooth="yes"/>
      <point x="208" y="703"/>
      <point x="191" y="672"/>
      <point x="182" y="631" type="curve" smooth="yes"/>
      <point x="148" y="466" type="line" smooth="yes"/>
      <point x="142" y="439"/>
      <point x="133" y="419"/>
      <point x="122" y="408" type="curve" smooth="yes"/>
      <point x="111" y="397"/>
      <point x="91" y="391"/>
      <point x="65" y="391" type="curve"/>
      <point x="43" y="286" type="line"/>
      <point x="69" y="286"/>
      <point x="86" y="280"/>
      <point x="93" y="269" type="curve" smooth="yes"/>
      <point x="100" y="258"/>
      <point x="101" y="239"/>
      <point x="95" y="212" type="curve" smooth="yes"/>
      <point x="60" y="41" type="line" smooth="yes"/>
      <point x="51" y="0"/>
      <point x="56" y="-31"/>
      <point x="72" y="-53" type="curve" smooth="yes"/>
      <point x="88" y="-75"/>
      <point x="117" y="-86"/>
    </contour>
  </outline>
</glyph>
<glyph name="braceright" format="2">
  <advance width="326"/>
  <unicode hex="007D"/>
  <outline>
    <contour>
      <point x="-34" y="-86" type="line"/>
      <point x="24" y="-86" type="line" smooth="yes"/>
      <point x="65" y="-86"/>
      <point x="97" y="-75"/>
      <point x="123" y="-53" type="curve" smooth="yes"/>
      <point x="149" y="-31"/>
      <point x="165" y="0"/>
      <point x="174" y="41" type="curve" smooth="yes"/>
      <point x="209" y="212" type="line" smooth="yes"/>
      <point x="215" y="239"/>
      <point x="224" y="258"/>
      <point x="236" y="269" type="curve" smooth="yes"/>
      <point x="247" y="280"/>
      <point x="266" y="286"/>
      <point x="292" y="286" type="curve"/>
      <point x="314" y="391" type="line"/>
      <point x="288" y="391"/>
      <point x="272" y="397"/>
      <point x="265" y="408" type="curve" smooth="yes"/>
      <point x="257" y="419"/>
      <point x="256" y="439"/>
      <point x="262" y="466" type="curve" smooth="yes"/>
      <point x="296" y="631" type="line" smooth="yes"/>
      <point x="305" y="672"/>
      <point x="301" y="703"/>
      <point x="285" y="725" type="curve" smooth="yes"/>
      <point x="268" y="747"/>
      <point x="240" y="758"/>
      <point x="200" y="758" type="curve" smooth="yes"/>
      <point x="142" y="758" type="line"/>
      <point x="120" y="652" type="line"/>
      <point x="140" y="652" type="line" smooth="yes"/>
      <point x="155" y="652"/>
      <point x="165" y="648"/>
      <point x="170" y="640" type="curve" smooth="yes"/>
      <point x="175" y="632"/>
      <point x="176" y="620"/>
      <point x="173" y="605" type="curve" smooth="yes"/>
      <point x="146" y="475" type="line" smooth="yes"/>
      <point x="137" y="432"/>
      <point x="134" y="401"/>
      <point x="138" y="382" type="curve" smooth="yes"/>
      <point x="142" y="363"/>
      <point x="156" y="348"/>
      <point x="180" y="339" type="curve"/>
      <point x="153" y="329"/>
      <point x="133" y="315"/>
      <point x="122" y="296" type="curve" smooth="yes"/>
      <point x="109" y="277"/>
      <point x="98" y="245"/>
      <point x="89" y="202" type="curve" smooth="yes"/>
      <point x="61" y="67" type="line" smooth="yes"/>
      <point x="58" y="52"/>
      <point x="52" y="40"/>
      <point x="44" y="32" type="curve" smooth="yes"/>
      <point x="35" y="23"/>
      <point x="23" y="19"/>
      <point x="8" y="19" type="curve" smooth="yes"/>
      <point x="-12" y="19" type="line"/>
    </contour>
  </outline>
</glyph>
<glyph name="asciitilde" format="2">
  <advance width="429"/>
  <unicode hex="007E"/>
  <outline>
    <contour>
      <point x="99" y="202" type="line"/>
      <point x="110" y="222"/>
      <point x="120" y="236"/>
      <point x="128" y="243" type="curve" smooth="yes"/>
      <point x="136" y="250"/>
      <point x="145" y="253"/>
      <point x="155" y="253" type="curve" smooth="yes"/>
      <point x="159" y="253"/>
      <point x="164" y="252"/>
      <point x="169" y="251" type="curve" smooth="yes"/>
      <point x="174" y="249"/>
      <point x="180" y="246"/>
      <point x="187" y="242" type="curve" smooth="yes"/>
      <point x="194" y="238"/>
      <point x="198" y="235"/>
      <point x="200" y="234" type="curve" smooth="yes"/>
      <point x="213" y="225"/>
      <point x="226" y="219"/>
      <point x="239" y="214" type="curve" smooth="yes"/>
      <point x="251" y="209"/>
      <point x="263" y="207"/>
      <point x="276" y="207" type="curve" smooth="yes"/>
      <point x="301" y="207"/>
      <point x="323" y="215"/>
      <point x="342" y="231" type="curve" smooth="yes"/>
      <point x="361" y="246"/>
      <point x="378" y="272"/>
      <point x="395" y="307" type="curve"/>
      <point x="323" y="350" type="line"/>
      <point x="311" y="329"/>
      <point x="301" y="315"/>
      <point x="294" y="308" type="curve" smooth="yes"/>
      <point x="287" y="301"/>
      <point x="278" y="298"/>
      <point x="267" y="298" type="curve" smooth="yes"/>
      <point x="261" y="298"/>
      <point x="254" y="300"/>
      <point x="246" y="304" type="curve" smooth="yes"/>
      <point x="237" y="307"/>
      <point x="229" y="311"/>
      <point x="221" y="316" type="curve" smooth="yes"/>
      <point x="207" y="325"/>
      <point x="194" y="332"/>
      <point x="182" y="337" type="curve" smooth="yes"/>
      <point x="170" y="342"/>
      <point x="157" y="344"/>
      <point x="144" y="344" type="curve" smooth="yes"/>
      <point x="120" y="344"/>
      <point x="99" y="336"/>
      <point x="80" y="321" type="curve" smooth="yes"/>
      <point x="61" y="305"/>
      <point x="43" y="279"/>
      <point x="26" y="244" type="curve"/>
    </contour>
  </outline>
</glyph>
<glyph name="exclamdown" format="2">
  <advance width="212"/>
  <unicode hex="00A1"/>
  <outline>
    <contour>
      <point x="104.48758251111046" y="541" type="line"/>
      <point x="223.48758251111047" y="541" type="line"/>
      <point x="195.6274159415307" y="407" type="line"/>
      <point x="76.6274159415307" y="407" type="line"/>
    </contour>
    <contour>
      <point x="77.29162869547909" y="314" type="line"/>
      <point x="156.2916286954791" y="314" type="line"/>
      <point x="82.32566386622564" y="-162" type="line"/>
      <point x="-46.67433613377436" y="-162" type="line"/>
    </contour>
  </outline>
</glyph>
<glyph name="cent" format="2">
  <advance width="453"/>
  <unicode hex="00A2"/>
  <outline>
    <contour>
      <point x="281.19227294655394" y="352" type="line"/>
      <point x="285.14259507209135" y="371" type="line" smooth="yes"/>
      <point x="290.1324756517176" y="395"/>
      <point x="289.87488608643724" y="413"/>
      <point x="283.3698263762504" y="425" type="curve" smooth="yes"/>
      <point x="276.6568549752457" y="436"/>
      <point x="264.9043251201523" y="442"/>
      <point x="247.9043251201523" y="442" type="curve" smooth="yes"/>
      <point x="229.9043251201523" y="442"/>
      <point x="215.44894328442797" y="435"/>
      <point x="203.53817961297932" y="421" type="curve" smooth="yes"/>
      <point x="191.6274159415307" y="407"/>
      <point x="183.05335874354" y="385"/>
      <point x="176.60809632818945" y="354" type="curve" smooth="yes"/>
      <point x="141.6789322708059" y="186" type="line" smooth="yes"/>
      <point x="135.23366985545536" y="155"/>
      <point x="134.65961265746463" y="133"/>
      <point x="140.74884898601601" y="119" type="curve" smooth="yes"/>
      <point x="146.8380853145674" y="105"/>
      <point x="158.38270347884307" y="98"/>
      <point x="175.38270347884307" y="98" type="curve" smooth="yes"/>
      <point x="192.38270347884307" y="98"/>
      <point x="207.6301736237496" y="104"/>
      <point x="219.12511391356273" y="116" type="curve" smooth="yes"/>
      <point x="230.62005420337584" y="128"/>
      <point x="238.3624646380955" y="146"/>
      <point x="243.5602569085395" y="171" type="curve" smooth="yes"/>
      <point x="247.09475565244142" y="188" type="line"/>
      <point x="362.0947556524414" y="188" type="line"/>
      <point x="358.5602569085395" y="171" type="line" smooth="yes"/>
      <point x="348.1646723676515" y="121"/>
      <point x="330.05611642575894" y="82"/>
      <point x="304.0266773920439" y="53" type="curve" smooth="yes"/>
      <point x="277.9972383583289" y="24"/>
      <point x="245.04691623279146" y="5"/>
      <point x="206.38362270624938" y="-3" type="curve"/>
      <point x="185.8003653152912" y="-102" type="line"/>
      <point x="125.8003653152912" y="-102" type="line"/>
      <point x="145.3440642521606" y="-8" type="line"/>
      <point x="92.55197594297834" y="-7"/>
      <point x="54.878562996062485" y="9"/>
      <point x="34.323825411413026" y="40" type="curve" smooth="yes"/>
      <point x="12.769087826763567" y="71"/>
      <point x="8.956760676833774" y="120"/>
      <point x="22.88684396162365" y="187" type="curve" smooth="yes"/>
      <point x="57.4001846373717" y="353" type="line" smooth="yes"/>
      <point x="71.33026792216157" y="420"/>
      <point x="95.72585246304953" y="470"/>
      <point x="130.1711148784001" y="501" type="curve" smooth="yes"/>
      <point x="163.61637729375062" y="532"/>
      <point x="207.94296434683477" y="548"/>
      <point x="261.15087603765255" y="549" type="curve"/>
      <point x="282.14995681024624" y="650" type="line"/>
      <point x="342.14995681024624" y="650" type="line"/>
      <point x="320.11131758356373" y="544" type="line"/>
      <point x="393.5768188396618" y="527"/>
      <point x="420.72585246304953" y="470"/>
      <point x="400.5584184537269" y="373" type="curve" smooth="yes"/>
      <point x="396.19227294655394" y="352" type="line"/>
    </contour>
  </outline>
</glyph>
<glyph name="sterling" format="2">
  <advance width="430"/>
  <unicode hex="00A3"/>
  <outline>
    <contour>
      <point x="141.70929053192722" y="114" type="curve"/>
      <point x="370.7092905319272" y="114" type="line"/>
      <point x="347.00735777870267" y="0" type="line"/>
      <point x="-17.992642221297345" y="0" type="line"/>
      <point x="6.125113913562739" y="116" type="line"/>
      <point x="26.580495749287053" y="123"/>
      <point x="40.65961265746465" y="133"/>
      <point x="49.36246463809552" y="146" type="curve" smooth="yes"/>
      <point x="57.065316618726385" y="159"/>
      <point x="64.43146212589934" y="180"/>
      <point x="70.2529894687966" y="208" type="curve" smooth="yes"/>
      <point x="88.54921826075942" y="296" type="line"/>
      <point x="25.549218260759417" y="296" type="line"/>
      <point x="49.251151013983986" y="410" type="line"/>
      <point x="112.25115101398399" y="410" type="line"/>
      <point x="141.7746111101058" y="552" type="line" smooth="yes"/>
      <point x="152.79393072344706" y="605"/>
      <point x="175.11039835615742" y="645"/>
      <point x="208.13983738987247" y="674" type="curve" smooth="yes"/>
      <point x="241.16927642358746" y="703"/>
      <point x="286.0800400950361" y="717"/>
      <point x="341.0800400950361" y="717" type="curve" smooth="yes"/>
      <point x="396.0800400950361" y="717"/>
      <point x="434.9613647327697" y="702"/>
      <point x="455.93192569905466" y="673" type="curve" smooth="yes"/>
      <point x="476.90248666533967" y="644"/>
      <point x="481.1701956509938" y="602"/>
      <point x="469.94296434683474" y="548" type="curve"/>
      <point x="349.94296434683474" y="548" type="line"/>
      <point x="355.1407566172787" y="573"/>
      <point x="355.88316705199844" y="591"/>
      <point x="351.962283960176" y="601" type="curve" smooth="yes"/>
      <point x="347.0414008683536" y="611"/>
      <point x="338.0809593224424" y="616"/>
      <point x="324.0809593224424" y="616" type="curve" smooth="yes"/>
      <point x="309.0809593224424" y="616"/>
      <point x="297.24931255917136" y="612"/>
      <point x="288.3781073418115" y="603" type="curve" smooth="yes"/>
      <point x="279.5069021244517" y="594"/>
      <point x="273.59613845300305" y="580"/>
      <point x="269.64581632746564" y="561" type="curve" smooth="yes"/>
      <point x="238.25115101398399" y="410" type="line"/>
      <point x="361.251151013984" y="410" type="line"/>
      <point x="337.5492182607594" y="296" type="line"/>
      <point x="214.54921826075943" y="296" type="line"/>
      <point x="195.83716608716108" y="206" type="line" smooth="yes"/>
      <point x="191.47102057998814" y="185"/>
      <point x="184.72861014526848" y="167"/>
      <point x="176.60993478300207" y="152" type="curve" smooth="yes"/>
      <point x="167.49125942073567" y="137"/>
      <point x="155.9963191309226" y="125"/>
    </contour>
  </outline>
</glyph>
<glyph name="currency" format="2">
  <advance width="584"/>
  <unicode hex="00A4"/>
  <outline>
    <contour>
      <point x="371" y="137" type="line"/>
      <point x="335" y="118"/>
      <point x="298" y="109"/>
      <point x="260" y="110" type="curve" smooth="yes"/>
      <point x="221" y="110"/>
      <point x="187" y="119"/>
      <point x="158" y="137" type="curve"/>
      <point x="78" y="71" type="line"/>
      <point x="18" y="147" type="line"/>
      <point x="99" y="215" type="line"/>
      <point x="88" y="246"/>
      <point x="86" y="280"/>
      <point x="94" y="318" type="curve" smooth="yes"/>
      <point x="102" y="355"/>
      <point x="118" y="389"/>
      <point x="143" y="422" type="curve"/>
      <point x="89" y="490" type="line"/>
      <point x="182" y="567" type="line"/>
      <point x="234" y="500" type="line"/>
      <point x="271" y="519"/>
      <point x="309" y="528"/>
      <point x="347" y="527" type="curve" smooth="yes"/>
      <point x="384" y="527"/>
      <point x="417" y="518"/>
      <point x="446" y="500" type="curve"/>
      <point x="529" y="567" type="line"/>
      <point x="589" y="490" type="line"/>
      <point x="507" y="423" type="line"/>
      <point x="519" y="390"/>
      <point x="521" y="355"/>
      <point x="513" y="318" type="curve" smooth="yes"/>
      <point x="505" y="281"/>
      <point x="489" y="247"/>
      <point x="465" y="215" type="curve"/>
      <point x="518" y="146" type="line"/>
      <point x="426" y="70" type="line"/>
    </contour>
    <contour>
      <point x="403" y="318" type="curve" smooth="yes"/>
      <point x="409" y="347"/>
      <point x="405" y="372"/>
      <point x="391" y="392" type="curve" smooth="yes"/>
      <point x="376" y="412"/>
      <point x="354" y="422"/>
      <point x="325" y="422" type="curve" smooth="yes"/>
      <point x="296" y="422"/>
      <point x="271" y="412"/>
      <point x="248" y="392" type="curve" smooth="yes"/>
      <point x="224" y="372"/>
      <point x="210" y="347"/>
      <point x="204" y="318" type="curve" smooth="yes"/>
      <point x="198" y="289"/>
      <point x="202" y="264"/>
      <point x="217" y="245" type="curve" smooth="yes"/>
      <point x="232" y="225"/>
      <point x="253" y="215"/>
      <point x="282" y="215" type="curve" smooth="yes"/>
      <point x="311" y="215"/>
      <point x="337" y="225"/>
      <point x="360" y="245" type="curve" smooth="yes"/>
      <point x="383" y="264"/>
      <point x="397" y="289"/>
    </contour>
  </outline>
</glyph>
<glyph name="yen" format="2">
  <advance width="418"/>
  <unicode hex="00A5"/>
  <outline>
    <contour>
      <point x="114.50137884110946" y="113" type="line"/>
      <point x="9.50137884110946" y="113" type="line"/>
      <point x="27.589695942254522" y="200" type="line"/>
      <point x="132.58969594225454" y="200" type="line"/>
      <point x="143.8169272464135" y="254" type="line"/>
      <point x="38.81692724641353" y="254" type="line"/>
      <point x="56.90524434755859" y="341" type="line"/>
      <point x="149.90524434755858" y="341" type="line"/>
      <point x="97.00092318685851" y="707" type="line"/>
      <point x="230.00092318685853" y="707" type="line"/>
      <point x="247.03311990279246" y="433" type="line"/>
      <point x="375.00092318685853" y="707" type="line"/>
      <point x="506.00092318685853" y="707" type="line"/>
      <point x="300.9052443475586" y="341" type="line"/>
      <point x="393.9052443475586" y="341" type="line"/>
      <point x="375.8169272464135" y="254" type="line"/>
      <point x="269.8169272464135" y="254" type="line"/>
      <point x="258.58969594225454" y="200" type="line"/>
      <point x="364.58969594225454" y="200" type="line"/>
      <point x="346.50137884110944" y="113" type="line"/>
      <point x="240.50137884110947" y="113" type="line"/>
      <point x="217.00735777870267" y="0" type="line"/>
      <point x="91.00735777870266" y="0" type="line"/>
    </contour>
  </outline>
</glyph>
<glyph name="section" format="2">
  <advance width="418"/>
  <unicode hex="00A7"/>
  <outline>
    <contour>
      <point x="1.8390045419736936" y="4" type="curve"/>
      <point x="109.8390045419737" y="4" type="line"/>
      <point x="103.6016538174409" y="-26"/>
      <point x="102.23550831026796" y="-47"/>
      <point x="104.74056802045486" y="-59" type="curve" smooth="yes"/>
      <point x="107.03771603982398" y="-72"/>
      <point x="116.79024589491742" y="-78"/>
      <point x="135.7902458949174" y="-78" type="curve" smooth="yes"/>
      <point x="152.7902458949174" y="-78"/>
      <point x="166.03771603982398" y="-72"/>
      <point x="174.32474463881934" y="-61" type="curve" smooth="yes"/>
      <point x="182.6117732378147" y="-50"/>
      <point x="188.73044860008108" y="-35"/>
      <point x="192.88868241643627" y="-15" type="curve" smooth="yes"/>
      <point x="197.46273961442697" y="7"/>
      <point x="197.99723835832887" y="24"/>
      <point x="195.492178648142" y="36" type="curve" smooth="yes"/>
      <point x="191.9871189379551" y="48"/>
      <point x="185.0662358461327" y="58"/>
      <point x="174.72952937267476" y="66" type="curve" smooth="yes"/>
      <point x="164.1849112083991" y="73"/>
      <point x="147.05611642575892" y="82"/>
      <point x="123.92732164311874" y="91" type="curve" smooth="yes"/>
      <point x="83.2539086962029" y="107"/>
      <point x="58.03587758501137" y="130"/>
      <point x="47.065316618726385" y="159" type="curve" smooth="yes"/>
      <point x="36.09475565244141" y="188"/>
      <point x="35.411223285151785" y="228"/>
      <point x="46.22263120767527" y="280" type="curve" smooth="yes"/>
      <point x="54.33118714956788" y="319"/>
      <point x="67.19227294655394" y="352"/>
      <point x="84.39006521699793" y="377" type="curve" smooth="yes"/>
      <point x="101.58785748744191" y="402"/>
      <point x="126.33026792216157" y="420"/>
      <point x="157.82520821197468" y="432" type="curve"/>
      <point x="134.9043251201523" y="442"/>
      <point x="120.4388238640542" y="459"/>
      <point x="116.42870444368042" y="483" type="curve" smooth="yes"/>
      <point x="111.21067333248888" y="506"/>
      <point x="112.2401123662039" y="535"/>
      <point x="119.30910985400772" y="569" type="curve" smooth="yes"/>
      <point x="130.32842946734897" y="622"/>
      <point x="151.43698540924157" y="661"/>
      <point x="184.05060106132106" y="688" type="curve" smooth="yes"/>
      <point x="215.45630502258282" y="714"/>
      <point x="256.1591570032137" y="727"/>
      <point x="306.1591570032137" y="727" type="curve" smooth="yes"/>
      <point x="362.1591570032137" y="727"/>
      <point x="398.24839333176504" y="713"/>
      <point x="414.4268659888678" y="685" type="curve" smooth="yes"/>
      <point x="429.60533864597056" y="657"/>
      <point x="431.4572242499891" y="613"/>
      <point x="418.98252280092356" y="553" type="curve"/>
      <point x="311.98252280092356" y="553" type="line"/>
      <point x="318.0119618346386" y="582"/>
      <point x="320.3781073418115" y="603"/>
      <point x="318.8730476316247" y="615" type="curve" smooth="yes"/>
      <point x="316.36798792143776" y="627"/>
      <point x="306.61545806634433" y="633"/>
      <point x="287.61545806634433" y="633" type="curve" smooth="yes"/>
      <point x="270.61545806634433" y="633"/>
      <point x="259.5758996122555" y="628"/>
      <point x="252.28887101326018" y="617" type="curve" smooth="yes"/>
      <point x="245.00184241426481" y="606"/>
      <point x="238.67525536118066" y="590"/>
      <point x="234.30910985400772" y="569" type="curve" smooth="yes"/>
      <point x="229.94296434683477" y="548"/>
      <point x="229.61637729375062" y="532"/>
      <point x="232.32934869475525" y="521" type="curve" smooth="yes"/>
      <point x="235.04232009575992" y="510"/>
      <point x="241.96320318758234" y="500"/>
      <point x="252.29990966104026" y="492" type="curve" smooth="yes"/>
      <point x="262.6366161344982" y="484"/>
      <point x="278.9733226079561" y="476"/>
      <point x="301.31002908141403" y="468" type="curve" smooth="yes"/>
      <point x="342.9834420283299" y="452"/>
      <point x="368.40938483033915" y="430"/>
      <point x="379.37994579662416" y="401" type="curve" smooth="yes"/>
      <point x="390.3505067629091" y="372"/>
      <point x="390.0340391301988" y="332"/>
      <point x="379.22263120767525" y="280" type="curve" smooth="yes"/>
      <point x="370.9061635749649" y="240"/>
      <point x="358.2529894687966" y="208"/>
      <point x="341.05519719835263" y="183" type="curve" smooth="yes"/>
      <point x="323.85740492790865" y="158"/>
      <point x="298.9070828023712" y="139"/>
      <point x="267.62005420337584" y="128" type="curve"/>
      <point x="291.3330256043805" y="117"/>
      <point x="305.7985268604786" y="100"/>
      <point x="311.0165579716701" y="77" type="curve" smooth="yes"/>
      <point x="316.23458908286165" y="54"/>
      <point x="314.9972383583289" y="24"/>
      <point x="307.7203291797073" y="-11" type="curve" smooth="yes"/>
      <point x="285.473778262207" y="-118"/>
      <point x="222.24654695804804" y="-172"/>
      <point x="117.24654695804804" y="-172" type="curve" smooth="yes"/>
      <point x="61.24654695804804" y="-172"/>
      <point x="25.157310629496678" y="-158"/>
      <point x="8.1867496632117" y="-129" type="curve" smooth="yes"/>
      <point x="-8.991722993891045" y="-101"/>
      <point x="-10.843608597909622" y="-57"/>
    </contour>
    <contour>
      <point x="266.22263120767525" y="280" type="curve" smooth="yes"/>
      <point x="273.29162869547906" y="314"/>
      <point x="275.48942096592305" y="339"/>
      <point x="271.60809632818945" y="354" type="curve" smooth="yes"/>
      <point x="267.72677169045585" y="369"/>
      <point x="255.39006521699793" y="377"/>
      <point x="232.39006521699793" y="377" type="curve" smooth="yes"/>
      <point x="209.39006521699793" y="377"/>
      <point x="193.72677169045585" y="369"/>
      <point x="184.60809632818945" y="354" type="curve" smooth="yes"/>
      <point x="174.28150927510532" y="338"/>
      <point x="166.08371700466134" y="313"/>
      <point x="159.22263120767528" y="280" type="curve" smooth="yes"/>
      <point x="152.36154541068922" y="247"/>
      <point x="150.16375314024523" y="222"/>
      <point x="153.83716608716108" y="206" type="curve" smooth="yes"/>
      <point x="157.51057903407693" y="190"/>
      <point x="169.84728550753485" y="182"/>
      <point x="191.84728550753485" y="182" type="curve" smooth="yes"/>
      <point x="214.84728550753485" y="182"/>
      <point x="230.51057903407693" y="190"/>
      <point x="240.83716608716108" y="206" type="curve" smooth="yes"/>
      <point x="250.95584144942748" y="221"/>
      <point x="259.15363371987144" y="246"/>
    </contour>
  </outline>
</glyph>
<glyph name="dieresis" format="2">
  <advance width="512"/>
  <unicode hex="00A8"/>
  <outline>
    <contour>
      <point x="199" y="605" type="line"/>
      <point x="294" y="605" type="line"/>
      <point x="318" y="722" type="line"/>
      <point x="223" y="722" type="line"/>
    </contour>
    <contour>
      <point x="359" y="605" type="line"/>
      <point x="454" y="605" type="line"/>
      <point x="478" y="722" type="line"/>
      <point x="383" y="722" type="line"/>
    </contour>
  </outline>
</glyph>
<glyph name="ordfeminine" format="2">
  <advance width="314"/>
  <unicode hex="00AA"/>
  <outline>
    <contour>
      <point x="347.02116202760607" y="659" type="curve" smooth="yes"/>
      <point x="301.4885017385168" y="440" type="line"/>
      <point x="227.48850173851676" y="440" type="line"/>
      <point x="232.89420569977852" y="466" type="line"/>
      <point x="221.8150887916009" y="456"/>
      <point x="211.15179526505884" y="448"/>
      <point x="201.11223681097005" y="443" type="curve" smooth="yes"/>
      <point x="191.07267835688126" y="438"/>
      <point x="179.44894328442797" y="435"/>
      <point x="164.44894328442797" y="435" type="curve" smooth="yes"/>
      <point x="134.44894328442797" y="435"/>
      <point x="113.3201485017878" y="444"/>
      <point x="101.8546472456897" y="461" type="curve" smooth="yes"/>
      <point x="90.38914598959161" y="478"/>
      <point x="87.5869382600356" y="503"/>
      <point x="94.44802405702166" y="536" type="curve" smooth="yes"/>
      <point x="100.89328647237221" y="567"/>
      <point x="115.67525536118066" y="590"/>
      <point x="140.2097541050826" y="607" type="curve" smooth="yes"/>
      <point x="163.53634115816672" y="623"/>
      <point x="194.1996346847088" y="631"/>
      <point x="233.1996346847088" y="631" type="curve" smooth="yes"/>
      <point x="263.1996346847088" y="631" type="line"/>
      <point x="270.06072048169483" y="664" type="line" smooth="yes"/>
      <point x="271.93192569905466" y="673"/>
      <point x="271.387307534779" y="680"/>
      <point x="267.4268659888678" y="685" type="curve" smooth="yes"/>
      <point x="263.6743361337744" y="691"/>
      <point x="255.09015951540988" y="693"/>
      <point x="243.09015951540988" y="693" type="curve" smooth="yes"/>
      <point x="233.09015951540988" y="693"/>
      <point x="224.67433613377437" y="691"/>
      <point x="217.63477767968556" y="686" type="curve" smooth="yes"/>
      <point x="209.59521922559676" y="681"/>
      <point x="205.34774908069022" y="675"/>
      <point x="203.68445555414814" y="667" type="curve" smooth="yes"/>
      <point x="203.06072048169486" y="664" type="line"/>
      <point x="130.06072048169486" y="664" type="line"/>
      <point x="130.4765438633304" y="666" type="line" smooth="yes"/>
      <point x="137.33762966031645" y="699"/>
      <point x="152.32751023994265" y="723"/>
      <point x="175.86200898384456" y="740" type="curve" smooth="yes"/>
      <point x="198.18859603692871" y="756"/>
      <point x="225.8518895634708" y="764"/>
      <point x="258.85188956347076" y="764" type="curve" smooth="yes"/>
      <point x="293.85188956347076" y="764"/>
      <point x="318.98068434611093" y="755"/>
      <point x="334.0303622205735" y="736" type="curve" smooth="yes"/>
      <point x="349.0800400950361" y="717"/>
      <point x="353.6743361337744" y="691"/>
    </contour>
    <contour>
      <point x="243.8638474386572" y="538" type="curve" smooth="yes"/>
      <point x="251.34866830809653" y="574" type="line"/>
      <point x="230.34866830809653" y="574" type="line" smooth="yes"/>
      <point x="197.34866830809653" y="574"/>
      <point x="178.8537280182834" y="562"/>
      <point x="174.07175912947494" y="539" type="curve" smooth="yes"/>
      <point x="172.2005539121151" y="530"/>
      <point x="173.53726038557303" y="522"/>
      <point x="178.2897902406665" y="516" type="curve" smooth="yes"/>
      <point x="182.83440840494217" y="509"/>
      <point x="191.21067333248888" y="506"/>
      <point x="202.21067333248888" y="506" type="curve" smooth="yes"/>
      <point x="212.21067333248888" y="506"/>
      <point x="220.83440840494217" y="509"/>
      <point x="229.0818785498487" y="515" type="curve" smooth="yes"/>
      <point x="237.1214370039375" y="520"/>
      <point x="241.78473053047958" y="528"/>
    </contour>
  </outline>
</glyph>
<glyph name="guillemotleft" format="2">
  <advance width="452"/>
  <unicode hex="00AB"/>
  <outline>
    <contour>
      <point x="15.143514299497676" y="270" type="line"/>
      <point x="256.3495875355028" y="473" type="line"/>
      <point x="232.85556647309602" y="360" type="line"/>
      <point x="126.14351429949768" y="270" type="line"/>
      <point x="195.43146212589934" y="180" type="line"/>
      <point x="172.1453527543103" y="68" type="line"/>
    </contour>
    <contour>
      <point x="213.14351429949767" y="270" type="line"/>
      <point x="454.3495875355028" y="473" type="line"/>
      <point x="430.855566473096" y="360" type="line"/>
      <point x="323.14351429949767" y="270" type="line"/>
      <point x="393.4314621258993" y="180" type="line"/>
      <point x="370.1453527543103" y="68" type="line"/>
    </contour>
  </outline>
</glyph>
<glyph name="macron" format="2">
  <advance width="512"/>
  <unicode hex="00AF"/>
  <outline>
    <contour>
      <point x="228.0800400950361" y="717" type="line"/>
      <point x="471.0800400950361" y="717" type="line"/>
      <point x="448.83348917753585" y="610" type="line"/>
      <point x="205.83348917753585" y="610" type="line"/>
    </contour>
  </outline>
</glyph>
<glyph name="acute" format="2">
  <advance width="512"/>
  <unicode hex="00B4"/>
  <outline>
    <contour>
      <point x="213" y="604" type="line"/>
      <point x="315" y="604" type="line"/>
      <point x="469" y="743" type="line"/>
      <point x="343" y="743" type="line"/>
    </contour>
  </outline>
</glyph>
<glyph name="mu" format="2">
  <advance width="419"/>
  <unicode hex="00B5"/>
  <outline>
    <contour>
      <point x="99.48758251111046" y="541" type="line"/>
      <point x="218.48758251111047" y="541" type="line"/>
      <point x="138.4415815462731" y="156" type="line" smooth="yes"/>
      <point x="134.49125942073567" y="137"/>
      <point x="136.58049574928705" y="123"/>
      <point x="143.50137884110947" y="113" type="curve" smooth="yes"/>
      <point x="150.42226193293186" y="103"/>
      <point x="160.38270347884307" y="98"/>
      <point x="175.38270347884307" y="98" type="curve" smooth="yes"/>
      <point x="190.38270347884307" y="98"/>
      <point x="203.42226193293186" y="103"/>
      <point x="214.50137884110947" y="113" type="curve" smooth="yes"/>
      <point x="225.58049574928705" y="123"/>
      <point x="232.49125942073567" y="137"/>
      <point x="236.4415815462731" y="156" type="curve" smooth="yes"/>
      <point x="316.4875825111105" y="541" type="line"/>
      <point x="435.4875825111105" y="541" type="line"/>
      <point x="323.00735777870267" y="0" type="line"/>
      <point x="209.00735777870267" y="0" type="line"/>
      <point x="217.32382541141303" y="40" type="line"/>
      <point x="208.20515004914665" y="25"/>
      <point x="196.9181214501513" y="14"/>
      <point x="182.46273961442697" y="7" type="curve" smooth="yes"/>
      <point x="167.7994460878849" y="-1"/>
      <point x="152.96779932461385" y="-5"/>
      <point x="139.96779932461385" y="-5" type="curve" smooth="yes"/>
      <point x="122.96779932461385" y="-5"/>
      <point x="109.59153439706714" y="-2"/>
      <point x="99.8390045419737" y="4" type="curve"/>
      <point x="65.32566386622564" y="-162" type="line"/>
      <point x="-46.67433613377436" y="-162" type="line"/>
    </contour>
  </outline>
</glyph>
<glyph name="paragraph" format="2">
  <advance width="566"/>
  <unicode hex="00B6"/>
  <outline>
    <contour>
      <point x="213.5197792270444" y="267" type="line"/>
      <point x="180.93560260867991" y="269"/>
      <point x="153.22263120767528" y="280"/>
      <point x="132.58877671484822" y="301" type="curve" smooth="yes"/>
      <point x="110.7470105312034" y="321"/>
      <point x="96.15271449246515" y="347"/>
      <point x="89.01380028945121" y="380" type="curve" smooth="yes"/>
      <point x="80.6669743956195" y="412"/>
      <point x="81.15179526505884" y="448"/>
      <point x="89.26035120695146" y="487" type="curve" smooth="yes"/>
      <point x="97.57681883966183" y="527"/>
      <point x="113.26955139991892" y="564"/>
      <point x="137.33854888772274" y="598" type="curve" smooth="yes"/>
      <point x="161.1996346847088" y="631"/>
      <point x="190.81325033678831" y="658"/>
      <point x="225.97148415314348" y="678" type="curve" smooth="yes"/>
      <point x="260.92180627868095" y="697"/>
      <point x="299.00092318685853" y="707"/>
      <point x="340.00092318685853" y="707" type="curve" smooth="yes"/>
      <point x="594.0009231868585" y="707" type="line"/>
      <point x="413.3256638662256" y="-162" type="line"/>
      <point x="300.3256638662256" y="-162" type="line"/>
      <point x="460.83348917753585" y="610" type="line"/>
      <point x="398.83348917753585" y="610" type="line"/>
      <point x="238.32566386622563" y="-162" type="line"/>
      <point x="124.32566386622564" y="-162" type="line"/>
    </contour>
  </outline>
</glyph>
<glyph name="cedilla" format="2">
  <advance width="512"/>
  <unicode hex="00B8"/>
  <outline>
    <contour>
      <point x="179" y="10" type="line"/>
      <point x="270" y="10" type="line"/>
      <point x="173" y="-162" type="line"/>
      <point x="69" y="-162" type="line"/>
    </contour>
  </outline>
</glyph>
<glyph name="ordmasculine" format="2">
  <advance width="317"/>
  <unicode hex="00BA"/>
  <outline>
    <contour>
      <point x="104" y="552" type="curve" smooth="yes"/>
      <point x="124" y="647" type="line" smooth="yes"/>
      <point x="132" y="688"/>
      <point x="148" y="718"/>
      <point x="171" y="737" type="curve" smooth="yes"/>
      <point x="194" y="755"/>
      <point x="225" y="764"/>
      <point x="264" y="764" type="curve" smooth="yes"/>
      <point x="301" y="764"/>
      <point x="327" y="755"/>
      <point x="342" y="737" type="curve" smooth="yes"/>
      <point x="357" y="719"/>
      <point x="361" y="689"/>
      <point x="353" y="647" type="curve" smooth="yes"/>
      <point x="333" y="552" type="line" smooth="yes"/>
      <point x="324" y="511"/>
      <point x="308" y="481"/>
      <point x="285" y="463" type="curve" smooth="yes"/>
      <point x="262" y="444"/>
      <point x="232" y="435"/>
      <point x="195" y="435" type="curve" smooth="yes"/>
      <point x="156" y="435"/>
      <point x="129" y="444"/>
      <point x="114" y="462" type="curve" smooth="yes"/>
      <point x="99" y="480"/>
      <point x="95" y="510"/>
    </contour>
    <contour>
      <point x="254" y="555" type="curve" smooth="yes"/>
      <point x="273" y="644" type="line" smooth="yes"/>
      <point x="276" y="661"/>
      <point x="276" y="674"/>
      <point x="272" y="681" type="curve" smooth="yes"/>
      <point x="267" y="688"/>
      <point x="259" y="692"/>
      <point x="248" y="692" type="curve" smooth="yes"/>
      <point x="237" y="692"/>
      <point x="227" y="688"/>
      <point x="220" y="681" type="curve" smooth="yes"/>
      <point x="211" y="674"/>
      <point x="205" y="661"/>
      <point x="202" y="644" type="curve" smooth="yes"/>
      <point x="183" y="555" type="line" smooth="yes"/>
      <point x="177" y="523"/>
      <point x="185" y="507"/>
      <point x="209" y="507" type="curve" smooth="yes"/>
      <point x="220" y="507"/>
      <point x="230" y="511"/>
      <point x="238" y="518" type="curve" smooth="yes"/>
      <point x="245" y="525"/>
      <point x="251" y="538"/>
    </contour>
  </outline>
</glyph>
<glyph name="guillemotright" format="2">
  <advance width="452"/>
  <unicode hex="00BB"/>
  <outline>
    <contour>
      <point x="1" y="68" type="line"/>
      <point x="242" y="270" type="line"/>
      <point x="85" y="473" type="line"/>
      <point x="62" y="360" type="line"/>
      <point x="131" y="270" type="line"/>
      <point x="24" y="180" type="line"/>
    </contour>
    <contour>
      <point x="199" y="68" type="line"/>
      <point x="439" y="270" type="line"/>
      <point x="283" y="473" type="line"/>
      <point x="260" y="360" type="line"/>
      <point x="329" y="270" type="line"/>
      <point x="222" y="180" type="line"/>
    </contour>
  </outline>
</glyph>
<glyph name="questiondown" format="2">
  <advance width="385"/>
  <unicode hex="00BF"/>
  <outline>
    <contour>
      <point x="-28.408465602932864" y="-2" type="curve" smooth="yes"/>
      <point x="-22.79484995085336" y="25"/>
      <point x="-14.804969371227138" y="49"/>
      <point x="-4.6467355548719524" y="69" type="curve" smooth="yes"/>
      <point x="4.511498261483233" y="89"/>
      <point x="21.2934671502917" y="112"/>
      <point x="45.90708280237121" y="139" type="curve" smooth="yes"/>
      <point x="99.173872560619" y="198" type="line" smooth="yes"/>
      <point x="114.70837130452091" y="215"/>
      <point x="126.03495835760506" y="231"/>
      <point x="131.73781033823593" y="244" type="curve" smooth="yes"/>
      <point x="137.4406623188668" y="257"/>
      <point x="141.9751610627687" y="274"/>
      <point x="146.75712995157718" y="297" type="curve" smooth="yes"/>
      <point x="155.28150927510532" y="338" type="line"/>
      <point x="267.2815092751053" y="338" type="line"/>
      <point x="258.75712995157716" y="297" type="line" smooth="yes"/>
      <point x="252.31186753622663" y="266"/>
      <point x="245.11407526578265" y="241"/>
      <point x="237.57957652188074" y="224" type="curve" smooth="yes"/>
      <point x="230.04507777797883" y="207"/>
      <point x="214.26310888917038" y="184"/>
      <point x="189.23366985545536" y="155" type="curve" smooth="yes"/>
      <point x="141.38270347884307" y="98" type="line" smooth="yes"/>
      <point x="126.84820473494116" y="81"/>
      <point x="116.52161768185701" y="65"/>
      <point x="109.81876570122614" y="52" type="curve" smooth="yes"/>
      <point x="102.11591372059527" y="39"/>
      <point x="96.3735032858756" y="21"/>
      <point x="92.00735777870266" y="0" type="curve" smooth="yes"/>
      <point x="83.067155073539" y="-43"/>
      <point x="95.4930978755483" y="-65"/>
      <point x="128.4930978755483" y="-65" type="curve" smooth="yes"/>
      <point x="149.4930978755483" y="-65"/>
      <point x="165.15639140209038" y="-57"/>
      <point x="174.27506676435675" y="-42" type="curve" smooth="yes"/>
      <point x="182.39374212662315" y="-27"/>
      <point x="190.7994460878849" y="-1"/>
      <point x="198.492178648142" y="36" type="curve"/>
      <point x="317.492178648142" y="36" type="line"/>
      <point x="302.93836029089886" y="-34"/>
      <point x="279.1269523683753" y="-86"/>
      <point x="245.05795488057151" y="-120" type="curve" smooth="yes"/>
      <point x="210.78104570194995" y="-155"/>
      <point x="164.24654695804804" y="-172"/>
      <point x="105.24654695804804" y="-172" type="curve" smooth="yes"/>
      <point x="53.24654695804804" y="-172"/>
      <point x="15.36522232031443" y="-157"/>
      <point x="-8.397426955152781" y="-127" type="curve" smooth="yes"/>
      <point x="-33.16007623062001" y="-97"/>
      <point x="-39.42778521627412" y="-55"/>
    </contour>
    <contour>
      <point x="197.48758251111047" y="541" type="line"/>
      <point x="309.4875825111105" y="541" type="line"/>
      <point x="282.45906270480174" y="411" type="line"/>
      <point x="170.45906270480174" y="411" type="line"/>
    </contour>
  </outline>
</glyph>
<glyph name="Aring" format="2">
  <advance width="496"/>
  <unicode hex="00C5"/>
  <outline>
    <contour>
      <point x="304.4912594207357" y="137" type="line"/>
      <point x="139.49125942073567" y="137" type="line"/>
      <point x="82.00735777870266" y="0" type="line"/>
      <point x="-48.992642221297345" y="0" type="line"/>
      <point x="279.00092318685853" y="707" type="line"/>
      <point x="269.87212840421836" y="716"/>
      <point x="264.1591570032137" y="727"/>
      <point x="260.8620089838446" y="740" type="curve" smooth="yes"/>
      <point x="257.56486096447543" y="753"/>
      <point x="257.2677129451063" y="766"/>
      <point x="260.3863883073727" y="781" type="curve" smooth="yes"/>
      <point x="266.20791565026997" y="809"/>
      <point x="279.98988453907845" y="832"/>
      <point x="302.94020666461586" y="851" type="curve" smooth="yes"/>
      <point x="324.89052879015327" y="870"/>
      <point x="349.7617340075131" y="879"/>
      <point x="376.7617340075131" y="879" type="curve" smooth="yes"/>
      <point x="403.7617340075131" y="879"/>
      <point x="424.89052879015327" y="870"/>
      <point x="439.94020666461586" y="851" type="curve" smooth="yes"/>
      <point x="453.98988453907845" y="832"/>
      <point x="458.20791565026997" y="809"/>
      <point x="452.3863883073727" y="781" type="curve" smooth="yes"/>
      <point x="449.2677129451063" y="766"/>
      <point x="443.3569492736577" y="752"/>
      <point x="434.6540972930268" y="739" type="curve" smooth="yes"/>
      <point x="425.95124531239594" y="726"/>
      <point x="414.87212840421836" y="716"/>
      <point x="402.00092318685853" y="707" type="curve"/>
      <point x="435.00735777870267" y="0" type="line"/>
      <point x="304.00735777870267" y="0" type="line"/>
    </contour>
    <contour>
      <point x="304.9852804831425" y="250" type="line"/>
      <point x="305.6559357478394" y="537" type="line"/>
      <point x="185.9852804831425" y="250" type="line"/>
    </contour>
    <contour>
      <point x="310.3863883073727" y="781" type="curve" smooth="yes"/>
      <point x="307.68353632674183" y="768"/>
      <point x="309.60441941856425" y="758"/>
      <point x="316.7332142012044" y="749" type="curve" smooth="yes"/>
      <point x="323.8620089838446" y="740"/>
      <point x="333.82245052975577" y="735"/>
      <point x="346.82245052975577" y="735" type="curve" smooth="yes"/>
      <point x="359.82245052975577" y="735"/>
      <point x="370.8620089838446" y="740"/>
      <point x="381.7332142012044" y="749" type="curve" smooth="yes"/>
      <point x="392.60441941856425" y="758"/>
      <point x="398.68353632674183" y="768"/>
      <point x="401.3863883073727" y="781" type="curve" smooth="yes"/>
      <point x="404.08924028800357" y="794"/>
      <point x="402.5841805778167" y="806"/>
      <point x="395.45538579517654" y="815" type="curve" smooth="yes"/>
      <point x="388.32659101253637" y="824"/>
      <point x="379.1582377758074" y="828"/>
      <point x="366.1582377758074" y="828" type="curve" smooth="yes"/>
      <point x="352.1582377758074" y="828"/>
      <point x="340.32659101253637" y="824"/>
      <point x="330.45538579517654" y="815" type="curve" smooth="yes"/>
      <point x="319.5841805778167" y="806"/>
      <point x="313.2971519788213" y="795"/>
    </contour>
  </outline>
</glyph>
<glyph name="AE" format="2">
  <advance width="695"/>
  <unicode hex="00C6"/>
  <outline>
    <contour>
      <point x="548.2989904336339" y="593" type="line"/>
      <point x="511.49862115889056" y="416" type="line"/>
      <point x="675.4986211588905" y="416" type="line"/>
      <point x="652.0046000964837" y="303" type="line"/>
      <point x="488.0046000964837" y="303" type="line"/>
      <point x="448.50137884110944" y="113" type="line"/>
      <point x="638.5013788411095" y="113" type="line"/>
      <point x="615.0073577787026" y="0" type="line"/>
      <point x="299.00735777870267" y="0" type="line"/>
      <point x="327.2833477299179" y="136" type="line"/>
      <point x="160.28334772991792" y="136" type="line"/>
      <point x="82.00735777870266" y="0" type="line"/>
      <point x="-48.992642221297345" y="0" type="line"/>
      <point x="364.00092318685853" y="707" type="line"/>
      <point x="762.0009231868585" y="707" type="line"/>
      <point x="738.2989904336339" y="593" type="line"/>
    </contour>
    <contour>
      <point x="350.77736879232475" y="249" type="line"/>
      <point x="422.5069021244517" y="594" type="line"/>
      <point x="224.77736879232472" y="249" type="line"/>
    </contour>
  </outline>
</glyph>
<glyph name="Ccedilla" format="2">
  <advance width="479"/>
  <unicode hex="00C7"/>
  <outline>
    <contour>
      <point x="360.4682628977692" y="488" type="line"/>
      <point x="364.83440840494217" y="509" type="line" smooth="yes"/>
      <point x="371.4875825111105" y="541"/>
      <point x="369.4774630907367" y="565"/>
      <point x="359.59613845300305" y="580" type="curve" smooth="yes"/>
      <point x="349.71481381526945" y="595"/>
      <point x="333.3781073418115" y="603"/>
      <point x="311.3781073418115" y="603" type="curve" smooth="yes"/>
      <point x="284.3781073418115" y="603"/>
      <point x="263.5069021244517" y="594"/>
      <point x="247.76449168973204" y="576" type="curve" smooth="yes"/>
      <point x="231.8141695641946" y="557"/>
      <point x="220.2005539121151" y="530"/>
      <point x="212.507821351858" y="493" type="curve" smooth="yes"/>
      <point x="153.46090115961437" y="209" type="line" smooth="yes"/>
      <point x="139.11499449318896" y="140"/>
      <point x="157.04599700538515" y="106"/>
      <point x="207.8380853145674" y="105" type="curve" smooth="yes"/>
      <point x="230.8380853145674" y="105"/>
      <point x="250.50137884110947" y="113"/>
      <point x="266.8279658941936" y="129" type="curve" smooth="yes"/>
      <point x="283.15455294727775" y="145"/>
      <point x="293.93652183608623" y="168"/>
      <point x="300.3817842514368" y="199" type="curve" smooth="yes"/>
      <point x="304.12419468615644" y="217" type="line"/>
      <point x="429.12419468615644" y="217" type="line"/>
      <point x="425.173872560619" y="198" type="line" smooth="yes"/>
      <point x="413.73872956564225" y="143"/>
      <point x="392.38270347884304" y="98"/>
      <point x="360.52161768185704" y="65" type="curve" smooth="yes"/>
      <point x="328.660531884871" y="32"/>
      <point x="289.08647468688025" y="10"/>
      <point x="243.7994460878849" y="-1" type="curve"/>
      <point x="154.32566386622563" y="-162" type="line"/>
      <point x="49.32566386622564" y="-162" type="line"/>
      <point x="149.7598876337961" y="-6" type="line"/>
      <point x="98.79944608788489" y="-1"/>
      <point x="61.95767990424008" y="19"/>
      <point x="40.0266773920439" y="53" type="curve" smooth="yes"/>
      <point x="16.887763189029954" y="86"/>
      <point x="11.867524348282405" y="134"/>
      <point x="24.550137488165724" y="195" type="curve" smooth="yes"/>
      <point x="90.6660551682132" y="513" type="line" smooth="yes"/>
      <point x="104.59613845300308" y="580"/>
      <point x="133.99172299389105" y="630"/>
      <point x="179.2686321725126" y="665" type="curve" smooth="yes"/>
      <point x="223.5455413511342" y="700"/>
      <point x="277.0800400950361" y="717"/>
      <point x="338.0800400950361" y="717" type="curve" smooth="yes"/>
      <point x="397.0800400950361" y="717"/>
      <point x="440.5455413511342" y="700"/>
      <point x="469.4765438633304" y="666" type="curve" smooth="yes"/>
      <point x="498.1996346847088" y="631"/>
      <point x="505.3882267621853" y="579"/>
      <point x="491.0423200957599" y="510" type="curve" smooth="yes"/>
      <point x="486.4682628977692" y="488" type="line"/>
    </contour>
  </outline>
</glyph>
<glyph name="Eth" format="2">
  <advance width="494"/>
  <unicode hex="00D0"/>
  <outline>
    <contour>
      <point x="8" y="0" type="line"/>
      <point x="198" y="0" type="line" smooth="yes"/>
      <point x="258" y="0"/>
      <point x="311" y="17"/>
      <point x="356" y="52" type="curve" smooth="yes"/>
      <point x="400" y="87"/>
      <point x="429" y="137"/>
      <point x="443" y="203" type="curve" smooth="yes"/>
      <point x="506" y="504" type="line" smooth="yes"/>
      <point x="520" y="571"/>
      <point x="512" y="621"/>
      <point x="483" y="656" type="curve" smooth="yes"/>
      <point x="454" y="690"/>
      <point x="410" y="707"/>
      <point x="351" y="707" type="curve" smooth="yes"/>
      <point x="155" y="707" type="line"/>
      <point x="95" y="420" type="line"/>
      <point x="52" y="420" type="line"/>
      <point x="29" y="307" type="line"/>
      <point x="72" y="307" type="line"/>
    </contour>
    <contour>
      <point x="157" y="113" type="line"/>
      <point x="197" y="307" type="line"/>
      <point x="285" y="307" type="line"/>
      <point x="308" y="420" type="line"/>
      <point x="220" y="420" type="line"/>
      <point x="256" y="593" type="line"/>
      <point x="324" y="593" type="line" smooth="yes"/>
      <point x="349" y="593"/>
      <point x="365" y="584"/>
      <point x="374" y="565" type="curve" smooth="yes"/>
      <point x="383" y="546"/>
      <point x="383" y="518"/>
      <point x="375" y="482" type="curve" smooth="yes"/>
      <point x="320" y="217" type="line" smooth="yes"/>
      <point x="313" y="184"/>
      <point x="302" y="159"/>
      <point x="285" y="141" type="curve" smooth="yes"/>
      <point x="268" y="122"/>
      <point x="249" y="113"/>
      <point x="225" y="113" type="curve" smooth="yes"/>
    </contour>
  </outline>
</glyph>
<glyph name="Oslash" format="2">
  <advance width="479"/>
  <unicode hex="00D8"/>
  <outline>
    <contour>
      <point x="480.7341334286107" y="648" type="line"/>
      <point x="499.4572242499891" y="613"/>
      <point x="503.10119816318996" y="568"/>
      <point x="491.6660551682132" y="513" type="curve" smooth="yes"/>
      <point x="425.5501374881657" y="195" type="line" smooth="yes"/>
      <point x="412.03587758501135" y="130"/>
      <point x="382.6402930441234" y="80"/>
      <point x="338.3633838655018" y="45" type="curve" smooth="yes"/>
      <point x="293.08647468688025" y="10"/>
      <point x="240.3440642521606" y="-8"/>
      <point x="180.3440642521606" y="-8" type="curve" smooth="yes"/>
      <point x="133.3440642521606" y="-8"/>
      <point x="96.42318116033817" y="2"/>
      <point x="68.78932666751112" y="23" type="curve"/>
      <point x="39.84912396234747" y="-20" type="line"/>
      <point x="-20.15087603765253" y="-20" type="line"/>
      <point x="33.89788260940373" y="62" type="line"/>
      <point x="15.75896840638979" y="95"/>
      <point x="13.114994493188963" y="140"/>
      <point x="24.550137488165724" y="195" type="curve" smooth="yes"/>
      <point x="90.6660551682132" y="513" type="line" smooth="yes"/>
      <point x="104.59613845300308" y="580"/>
      <point x="133.99172299389105" y="630"/>
      <point x="179.2686321725126" y="665" type="curve" smooth="yes"/>
      <point x="223.5455413511342" y="700"/>
      <point x="277.0800400950361" y="717"/>
      <point x="338.0800400950361" y="717" type="curve" smooth="yes"/>
      <point x="384.0800400950361" y="717"/>
      <point x="420.00092318685853" y="707"/>
      <point x="445.8426893705033" y="687" type="curve"/>
      <point x="477.82245052975577" y="735" type="line"/>
      <point x="537.8224505297558" y="735" type="line"/>
    </contour>
    <contour>
      <point x="353.81508879160094" y="456" type="line"/>
      <point x="150.57037632891328" y="147" type="line"/>
      <point x="155.74884898601601" y="119"/>
      <point x="174.8380853145674" y="105"/>
      <point x="207.8380853145674" y="105" type="curve" smooth="yes"/>
      <point x="231.8380853145674" y="105"/>
      <point x="251.70929053192722" y="114"/>
      <point x="268.65961265746466" y="133" type="curve" smooth="yes"/>
      <point x="284.4020230921843" y="151"/>
      <point x="295.5998153626283" y="176"/>
      <point x="302.46090115961437" y="209" type="curve" smooth="yes"/>
    </contour>
    <contour>
      <point x="163.85648570050233" y="259" type="line"/>
      <point x="364.06163970910114" y="563" type="line"/>
      <point x="358.6752553611807" y="590"/>
      <point x="341.3781073418115" y="603"/>
      <point x="311.3781073418115" y="603" type="curve" smooth="yes"/>
      <point x="284.3781073418115" y="603"/>
      <point x="263.5069021244517" y="594"/>
      <point x="247.76449168973204" y="576" type="curve" smooth="yes"/>
      <point x="231.8141695641946" y="557"/>
      <point x="220.2005539121151" y="530"/>
      <point x="212.507821351858" y="493" type="curve" smooth="yes"/>
    </contour>
  </outline>
</glyph>
<glyph name="Thorn" format="2">
  <advance width="444"/>
  <unicode hex="00DE"/>
  <outline>
    <contour>
      <point x="449" y="371" type="curve" smooth="yes"/>
      <point x="434" y="296"/>
      <point x="407" y="240"/>
      <point x="369" y="203" type="curve" smooth="yes"/>
      <point x="331" y="166"/>
      <point x="278" y="147"/>
      <point x="209" y="147" type="curve" smooth="yes"/>
      <point x="144" y="147" type="line"/>
      <point x="113" y="0" type="line"/>
      <point x="-12" y="0" type="line"/>
      <point x="135" y="707" type="line"/>
      <point x="260" y="707" type="line"/>
      <point x="236" y="593" type="line"/>
      <point x="301" y="593" type="line" smooth="yes"/>
      <point x="371" y="593"/>
      <point x="418" y="575"/>
      <point x="440" y="538" type="curve" smooth="yes"/>
      <point x="461" y="501"/>
      <point x="465" y="445"/>
    </contour>
    <contour>
      <point x="323" y="371" type="curve" smooth="yes"/>
      <point x="331" y="408"/>
      <point x="331" y="435"/>
      <point x="324" y="453" type="curve" smooth="yes"/>
      <point x="317" y="470"/>
      <point x="301" y="479"/>
      <point x="274" y="479" type="curve" smooth="yes"/>
      <point x="213" y="479" type="line"/>
      <point x="167" y="260" type="line"/>
      <point x="228" y="260" type="line" smooth="yes"/>
      <point x="255" y="260"/>
      <point x="275" y="269"/>
      <point x="290" y="287" type="curve" smooth="yes"/>
      <point x="304" y="305"/>
      <point x="315" y="333"/>
    </contour>
  </outline>
</glyph>
<glyph name="germandbls" format="2">
  <advance width="430"/>
  <unicode hex="00DF"/>
  <outline>
    <contour>
      <point x="181.75896840638978" y="95" type="line"/>
      <point x="197.75896840638978" y="95" type="line" smooth="yes"/>
      <point x="209.75896840638978" y="95"/>
      <point x="219.59061516966082" y="99"/>
      <point x="227.46182038702068" y="108" type="curve" smooth="yes"/>
      <point x="234.3330256043805" y="117"/>
      <point x="241.03587758501138" y="130"/>
      <point x="245.57037632891328" y="147" type="curve" smooth="yes"/>
      <point x="250.1048750728152" y="164"/>
      <point x="256.92640241571246" y="192"/>
      <point x="264.8270466667873" y="230" type="curve" smooth="yes"/>
      <point x="272.1039558454089" y="265"/>
      <point x="276.3017481158529" y="290"/>
      <point x="278.8362468597548" y="307" type="curve" smooth="yes"/>
      <point x="281.3707456036567" y="324"/>
      <point x="279.8656858934698" y="336"/>
      <point x="276.7368911108296" y="345" type="curve" smooth="yes"/>
      <point x="273.60809632818945" y="354"/>
      <point x="265.4397430914605" y="358"/>
      <point x="252.4397430914605" y="358" type="curve" smooth="yes"/>
      <point x="234.4397430914605" y="358" type="line"/>
      <point x="255.23091217323645" y="458" type="line"/>
      <point x="271.23091217323645" y="458" type="line" smooth="yes"/>
      <point x="287.23091217323645" y="458"/>
      <point x="298.47838231814296" y="464"/>
      <point x="305.18123429877386" y="477" type="curve" smooth="yes"/>
      <point x="311.67617458858695" y="489"/>
      <point x="318.0423200957599" y="510"/>
      <point x="324.0717591294749" y="539" type="curve" smooth="yes"/>
      <point x="329.06163970910114" y="563"/>
      <point x="328.80405014382086" y="581"/>
      <point x="323.29899043363395" y="593" type="curve" smooth="yes"/>
      <point x="316.5860190326293" y="604"/>
      <point x="304.83348917753585" y="610"/>
      <point x="286.83348917753585" y="610" type="curve" smooth="yes"/>
      <point x="268.83348917753585" y="610"/>
      <point x="254.79393072344706" y="605"/>
      <point x="243.5069021244517" y="594" type="curve" smooth="yes"/>
      <point x="232.21987352545636" y="583"/>
      <point x="224.10119816318996" y="568"/>
      <point x="219.73505265601702" y="547" type="curve" smooth="yes"/>
      <point x="106.00735777870266" y="0" type="line"/>
      <point x="-12.992642221297345" y="0" type="line"/>
      <point x="97.40846560293286" y="531" type="line" smooth="yes"/>
      <point x="122.98160357351726" y="654"/>
      <point x="193.87212840421836" y="716"/>
      <point x="309.0800400950361" y="717" type="curve" smooth="yes"/>
      <point x="363.0800400950361" y="717"/>
      <point x="401.9613647327697" y="702"/>
      <point x="425.93192569905466" y="673" type="curve" smooth="yes"/>
      <point x="449.6945749745219" y="643"/>
      <point x="456.1701956509938" y="602"/>
      <point x="445.3587877284703" y="550" type="curve" smooth="yes"/>
      <point x="437.6660551682132" y="513"/>
      <point x="428.0524395161337" y="486"/>
      <point x="417.31002908141403" y="468" type="curve" smooth="yes"/>
      <point x="406.3597069558766" y="449"/>
      <point x="387.8252082119747" y="432"/>
      <point x="362.7065328497083" y="417" type="curve"/>
      <point x="378.419504250713" y="406"/>
      <point x="388.92456396089983" y="394"/>
      <point x="395.221711980269" y="381" type="curve" smooth="yes"/>
      <point x="400.31094830882034" y="367"/>
      <point x="401.5685378741007" y="349"/>
      <point x="399.99448067610996" y="327" type="curve" smooth="yes"/>
      <point x="398.42042347811923" y="305"/>
      <point x="392.767249371951" y="273"/>
      <point x="383.8270466667873" y="230" type="curve" smooth="yes"/>
      <point x="370.7286101452685" y="167"/>
      <point x="357.95676067683377" y="120"/>
      <point x="345.5114982614832" y="89" type="curve" smooth="yes"/>
      <point x="333.0662358461327" y="58"/>
      <point x="315.0763552665065" y="34"/>
      <point x="290.9576799042401" y="19" type="curve" smooth="yes"/>
      <point x="266.6310928511559" y="3"/>
      <point x="231.96779932461385" y="-5"/>
      <point x="187.96779932461385" y="-5" type="curve" smooth="yes"/>
      <point x="160.96779932461385" y="-5" type="line"/>
    </contour>
  </outline>
</glyph>
